<?xml version="1.0" standalone="no"?>
<!DOCTYPE svg PUBLIC "-//W3C//DTD SVG 20010904//EN"
 "http://www.w3.org/TR/2001/REC-SVG-20010904/DTD/svg10.dtd">
<svg version="1.0" xmlns="http://www.w3.org/2000/svg"
 width="1325.000000pt" height="1325.000000pt" viewBox="0 0 1325.000000 1325.000000"
 preserveAspectRatio="xMidYMid meet">
<metadata>
Created by potrace 1.14, written by Peter Selinger 2001-2017
</metadata>
<g transform="translate(0.000000,1325.000000) scale(0.100000,-0.100000)"
fill="#000000" stroke="none">
<path d="M2030 9130 c0 -5 5 -10 11 -10 5 0 7 5 4 10 -3 6 -8 10 -11 10 -2 0
-4 -4 -4 -10z"/>
<path d="M7455 9090 c-3 -5 -1 -10 4 -10 6 0 11 5 11 10 0 6 -2 10 -4 10 -3 0
-8 -4 -11 -10z"/>
<path d="M9500 9056 c0 -2 8 -10 18 -17 15 -13 16 -12 3 4 -13 16 -21 21 -21
13z"/>
<path d="M2556 9023 c-6 -14 -5 -15 5 -6 7 7 10 15 7 18 -3 3 -9 -2 -12 -12z"/>
<path d="M5113 9025 c0 -8 4 -12 9 -9 5 3 6 10 3 15 -9 13 -12 11 -12 -6z"/>
<path d="M7630 9011 c0 -6 4 -13 10 -16 6 -3 7 1 4 9 -7 18 -14 21 -14 7z"/>
<path d="M9955 9011 c-3 -5 -2 -12 3 -15 5 -3 9 1 9 9 0 17 -3 19 -12 6z"/>
<path d="M11293 8935 c0 -8 4 -12 9 -9 5 3 6 10 3 15 -9 13 -12 11 -12 -6z"/>
<path d="M5407 8929 c7 -7 15 -10 18 -7 3 3 -2 9 -12 12 -14 6 -15 5 -6 -5z"/>
<path d="M5580 8930 c-9 -6 -10 -10 -3 -10 6 0 15 5 18 10 8 12 4 12 -15 0z"/>
<path d="M3355 8919 c-4 -6 -5 -12 -2 -15 2 -3 7 2 10 11 7 17 1 20 -8 4z"/>
<path d="M9813 8915 c0 -8 4 -12 9 -9 5 3 6 10 3 15 -9 13 -12 11 -12 -6z"/>
<path d="M3515 8909 c-3 -4 2 -6 10 -5 21 3 28 13 10 13 -9 0 -18 -4 -20 -8z"/>
<path d="M3576 8912 c-3 -4 4 -9 15 -9 23 -2 25 3 4 10 -8 4 -16 3 -19 -1z"/>
<path d="M3636 8903 c-6 -14 -5 -15 5 -6 7 7 10 15 7 18 -3 3 -9 -2 -12 -12z"/>
<path d="M5316 8903 c-6 -14 -5 -15 5 -6 7 7 10 15 7 18 -3 3 -9 -2 -12 -12z"/>
<path d="M9670 8910 c0 -5 5 -10 11 -10 5 0 7 5 4 10 -3 6 -8 10 -11 10 -2 0
-4 -4 -4 -10z"/>
<path d="M9715 8910 c-3 -5 -1 -10 4 -10 6 0 11 5 11 10 0 6 -2 10 -4 10 -3 0
-8 -4 -11 -10z"/>
<path d="M9853 8888 c-10 -16 -184 -18 -195 -3 -5 6 -8 6 -8 -2 0 -9 -19 -11
-40 -3 -3 1 -9 1 -15 0 -5 -1 -165 -3 -355 -4 l-345 -1 -3 -44 c-4 -56 4 -61
110 -67 44 -2 85 -7 89 -10 5 -3 22 -7 37 -10 15 -3 34 -7 42 -11 8 -3 29 -7
45 -9 17 -3 32 -9 33 -14 2 -6 9 -10 16 -10 18 0 66 -24 66 -32 0 -5 6 -8 14
-8 8 0 17 -7 20 -16 3 -8 10 -12 16 -9 5 3 10 2 10 -3 0 -4 8 -17 18 -28 17
-19 35 -52 47 -89 3 -11 7 -21 7 -22 6 -16 13 -93 8 -93 -3 0 -4 -22 0 -49 4
-34 3 -48 -4 -44 -6 3 -6 0 1 -7 10 -11 9 -16 -5 -27 -9 -8 -12 -12 -6 -9 8 4
13 -9 16 -39 2 -25 -1 -47 -7 -49 -5 -3 -4 -5 4 -5 11 -1 10 -5 -5 -17 -10 -8
-14 -13 -7 -10 18 10 21 -56 3 -72 -8 -8 -9 -11 -2 -7 9 4 12 -7 13 -42 0 -26
1 -67 2 -90 1 -28 -3 -45 -12 -48 -10 -4 -11 -8 -1 -20 16 -19 20 -65 6 -65
-6 0 -4 -5 4 -10 11 -7 11 -10 2 -10 -9 0 -10 -5 -3 -17 7 -13 5 -23 -7 -37
-9 -11 -12 -16 -6 -13 7 4 14 -2 17 -13 3 -11 0 -20 -6 -20 -7 0 -5 -5 3 -10
11 -7 11 -10 2 -10 -10 0 -10 -5 -2 -20 8 -15 8 -20 -2 -20 -8 0 -9 -3 -3 -8
15 -10 12 -75 -3 -88 -11 -8 -11 -12 2 -23 15 -12 15 -15 -1 -28 -10 -8 -12
-12 -5 -8 9 4 12 -7 13 -42 0 -26 1 -69 2 -96 1 -26 -2 -47 -8 -47 -5 0 -3 -5
5 -10 8 -5 10 -10 4 -10 -7 0 -15 -7 -18 -16 -5 -13 -3 -14 6 -6 10 8 13 5 13
-14 0 -14 -6 -24 -15 -25 -10 0 -8 -3 5 -9 11 -5 14 -9 7 -9 -10 -1 -10 -6 -1
-22 9 -17 8 -20 -3 -14 -10 6 -10 5 -1 -5 10 -11 9 -16 -5 -27 -9 -8 -12 -12
-5 -8 19 9 22 -97 3 -113 -8 -8 -9 -11 -2 -7 9 4 12 -7 13 -42 0 -26 1 -65 2
-86 1 -20 -2 -39 -8 -41 -5 -3 -4 -5 4 -5 11 -1 10 -5 -5 -17 -10 -8 -14 -13
-7 -9 19 9 22 -97 3 -113 -8 -8 -9 -11 -2 -7 9 4 12 -7 13 -42 0 -26 2 -60 3
-75 1 -16 -3 -28 -9 -28 -5 0 -3 -5 5 -10 11 -7 11 -10 2 -10 -10 0 -10 -5 -2
-20 10 -18 7 -24 -12 -21 -4 0 0 -12 7 -26 11 -21 12 -29 2 -35 -9 -6 -8 -8 2
-8 11 0 10 -4 -5 -16 -10 -8 -14 -13 -7 -10 18 9 21 -37 3 -52 -8 -8 -10 -11
-4 -8 7 4 14 -6 16 -25 3 -19 1 -28 -7 -26 -6 3 -11 -5 -12 -17 0 -11 1 -15 4
-8 10 27 18 9 18 -40 0 -35 -5 -57 -15 -65 -8 -6 -12 -15 -7 -19 4 -4 7 -2 7
4 0 7 4 12 8 12 5 0 8 -10 6 -22 -1 -13 -3 -29 -3 -36 -1 -7 -5 -11 -11 -7 -5
3 -3 -7 5 -22 13 -25 13 -29 -3 -35 -16 -6 -16 -7 1 -7 17 -1 17 -2 3 -17 -19
-19 -21 -31 -3 -15 11 8 13 6 13 -12 -1 -12 -5 -25 -11 -29 -6 -5 -4 -8 4 -8
11 0 10 -4 -5 -16 -10 -8 -13 -13 -6 -9 8 4 12 -2 13 -17 0 -13 1 -50 2 -83 1
-43 -2 -64 -13 -73 -8 -8 -10 -11 -4 -8 8 4 13 -9 16 -39 2 -33 -1 -46 -12
-49 -10 -2 -9 -4 4 -5 20 -1 20 -1 0 -17 -10 -8 -14 -13 -8 -10 7 3 14 -3 17
-14 3 -11 0 -20 -6 -20 -8 0 -8 -3 1 -12 9 -9 7 -15 -6 -25 -9 -8 -12 -12 -6
-9 8 4 13 -9 16 -39 2 -26 -1 -45 -7 -45 -5 0 -3 -5 5 -10 8 -5 10 -10 4 -10
-7 0 -9 -15 -7 -40 2 -22 0 -40 -6 -40 -5 0 -8 -9 -6 -21 3 -16 0 -19 -13 -14
-13 5 -14 3 -6 -5 21 -21 -40 -111 -65 -95 -6 3 -9 0 -6 -7 4 -11 -53 -52 -74
-53 -3 -1 -16 -6 -29 -13 -12 -7 -28 -10 -34 -6 -7 5 -8 3 -3 -6 6 -10 4 -12
-8 -7 -10 3 -17 3 -17 -2 0 -11 -151 -54 -176 -50 -10 1 -44 -1 -74 -6 -30 -5
-57 -8 -60 -8 -3 1 -3 -19 -1 -43 3 -48 1 -47 84 -44 27 1 55 -4 64 -12 9 -7
14 -8 10 -2 -9 16 133 15 152 0 11 -8 13 -8 8 0 -11 20 95 14 111 -5 11 -15
12 -15 7 0 -5 13 2 16 39 16 31 0 43 -3 39 -11 -5 -8 -3 -8 8 0 8 6 37 12 64
12 28 0 56 -6 64 -12 11 -8 13 -8 7 2 -4 7 -1 12 8 12 9 0 16 -6 16 -12 0 -10
2 -10 8 -1 10 15 74 14 65 -1 -4 -6 1 -5 11 3 15 13 19 13 27 0 5 -8 9 -9 9
-3 0 6 11 12 25 12 14 0 25 -6 25 -12 0 -8 2 -8 8 0 8 13 71 13 91 0 9 -6 12
-5 8 1 -4 6 4 10 18 11 22 0 24 -3 13 -17 -8 -10 -4 -8 10 4 19 15 25 16 31 6
7 -11 10 -11 14 0 4 12 7 11 16 -1 6 -8 11 -10 11 -4 0 6 11 12 25 12 22 0 24
-3 13 -17 -9 -11 -5 -10 9 3 20 16 25 17 40 5 9 -8 14 -9 11 -4 -9 16 382 17
401 1 12 -8 13 -8 7 2 -10 16 35 16 53 0 11 -10 13 -10 7 0 -5 8 1 12 21 12
28 0 31 9 24 83 -1 4 -25 7 -53 8 -46 1 -129 10 -193 23 -11 2 -24 4 -28 5 -5
0 -6 5 -3 10 4 5 -3 7 -13 4 -22 -6 -64 14 -56 27 3 4 -5 6 -16 3 -15 -4 -27
0 -35 12 -8 11 -14 15 -14 10 0 -4 -18 10 -41 33 -22 23 -37 46 -34 52 4 6 1
9 -7 8 -7 -2 -13 4 -13 12 0 8 -7 20 -15 27 -8 7 -11 13 -6 13 5 0 4 6 -2 13
-6 6 -13 41 -17 77 -3 35 -8 67 -11 71 -2 4 2 10 8 12 10 4 10 7 0 15 -8 5
-14 13 -14 17 0 4 6 12 14 16 7 5 9 9 3 9 -11 0 -12 50 -1 68 4 7 3 12 -3 12
-7 0 -7 8 -1 25 7 17 6 25 -1 25 -8 0 -7 5 1 15 7 8 8 15 3 15 -5 0 -8 24 -8
53 1 31 5 52 12 52 6 0 15 4 20 8 4 5 3 8 -2 7 -6 -1 -15 -2 -20 -1 -12 1 -12
91 -1 109 4 7 3 12 -3 12 -7 0 -7 8 -1 25 7 17 6 25 -1 25 -8 0 -7 5 1 15 7 8
8 15 3 15 -5 0 -8 24 -8 53 1 31 5 52 12 52 6 0 15 4 20 8 4 5 4 8 -2 7 -27
-6 -30 4 -29 94 1 51 4 99 8 105 4 6 2 11 -4 11 -8 0 -7 6 1 21 6 12 7 24 2
28 -12 8 -10 124 2 133 6 5 5 8 -2 8 -9 0 -10 7 -3 25 6 17 6 25 -1 25 -6 0
-7 5 -4 11 4 6 13 8 19 6 7 -3 13 1 13 8 0 7 -7 10 -16 8 -13 -3 -16 5 -16 39
1 24 5 49 9 57 5 8 3 17 -5 22 -12 7 -11 9 1 9 13 0 13 1 0 10 -11 7 -11 10
-2 10 7 0 10 5 7 10 -3 6 6 15 20 20 31 12 38 12 32 3 -3 -5 23 -8 57 -9 34 0
73 -7 86 -15 14 -7 30 -14 35 -14 6 -1 9 -6 8 -13 -2 -6 3 -9 11 -6 7 3 20 -1
27 -8 8 -7 21 -14 29 -16 8 -2 17 -7 20 -11 3 -4 13 -11 24 -14 10 -4 16 -13
13 -20 -3 -7 5 -13 20 -14 14 0 40 -17 59 -37 19 -20 38 -36 44 -36 5 0 10 -5
10 -11 0 -5 -4 -8 -9 -4 -5 3 -12 1 -16 -4 -3 -6 3 -8 14 -6 11 2 32 -7 48
-21 15 -13 24 -24 18 -25 -5 0 0 -4 13 -9 22 -10 31 -30 11 -30 -5 0 -7 -5 -3
-11 4 -8 9 -7 15 2 6 10 15 5 38 -21 16 -19 39 -46 50 -59 11 -13 18 -28 14
-34 -3 -5 -1 -7 4 -4 13 8 36 -17 25 -28 -4 -5 -2 -5 4 -2 7 4 32 -20 60 -56
26 -34 53 -65 59 -69 5 -4 6 -8 1 -8 -5 0 3 -10 18 -21 16 -12 25 -27 22 -36
-3 -8 -2 -12 3 -9 9 6 61 -48 61 -63 0 -5 7 -12 16 -15 8 -3 12 -11 8 -17 -4
-7 -3 -9 3 -6 5 3 27 -14 49 -40 21 -25 56 -64 77 -87 20 -22 35 -46 33 -53
-3 -7 0 -15 6 -19 7 -4 8 -3 4 4 -10 17 3 15 20 -2 8 -8 14 -22 14 -31 0 -9 5
-13 10 -10 6 3 13 -2 17 -11 8 -21 30 -50 56 -73 9 -8 17 -19 17 -23 0 -7 28
-44 59 -75 12 -13 12 -16 0 -24 -11 -8 -10 -9 6 -7 14 2 20 -2 19 -14 -1 -10
4 -14 12 -11 14 5 20 -12 7 -20 -5 -2 -3 -2 4 -1 13 3 40 -33 93 -127 13 -24
23 -47 22 -51 -1 -5 3 -8 8 -8 6 0 10 -7 10 -16 0 -9 -5 -12 -12 -8 -7 4 -8 3
-4 -5 4 -6 11 -9 16 -6 12 8 18 -43 6 -56 -8 -9 -8 -10 1 -5 21 11 1 -38 -26
-64 -34 -33 -119 -73 -143 -67 -10 3 -16 1 -12 -4 3 -5 -5 -9 -18 -10 -13 0
-32 -2 -43 -5 -11 -2 -42 -7 -70 -10 -73 -9 -85 -18 -85 -64 l0 -40 43 -1 c23
-1 48 -1 55 0 8 1 21 -4 30 -11 9 -7 13 -8 9 -2 -9 16 135 15 145 0 6 -8 8 -8
8 1 0 15 70 15 70 0 0 -9 2 -9 8 -1 9 14 43 14 61 0 11 -8 13 -8 7 2 -9 16 6
16 23 0 8 -8 11 -8 8 -2 -4 7 3 12 18 12 14 0 23 -4 20 -8 -2 -3 2 -7 10 -7 8
0 12 3 10 7 -2 4 14 7 35 7 22 0 40 -5 40 -11 0 -8 3 -8 8 0 10 14 173 15 165
0 -4 -6 1 -5 10 3 14 11 20 11 34 0 9 -8 14 -9 10 -3 -4 7 2 12 17 12 19 -1
23 -5 21 -20 -2 -10 0 -16 6 -13 5 4 7 10 4 15 -3 5 0 12 6 16 6 3 15 0 20 -7
5 -8 9 -9 9 -3 0 6 11 12 25 12 14 0 25 -6 25 -12 0 -8 3 -8 8 0 10 14 143 15
135 0 -5 -8 -3 -8 8 0 16 13 128 13 148 0 9 -6 12 -5 8 1 -4 6 4 10 18 10 14
0 22 -4 18 -10 -4 -6 -1 -7 8 -1 20 13 90 14 82 1 -4 -6 -1 -7 8 -1 21 13 93
14 101 0 6 -8 8 -8 8 1 0 15 92 14 102 -2 5 -7 8 -7 8 1 0 16 80 17 80 1 0 -9
2 -9 8 0 4 7 33 11 73 11 78 -1 89 4 87 40 -2 39 -16 52 -57 52 -41 1 -274 48
-366 75 -33 9 -66 17 -72 18 -7 0 -13 4 -13 9 0 4 -9 8 -20 8 -11 0 -20 4 -20
10 0 5 -3 9 -7 8 -12 -4 -73 26 -73 35 0 5 -4 5 -10 2 -5 -3 -10 -2 -10 3 0 5
-9 12 -21 15 -13 4 -18 10 -13 18 5 8 3 10 -6 4 -8 -5 -21 3 -36 20 -13 16
-24 25 -24 20 0 -4 -7 -2 -15 5 -8 7 -12 16 -9 21 3 5 1 8 -5 7 -14 -4 -102
95 -96 109 2 7 -1 15 -7 19 -7 5 -8 2 -3 -6 5 -8 3 -11 -4 -9 -7 3 -20 17 -29
33 -9 16 -29 42 -44 58 -27 29 -33 42 -28 63 1 6 -2 7 -6 3 -8 -9 -55 42 -48
53 2 4 -3 9 -11 13 -8 3 -15 12 -15 21 0 8 -5 15 -11 15 -6 0 -9 9 -6 19 3 14
1 18 -9 14 -8 -3 -14 1 -14 10 0 8 -7 18 -16 21 -9 3 -14 12 -11 20 3 9 -3 16
-15 19 -14 4 -19 11 -14 22 3 9 2 14 -3 11 -13 -9 -34 21 -25 36 4 7 4 10 -1
6 -9 -9 -15 -3 -98 102 -38 47 -79 99 -92 115 -14 17 -25 36 -25 44 0 8 -3 12
-6 8 -11 -11 -33 17 -23 30 7 7 6 14 -2 19 -8 4 -9 3 -5 -4 4 -7 3 -12 -3 -12
-17 0 -24 22 -10 32 10 7 7 7 -8 3 -14 -4 -23 -2 -23 4 0 6 -16 27 -35 48 -19
20 -31 41 -28 46 3 6 2 7 -4 4 -11 -7 -70 61 -65 75 1 4 -2 7 -6 6 -12 -4 -72
68 -64 77 4 5 2 5 -4 2 -6 -4 -26 9 -43 29 -25 27 -30 38 -21 49 8 9 8 15 0
20 -6 4 -9 3 -8 -2 4 -11 -8 -14 -27 -7 -8 4 -15 12 -15 19 0 8 -9 17 -20 20
-11 3 -20 13 -20 21 0 8 -7 14 -16 14 -10 0 -14 5 -10 16 3 8 2 12 -4 9 -5 -3
-15 3 -22 15 -7 11 -19 20 -26 20 -8 0 -12 6 -8 15 3 8 2 14 -2 12 -14 -4 -84
61 -77 72 3 6 3 11 -2 10 -20 -3 -33 2 -33 14 0 8 -12 19 -26 25 -14 7 -22 17
-19 22 4 6 3 9 -2 8 -13 -4 -63 44 -56 55 3 6 1 7 -5 3 -12 -7 -132 106 -132
125 0 5 4 7 10 4 6 -3 7 1 4 9 -4 10 -1 16 7 16 7 0 10 3 6 6 -11 11 142 176
156 167 6 -3 7 -1 3 5 -4 6 18 35 49 66 30 31 55 58 55 61 0 11 54 60 63 57 5
-1 6 1 3 6 -6 10 30 63 63 91 11 10 21 23 21 30 0 6 4 11 9 11 5 0 12 11 15
24 3 14 15 28 26 31 11 4 18 10 15 15 -6 10 20 32 29 23 4 -4 4 0 1 8 -3 9 5
27 21 45 15 16 28 31 28 34 1 3 5 4 9 2 5 -1 6 2 3 7 -6 9 131 222 158 246 6
6 12 17 14 25 2 8 7 17 11 20 3 3 18 26 31 53 14 26 28 47 32 47 4 0 5 7 1 16
-4 10 1 17 16 21 11 3 18 10 15 15 -3 5 0 17 8 26 8 9 23 34 33 54 10 20 23
35 27 32 4 -3 8 4 8 15 0 12 5 20 12 19 7 -2 12 2 13 7 0 6 19 33 41 62 32 40
44 49 53 40 9 -9 11 -8 6 5 -4 10 0 24 9 33 9 9 16 13 16 9 0 -4 9 5 21 20 11
14 25 24 30 21 5 -4 9 1 9 9 0 9 7 16 15 16 8 0 15 4 15 9 0 5 10 13 22 17 12
3 30 15 41 25 11 10 23 16 27 14 5 -3 11 2 14 11 3 8 10 12 16 9 5 -3 10 0 10
7 0 9 3 9 10 -2 5 -8 10 -10 10 -4 0 9 29 27 52 33 4 1 26 8 48 16 35 13 117
30 190 41 14 2 75 6 135 10 61 3 114 10 120 15 13 12 16 81 5 94 -6 8 -94 11
-270 11 -167 -1 -260 3 -260 9 0 6 -3 6 -8 0 -9 -14 -65 -13 -74 0 -5 7 -8 7
-8 0 0 -6 -104 -10 -292 -10 -184 0 -296 4 -300 10 -5 7 -8 7 -8 0 0 -6 -74
-10 -205 -9 -112 0 -210 -3 -216 -7 -12 -7 -15 -76 -4 -88 4 -3 34 -6 68 -7
65 -1 151 -11 177 -21 8 -3 21 -7 29 -9 8 -1 17 -6 20 -11 3 -4 13 -9 21 -11
45 -10 111 -126 86 -153 -8 -9 -8 -10 2 -5 8 5 12 -1 12 -18 0 -13 -6 -27 -12
-29 -8 -3 -9 -6 -2 -6 14 -1 -5 -81 -19 -81 -4 0 -5 -4 -2 -10 3 -5 3 -16 -2
-22 -4 -7 -8 -15 -8 -18 -2 -18 -37 -70 -44 -65 -5 3 -7 -5 -3 -17 3 -14 1
-19 -6 -14 -8 5 -10 2 -6 -8 4 -10 1 -16 -7 -16 -7 0 -10 -3 -6 -6 3 -3 -3
-15 -14 -27 -10 -11 -19 -27 -19 -34 0 -7 -4 -13 -9 -13 -5 0 -11 -9 -14 -21
-3 -12 -10 -18 -16 -14 -6 3 -9 0 -6 -7 3 -8 -3 -23 -14 -35 -11 -11 -18 -23
-15 -25 2 -3 -7 -17 -20 -31 -14 -15 -22 -27 -18 -27 4 0 2 -4 -3 -8 -6 -4
-17 -20 -25 -35 -8 -16 -25 -40 -37 -53 -13 -14 -23 -27 -23 -29 0 -3 -20 -34
-45 -70 -24 -36 -42 -65 -40 -65 2 0 -7 -12 -20 -26 -14 -15 -22 -30 -20 -34
3 -4 -2 -10 -10 -14 -8 -3 -15 -10 -15 -16 0 -10 -8 -21 -37 -55 -7 -7 -13
-18 -13 -24 0 -6 -7 -11 -15 -11 -8 0 -14 -6 -12 -12 1 -7 -4 -12 -11 -10 -8
1 -11 -2 -7 -8 8 -13 -14 -42 -26 -34 -5 3 -6 -3 -2 -12 5 -13 3 -16 -10 -11
-9 3 -19 1 -23 -5 -4 -7 -3 -8 4 -4 21 13 13 -10 -11 -32 -13 -12 -27 -19 -32
-15 -4 5 -5 2 -1 -5 5 -8 -15 -36 -57 -77 -35 -36 -62 -65 -60 -65 3 0 -10
-12 -28 -27 -18 -16 -47 -43 -65 -61 -18 -19 -38 -31 -44 -27 -6 3 -9 1 -8 -7
2 -7 -3 -12 -10 -10 -6 1 -11 -1 -10 -5 5 -15 -35 -51 -50 -45 -9 3 -13 1 -9
-5 4 -6 0 -16 -8 -23 -8 -7 -15 -9 -15 -4 0 5 -7 -2 -16 -14 -8 -12 -21 -22
-28 -22 -8 0 -17 -7 -20 -16 -3 -8 -10 -13 -15 -10 -4 3 -16 -3 -26 -14 -10
-11 -26 -20 -35 -20 -9 0 -20 -4 -26 -10 -17 -17 -102 -29 -114 -15 -5 6 -7
15 -3 18 3 4 1 7 -5 7 -7 0 -12 5 -12 11 0 5 6 7 13 3 8 -6 8 -3 -1 9 -8 9
-16 46 -19 83 -4 56 -2 66 9 58 8 -5 5 -1 -5 9 -11 9 -14 17 -8 17 7 0 9 5 5
12 -4 7 -8 24 -8 38 0 14 4 31 8 38 4 7 3 12 -2 12 -6 0 -8 9 -5 20 3 11 10
17 17 14 6 -3 4 0 -4 8 -9 8 -15 30 -15 55 0 39 2 42 24 38 13 -2 20 -1 16 3
-3 4 -11 8 -16 8 -5 1 -12 2 -16 3 -10 1 -9 53 1 69 4 7 3 12 -3 12 -7 0 -7 8
-1 25 7 17 6 25 -1 25 -8 0 -7 5 1 15 7 8 8 15 3 15 -5 0 -9 9 -10 20 -1 12 3
18 9 14 7 -4 7 0 1 12 -13 26 -11 59 4 59 6 0 15 4 20 8 4 5 4 8 -2 7 -5 -1
-14 -2 -20 -1 -11 1 -12 171 -1 189 4 7 3 12 -1 12 -5 0 -8 24 -8 53 1 31 5
52 12 52 6 0 15 4 20 8 4 5 3 8 -2 7 -6 -1 -14 -2 -20 -1 -11 1 -12 171 -1
189 4 7 3 12 -2 12 -12 0 -11 34 2 43 8 5 8 9 1 15 -17 11 -12 47 5 44 13 -2
12 0 -1 10 -21 17 -24 29 -7 39 9 6 10 9 1 9 -9 0 -10 7 -3 25 6 17 6 25 -1
25 -6 0 -7 6 -2 13 4 6 6 21 4 31 -2 14 2 17 13 13 13 -5 14 -3 4 13 -10 15
-9 26 5 54 9 20 22 36 27 36 6 0 9 4 6 9 -9 14 62 77 123 109 88 46 179 70
286 73 35 1 69 5 75 9 15 10 16 70 1 80 -7 4 -43 6 -79 5 -39 -1 -70 3 -74 9
-5 7 -8 7 -8 1 0 -11 -50 -12 -67 -2 -6 4 -13 3 -17 0 -11 -11 -416 -9 -416 2
0 7 -3 7 -8 0 -12 -17 -35 -17 -29 0 8 18 1 20 -10 3z"/>
<path d="M797 8884 c-3 -5 -118 -9 -256 -8 l-251 0 0 -53 c0 -60 -2 -59 105
-67 33 -3 67 -6 75 -6 8 -1 43 -11 78 -23 42 -15 61 -26 57 -35 -3 -7 0 -10 6
-7 15 10 92 -72 85 -91 -3 -8 -2 -12 4 -9 6 3 10 -2 10 -12 0 -11 6 -25 13
-31 9 -10 12 -346 12 -1610 0 -935 -4 -1605 -9 -1617 -5 -11 -8 -26 -7 -34 1
-7 -2 -10 -8 -7 -5 4 -13 2 -16 -4 -4 -6 -3 -9 2 -8 4 2 9 0 11 -5 4 -13 -10
-57 -19 -57 -5 0 -9 -5 -9 -11 0 -14 -55 -69 -69 -69 -6 0 -11 -3 -11 -7 0
-16 -48 -31 -60 -19 -8 8 -9 6 -4 -8 6 -16 4 -18 -14 -14 -11 3 -23 1 -25 -5
-1 -5 -37 -11 -80 -13 -42 -1 -91 -7 -109 -13 -32 -10 -33 -13 -30 -51 3 -25
10 -43 21 -48 9 -4 105 -7 213 -7 137 1 195 -2 191 -9 -5 -7 -2 -7 8 0 8 6 23
11 34 11 11 0 26 -5 34 -11 11 -8 13 -8 8 0 -4 7 2 12 18 12 14 0 25 -4 25 -9
0 -5 5 -9 11 -9 5 0 8 4 4 9 -8 13 38 10 47 -4 5 -6 8 -6 8 3 0 6 5 12 11 12
5 0 7 -6 3 -12 -5 -9 -2 -8 9 1 15 12 20 12 32 -5 11 -14 14 -15 9 -3 -4 12 1
16 20 17 16 0 23 -5 19 -12 -4 -6 1 -5 10 3 14 11 20 11 34 0 9 -8 14 -9 10
-3 -8 13 181 13 202 0 10 -6 12 -6 7 2 -10 16 16 15 33 -1 9 -7 11 -8 7 0 -8
15 114 15 133 -1 11 -8 13 -8 8 0 -9 15 173 15 192 0 11 -8 13 -8 8 1 -5 8 5
13 35 15 l43 3 3 47 c3 45 2 46 -29 53 -18 4 -56 9 -85 10 -61 3 -154 25 -154
37 0 4 -3 7 -7 6 -9 -2 -59 24 -88 47 -17 14 -18 17 -5 26 13 9 12 10 -2 5
-20 -6 -43 27 -32 46 4 6 3 8 -4 4 -9 -6 -17 8 -30 54 -2 8 -5 131 -7 272 -2
179 0 256 8 251 6 -4 7 -1 1 8 -14 21 -14 1140 0 1158 7 10 7 13 0 9 -6 -5
-11 11 -11 43 -1 27 2 47 7 44 5 -3 12 -1 15 5 4 6 1 9 -7 8 -10 -2 -13 38
-14 204 -1 135 3 205 9 201 6 -4 7 -1 1 8 -13 21 -15 241 -1 232 6 -4 7 -1 1
8 -11 17 -14 100 -3 93 4 -2 11 0 14 6 4 6 1 9 -7 8 -8 -2 -14 8 -16 26 -3 21
0 26 10 20 10 -6 10 -4 -1 9 -11 14 -11 20 0 34 8 9 9 14 3 11 -6 -5 -11 11
-11 43 -1 27 2 47 7 44 5 -3 12 -1 15 5 4 6 1 9 -7 8 -9 -2 -13 15 -14 65 0
42 3 67 10 67 7 0 7 3 0 8 -14 8 -14 150 0 171 6 9 5 12 -1 8 -6 -4 -9 40 -9
121 l1 127 30 1 c17 0 38 -4 49 -9 12 -6 16 -6 12 1 -7 12 33 10 53 -3 9 -5
12 -4 7 3 -4 8 5 10 29 8 20 -1 35 2 35 8 0 6 4 4 9 -4 6 -8 7 -18 4 -24 -3
-5 -1 -6 6 -2 6 4 9 11 6 16 -3 5 12 7 32 6 21 -2 44 2 52 8 12 9 13 7 8 -8
-6 -14 -4 -16 5 -9 7 6 70 9 143 9 80 -1 133 2 137 9 5 7 8 7 8 0 0 -7 27 -10
73 -8 76 3 82 3 122 3 35 0 52 0 110 -3 28 -1 53 3 57 8 5 7 8 7 8 0 0 -12
240 -13 258 -1 7 4 12 3 12 -3 0 -5 12 -8 26 -5 19 3 24 1 18 -8 -6 -10 -4
-10 7 -2 8 6 32 10 54 10 22 -1 43 4 47 9 5 6 8 6 8 -1 0 -11 40 -11 59 0 5 4
12 2 16 -3 3 -6 13 -7 21 -4 9 3 20 0 25 -8 6 -10 9 -10 9 -2 0 8 11 11 30 9
17 -2 32 0 35 4 2 4 16 5 30 3 14 -3 22 -10 18 -16 -4 -6 -1 -7 8 -1 24 15 42
13 56 -4 11 -14 12 -14 8 -1 -5 12 2 15 34 14 22 -1 48 -8 58 -16 17 -13 17
-13 4 4 -13 16 -12 18 12 13 15 -2 32 -8 38 -12 8 -4 9 -3 5 4 -4 7 -1 12 9
12 10 0 13 -5 9 -12 -6 -10 -4 -10 7 -2 12 9 51 11 97 5 6 0 12 -6 12 -12 0
-5 -4 -7 -10 -4 -7 4 -7 -2 0 -19 6 -17 6 -27 -1 -32 -8 -4 -7 -9 2 -14 10 -7
10 -11 0 -24 -11 -13 -11 -16 0 -16 11 0 11 -2 -1 -10 -10 -6 -11 -10 -2 -10
6 0 12 -5 12 -11 0 -5 -5 -7 -11 -3 -7 4 -7 -1 1 -16 7 -13 8 -20 2 -16 -6 3
-14 2 -17 -4 -4 -6 -1 -9 6 -8 15 3 20 -86 7 -114 -5 -11 -5 -18 1 -18 7 0 7
-9 1 -25 -5 -14 -6 -25 -2 -25 10 0 8 -213 -2 -228 -4 -7 -4 -12 1 -12 4 0 8
-29 8 -64 0 -40 -4 -62 -10 -58 -5 3 -5 -1 1 -9 10 -12 12 -53 4 -84 -1 -5 -1
-13 0 -17 6 -20 5 -34 -5 -40 -6 -5 -6 -8 0 -8 11 0 13 -165 2 -176 -4 -4 -2
-13 4 -21 9 -10 8 -13 -2 -13 -9 0 -10 -3 -4 -8 13 -9 14 -73 1 -65 -5 4 -6 1
0 -8 5 -8 9 -33 9 -56 1 -35 -2 -41 -18 -37 -11 2 -16 0 -13 -4 4 -4 13 -7 19
-7 13 0 17 -124 4 -132 -4 -2 -4 -10 0 -16 4 -7 8 -46 8 -88 1 -71 -1 -77 -19
-73 -10 2 -15 0 -12 -4 4 -4 13 -7 19 -7 11 0 19 -190 8 -210 -8 -15 -8 -45 0
-40 9 6 4 -89 -6 -104 -3 -6 -3 -11 2 -11 4 0 8 -13 8 -30 1 -16 -3 -30 -8
-30 -4 0 -5 -5 -2 -11 10 -16 13 -126 4 -141 -4 -7 -3 -18 2 -24 7 -8 6 -14
-1 -19 -5 -3 -10 -12 -10 -18 0 -8 3 -7 9 2 6 9 8 5 7 -15 -1 -16 -5 -35 -10
-43 -6 -9 -5 -12 0 -8 5 3 10 -3 10 -13 0 -10 -5 -16 -10 -13 -5 4 -6 1 0 -8
13 -20 12 -159 -1 -151 -5 3 -5 -1 1 -9 10 -12 12 -53 4 -84 -1 -5 -1 -12 0
-15 6 -15 5 -208 -2 -227 -4 -13 -4 -23 0 -23 10 0 9 -51 -2 -68 -4 -7 -2 -12
5 -12 10 0 10 -3 2 -11 -8 -8 -8 -20 -2 -36 6 -16 5 -31 -1 -44 -7 -13 -7 -19
-1 -19 7 0 7 -9 1 -25 -5 -14 -6 -25 -1 -25 4 0 8 -6 8 -14 0 -9 -9 -13 -24
-11 -13 1 -26 -1 -28 -5 -2 -4 8 -7 23 -6 25 1 27 -2 27 -39 1 -51 -3 -59 -23
-43 -10 7 -7 1 6 -14 15 -16 20 -28 13 -33 -6 -3 -11 -20 -11 -37 0 -18 -7
-36 -17 -44 -10 -8 -13 -14 -6 -14 18 0 -5 -60 -24 -60 -8 0 -12 -4 -8 -9 3
-5 -2 -16 -11 -25 -20 -21 -97 -66 -121 -71 -10 -2 -31 -8 -48 -13 -16 -5 -60
-8 -97 -8 -38 1 -68 -2 -68 -6 0 -5 -7 -8 -15 -8 -8 0 -19 -9 -25 -20 -6 -11
-7 -20 -2 -20 5 0 8 -14 6 -30 -4 -33 -9 -31 98 -32 37 -1 55 -4 51 -11 -4 -6
-1 -7 8 -1 19 12 400 14 393 2 -3 -5 3 -4 14 3 17 11 24 10 38 -2 10 -8 15 -9
11 -3 -5 8 10 12 48 12 38 0 53 -4 48 -12 -5 -8 -3 -8 8 0 18 14 82 16 73 3
-3 -6 4 -5 15 3 18 11 23 11 31 -2 5 -8 10 -10 10 -4 0 15 100 15 119 0 11 -8
13 -8 7 2 -9 16 52 14 73 -2 11 -8 13 -8 8 0 -8 14 80 14 102 0 9 -6 12 -5 8
1 -4 6 37 10 119 9 69 -1 133 2 143 6 14 5 18 17 18 47 0 22 -5 45 -11 51 -7
5 -43 11 -82 14 -87 6 -174 25 -174 37 0 6 -4 8 -8 5 -9 -5 -82 40 -94 58 -4
5 -4 15 -1 21 4 5 3 7 -2 3 -4 -4 -14 0 -21 10 -17 22 -18 45 -1 36 7 -4 9 -3
4 2 -5 5 -14 9 -20 9 -12 0 -29 54 -22 73 2 6 0 12 -6 12 -6 0 -9 10 -7 23 2
12 8 22 15 22 6 0 15 3 19 7 3 4 -3 6 -15 3 -19 -3 -21 0 -21 46 0 38 3 48 13
43 9 -6 9 -5 0 7 -16 20 -16 1558 0 1578 9 12 9 13 0 7 -10 -6 -13 30 -12 164
0 129 3 169 12 164 9 -5 8 -3 0 7 -17 17 -17 121 0 138 9 11 9 13 0 7 -18 -10
-18 214 -1 233 10 11 10 12 1 7 -10 -5 -13 58 -13 284 0 230 3 290 13 284 9
-6 9 -4 -1 8 -14 18 -14 121 0 112 5 -3 6 7 2 22 -5 18 -3 25 4 20 6 -3 14 -1
18 5 4 7 3 9 -4 5 -19 -11 -21 8 -5 44 9 19 17 41 19 49 1 7 8 19 15 25 9 8
10 8 4 -3 -5 -9 -4 -12 3 -7 6 4 9 13 5 21 -6 18 8 19 27 3 12 -11 12 -10 3 2
-8 10 -9 21 -3 30 6 8 10 11 10 7 0 -4 9 1 21 11 30 29 141 62 208 62 32 0 71
5 88 10 27 10 29 15 28 51 -1 24 -7 44 -16 49 -8 4 -218 7 -466 6 -249 0 -453
3 -453 7 0 5 -5 5 -11 1 -19 -11 -539 -10 -539 1 0 7 -3 7 -8 0 -4 -6 -90 -10
-222 -10 -132 0 -218 4 -222 10 -5 7 -8 7 -8 0 0 -6 -38 -10 -95 -10 -52 0
-95 3 -95 7 0 4 -7 5 -15 2 -26 -11 -135 -9 -135 1 0 7 -3 7 -8 0 -8 -12 -322
-14 -322 -2 0 5 -5 5 -11 2 -16 -11 -69 -12 -69 -2 0 4 -5 5 -12 1 -18 -11
-338 -11 -338 1 0 6 -4 4 -9 -3 -4 -8 -12 -14 -16 -14 -4 0 -12 6 -16 14 -5 7
-9 9 -9 3 0 -5 -20 -10 -45 -10 -25 0 -45 5 -45 10 0 7 -3 7 -8 0 -9 -12 -294
-14 -303 -1 -4 4 -9 4 -12 0z"/>
<path d="M5473 8882 c-6 -4 -196 -7 -422 -7 -277 1 -411 -3 -412 -10 -1 -5 -2
-19 -3 -30 0 -11 -5 -26 -10 -34 -6 -9 -5 -12 2 -7 5 3 12 2 14 -4 3 -11 37
-18 121 -26 40 -4 71 -10 182 -37 36 -9 105 -41 105 -49 0 -5 -5 -6 -12 -2 -7
5 -8 3 -3 -5 5 -9 11 -9 17 -3 7 7 18 6 34 -5 24 -15 35 -41 12 -27 -7 4 -8 3
-4 -5 6 -9 11 -9 22 0 14 11 19 2 15 -24 -1 -5 3 -6 7 -3 12 7 44 -28 35 -37
-3 -4 -2 -7 4 -7 15 0 36 -74 31 -108 -2 -17 -1 -29 4 -26 13 8 9 -21 -4 -35
-10 -11 -10 -13 0 -7 6 4 12 2 12 -3 0 -6 -6 -11 -12 -11 -9 0 -9 -3 -3 -8 17
-12 13 -161 -5 -173 -13 -9 -12 -10 3 -5 21 7 23 -17 2 -34 -8 -7 -15 -17 -15
-23 0 -6 7 -2 15 9 10 13 14 15 15 5 0 -8 -8 -24 -17 -35 -17 -20 -17 -20 1
-6 17 13 18 13 14 -5 -2 -11 -10 -19 -17 -17 -7 1 -10 -2 -6 -8 3 -6 11 -8 16
-5 5 4 9 1 9 -4 0 -6 -6 -11 -12 -11 -9 0 -9 -3 -3 -8 6 -4 11 -56 11 -127 0
-97 -3 -122 -15 -133 -14 -10 -14 -11 -1 -7 13 5 15 -10 15 -97 0 -57 -4 -109
-9 -117 -6 -9 -5 -12 1 -8 6 4 9 -38 9 -116 -1 -96 -4 -125 -16 -135 -13 -10
-13 -11 0 -7 13 4 15 -9 15 -85 0 -69 -4 -93 -15 -101 -13 -9 -13 -10 2 -6 14
5 16 -1 14 -31 -1 -21 -6 -44 -11 -51 -5 -9 -4 -12 2 -8 11 7 12 -252 0 -270
-4 -6 -4 -14 1 -17 14 -8 9 -283 -6 -298 -6 -6 -12 -16 -12 -22 0 -5 7 -1 15
10 11 15 14 16 15 3 0 -8 -6 -21 -12 -28 -11 -11 -10 -12 0 -6 19 10 12 -26
-8 -43 -13 -11 -13 -11 0 -7 13 5 15 -10 15 -97 0 -57 -4 -109 -9 -117 -6 -9
-5 -12 1 -8 6 4 9 -38 9 -116 0 -97 -3 -125 -16 -135 -13 -10 -13 -11 0 -7 12
4 15 -5 17 -40 1 -41 -1 -45 -15 -33 -16 12 -16 11 -1 -7 19 -24 19 -61 1 -57
-8 1 -11 -2 -7 -8 3 -6 11 -8 16 -5 14 9 11 -19 -3 -34 -7 -8 -8 -11 -2 -8 7
4 11 -11 11 -43 0 -30 -4 -47 -10 -43 -6 4 -7 1 -1 -8 13 -20 13 -82 0 -98 -8
-11 -8 -13 2 -7 7 4 12 2 12 -6 0 -8 -6 -20 -12 -27 -11 -11 -10 -13 0 -7 14
8 12 -19 -2 -43 -6 -10 -5 -12 2 -7 7 4 12 3 12 -3 0 -5 -4 -12 -9 -15 -4 -3
-6 -18 -3 -32 4 -20 2 -25 -8 -19 -9 5 -11 4 -6 -3 9 -15 -32 -94 -45 -87 -5
4 -8 2 -7 -3 4 -14 -51 -61 -92 -79 -19 -8 -37 -18 -40 -22 -10 -13 -170 -63
-185 -57 -8 3 -15 1 -15 -5 0 -6 -21 -9 -47 -8 -27 1 -66 -3 -89 -10 -38 -10
-40 -13 -39 -45 0 -19 3 -38 7 -41 4 -4 50 -7 102 -7 63 -1 96 -5 96 -12 0 -6
4 -5 9 3 8 13 12 13 27 0 10 -8 15 -9 11 -3 -4 7 2 12 18 12 14 0 25 -6 25
-12 0 -7 3 -8 8 0 10 14 84 15 75 0 -5 -8 -3 -8 8 0 18 14 101 15 92 1 -4 -6
-1 -7 8 -1 21 14 150 14 142 0 -3 -6 0 -5 8 2 7 6 17 12 22 12 4 0 5 -6 1 -12
-6 -10 -4 -10 7 -2 20 15 61 16 52 1 -4 -7 1 -6 11 2 15 13 19 13 27 0 5 -8 9
-9 9 -3 0 14 252 14 262 0 6 -8 8 -8 8 0 0 7 28 11 75 11 46 0 72 -4 68 -10
-4 -6 -1 -7 8 -1 21 13 72 13 88 0 11 -8 13 -8 8 0 -9 15 65 14 75 0 5 -8 8
-7 8 0 0 6 11 12 25 12 14 0 25 -6 25 -12 0 -6 5 -4 10 4 9 13 11 13 20 0 5
-8 10 -10 10 -3 0 7 28 11 88 11 141 0 158 1 143 11 -8 5 -9 11 -3 15 6 3 7
18 3 34 -7 25 -12 27 -62 30 -30 1 -61 5 -69 8 -8 3 -33 7 -55 8 -112 6 -302
104 -287 149 1 5 -2 6 -7 2 -6 -3 -15 5 -22 17 -7 13 -16 26 -21 29 -5 3 -10
24 -11 47 -1 22 -6 40 -11 39 -16 -3 -13 44 3 54 14 9 14 10 -1 5 -12 -3 -18
0 -18 10 0 8 4 13 8 10 4 -2 8 4 8 14 0 10 -4 16 -8 14 -4 -3 -8 4 -8 16 0 13
4 19 12 14 8 -5 8 -3 2 7 -11 17 -14 160 -3 153 4 -2 11 0 14 6 4 6 1 9 -7 8
-10 -2 -13 26 -13 132 0 107 3 134 13 132 8 -1 11 2 7 8 -3 6 -11 8 -16 4 -5
-3 -8 8 -7 26 2 22 6 29 18 25 13 -4 13 -4 -1 7 -11 9 -15 31 -15 75 0 34 3
60 7 57 4 -2 11 0 14 6 4 6 1 9 -7 8 -9 -2 -13 9 -15 34 0 21 3 36 7 33 5 -3
12 -1 15 5 4 6 1 9 -5 8 -17 -4 -22 33 -7 51 7 8 7 12 2 9 -7 -4 -11 40 -12
133 -1 102 2 137 11 132 6 -4 6 0 -2 9 -13 16 -13 211 1 224 3 3 25 6 49 6 24
-1 55 -1 71 -1 15 -1 27 -5 27 -11 0 -5 6 -7 14 -4 7 3 31 -4 52 -15 21 -12
42 -21 47 -21 5 0 15 -6 22 -12 34 -31 43 -36 49 -31 3 4 6 -1 6 -11 0 -9 4
-15 8 -12 11 7 94 -49 85 -57 -3 -4 -1 -7 6 -7 7 0 26 -13 41 -30 15 -16 31
-30 35 -30 15 0 75 -72 69 -82 -5 -7 -2 -8 5 -4 14 9 42 -24 34 -38 -4 -5 -1
-6 4 -3 6 4 16 0 23 -8 7 -8 9 -15 5 -15 -4 0 4 -9 19 -21 25 -20 37 -47 14
-33 -7 4 -8 3 -4 -5 4 -6 11 -9 16 -6 12 7 42 -24 34 -36 -3 -5 -2 -8 3 -7 7
3 53 -37 53 -46 0 -2 18 -23 39 -47 22 -23 38 -47 35 -51 -3 -5 -2 -7 3 -6 4
2 10 -1 12 -7 3 -5 20 -25 39 -42 19 -18 31 -33 27 -33 -4 0 7 -13 25 -30 18
-16 30 -30 26 -30 -3 0 7 -13 22 -29 73 -77 97 -106 94 -113 -1 -4 4 -8 12 -8
7 0 21 -15 30 -32 8 -18 16 -29 16 -23 0 5 8 -2 17 -15 10 -14 17 -28 15 -33
-1 -4 1 -6 5 -6 22 4 25 -3 7 -16 -19 -14 -19 -14 2 -9 15 4 26 -3 45 -30 13
-20 27 -36 32 -36 4 0 7 -7 7 -16 0 -9 -5 -12 -12 -8 -7 4 -8 3 -4 -4 4 -6 12
-9 19 -6 15 5 50 -49 39 -61 -4 -5 -2 -5 4 -2 15 9 38 -19 28 -34 -4 -7 -3 -9
3 -6 12 8 36 -17 26 -26 -3 -4 -1 -7 5 -7 11 0 60 -67 87 -121 14 -27 13 -34
-8 -30 -5 1 -6 -3 -2 -8 3 -6 12 -8 19 -5 20 8 38 -71 24 -102 -6 -13 -15 -21
-19 -18 -5 3 -6 -2 -3 -10 4 -10 -5 -20 -25 -31 -17 -8 -31 -21 -31 -27 0 -6
-3 -8 -6 -5 -4 3 -15 2 -26 -4 -19 -10 -49 -18 -93 -24 -11 -2 -22 -4 -25 -6
-3 -1 -18 -3 -35 -4 -16 -1 -37 -5 -45 -8 -8 -3 -32 -8 -52 -12 -29 -4 -39
-12 -44 -30 -10 -41 -1 -60 31 -63 17 -2 36 -9 44 -15 10 -8 13 -9 8 -1 -9 15
46 15 55 0 6 -8 8 -7 8 2 0 6 5 12 11 12 5 0 7 -5 3 -12 -5 -8 -3 -8 7 -2 20
13 83 13 91 0 6 -8 8 -8 8 0 0 6 11 12 25 12 16 0 22 -5 18 -12 -4 -7 -2 -7 8
1 18 14 58 14 78 -1 10 -8 13 -8 8 0 -4 7 30 10 109 10 74 0 114 -3 114 -10 0
-6 4 -5 9 3 8 13 12 13 27 0 10 -8 15 -9 11 -3 -4 7 2 12 18 12 14 0 25 -6 25
-12 0 -7 3 -7 8 -1 4 6 24 11 45 12 30 2 37 -1 33 -12 -3 -8 0 -17 6 -21 6 -4
8 -3 5 2 -3 6 -2 16 3 24 7 12 11 12 26 -1 11 -9 15 -9 10 -1 -4 6 -3 12 1 12
5 0 15 -6 22 -12 8 -8 11 -8 8 -2 -4 7 3 12 18 12 14 0 22 -4 19 -9 -3 -5 -1
-9 5 -9 5 0 11 6 14 13 3 9 8 8 22 -3 10 -8 16 -10 12 -4 -8 13 151 14 172 0
9 -6 12 -5 8 1 -4 6 4 11 18 11 16 0 22 -5 18 -12 -5 -8 -3 -8 8 0 18 14 52
14 61 0 6 -8 8 -8 8 0 0 13 119 13 139 0 9 -6 12 -5 8 1 -4 6 26 9 78 9 57 0
82 -3 78 -10 -5 -7 -2 -7 8 0 8 7 62 12 134 12 66 0 129 1 141 1 17 1 20 8 21
41 1 46 2 45 -112 55 -38 4 -76 12 -84 18 -8 7 -15 10 -15 8 -2 -9 -108 12
-120 25 -11 11 -15 11 -19 1 -3 -9 -7 -9 -18 -1 -12 10 -52 20 -96 26 -7 1
-13 4 -13 8 0 4 -6 7 -12 8 -37 3 -54 8 -60 17 -4 6 -13 10 -20 10 -7 1 -12 7
-10 14 1 7 -2 10 -7 7 -13 -8 -62 15 -55 25 3 5 -2 6 -10 3 -9 -3 -16 -1 -16
5 0 6 -4 11 -10 11 -19 0 -48 33 -43 49 4 14 3 14 -6 1 -8 -12 -17 -9 -51 25
-22 21 -40 46 -40 55 0 12 -2 12 -9 2 -6 -11 -10 -10 -16 5 -5 10 -7 22 -6 26
1 5 -3 6 -8 3 -11 -7 -63 59 -53 69 4 3 2 5 -3 3 -6 -2 -12 2 -14 7 -3 6 -12
17 -21 25 -13 12 -13 13 0 5 8 -5 0 6 -17 24 -18 18 -33 39 -33 45 0 6 -9 18
-20 26 -22 16 -28 46 -7 34 7 -4 9 -3 4 2 -5 5 -12 9 -16 9 -16 0 -43 36 -37
50 3 8 0 12 -7 10 -7 -3 -32 24 -57 60 -25 36 -58 79 -73 95 -15 17 -25 36
-21 42 4 6 3 8 -3 5 -11 -7 -63 53 -63 73 0 6 -4 8 -10 5 -6 -3 -10 4 -10 16
0 12 -3 19 -7 16 -3 -4 -12 1 -19 11 -17 22 -18 35 -1 26 7 -4 9 -3 4 2 -5 5
-12 9 -17 9 -13 0 -50 47 -44 56 3 5 0 9 -6 9 -21 0 -94 92 -83 104 4 4 1 5
-7 2 -16 -5 -63 47 -63 69 0 7 -6 11 -14 8 -7 -3 -13 0 -13 6 0 6 -13 23 -30
37 -16 15 -27 31 -24 35 3 5 0 9 -5 9 -6 0 -11 7 -11 17 0 9 -3 14 -6 10 -4
-3 -21 10 -38 30 -17 20 -45 51 -63 69 -17 17 -29 35 -26 38 4 3 1 6 -5 6 -15
0 -82 65 -82 80 0 7 -3 11 -6 7 -9 -9 -219 205 -216 220 2 7 -2 13 -8 13 -6 0
-8 -4 -5 -10 3 -5 2 -10 -4 -10 -17 0 -23 20 -11 35 8 9 8 15 0 20 -6 4 -9 1
-8 -6 2 -6 -3 -14 -9 -16 -7 -3 -13 2 -13 11 0 9 -5 15 -12 14 -6 -2 -16 6
-22 17 -7 11 -18 21 -26 23 -18 4 -31 23 -24 34 3 5 0 7 -8 6 -7 -2 -12 2 -11
9 2 8 -4 10 -15 6 -15 -6 -15 -5 -3 10 12 15 12 17 -3 11 -22 -9 -20 12 4 36
11 11 20 25 20 31 0 6 7 8 16 5 9 -3 12 -2 9 5 -4 6 0 18 9 27 9 9 27 28 39
42 12 14 25 27 30 28 4 1 7 5 6 8 -2 15 26 22 41 11 13 -10 13 -10 3 4 -10 13
-7 21 20 51 59 65 112 126 114 133 1 3 8 12 15 19 7 7 26 30 42 50 15 20 33
33 39 29 6 -3 7 -1 3 5 -6 10 6 30 44 71 8 9 28 36 44 59 16 23 32 39 37 36 5
-3 6 1 3 9 -3 8 2 20 10 27 9 7 13 16 10 21 -5 8 10 13 29 10 5 -1 6 3 2 9 -7
11 25 70 38 70 4 0 5 5 2 10 -3 6 -2 10 4 10 5 0 13 9 16 20 3 11 12 26 18 33
17 18 57 75 57 81 0 11 52 81 60 81 5 0 12 4 17 9 5 5 3 6 -4 2 -20 -11 -15
12 6 33 10 10 22 28 26 40 3 12 11 21 17 21 6 0 9 3 6 6 -3 3 10 31 29 62 19
31 44 72 55 90 11 17 24 32 29 32 5 0 9 6 9 13 0 16 124 150 169 182 19 13 39
22 44 18 6 -3 7 -1 3 6 -4 6 0 14 11 18 10 4 33 17 52 30 18 12 37 20 42 17 5
-3 9 0 9 6 0 7 7 10 15 6 8 -3 14 -1 12 5 -3 16 130 58 238 76 17 3 32 7 34 9
2 2 11 -2 19 -9 13 -9 14 -9 8 1 -4 7 -2 12 6 12 75 1 226 14 239 21 20 10 26
94 7 101 -7 3 -298 4 -645 4 -348 -1 -633 3 -633 7 0 5 -5 5 -11 1 -18 -11
-99 -10 -99 1 0 7 -3 7 -8 0 -4 -6 -55 -10 -125 -9 -69 0 -121 -4 -124 -9 -11
-19 -11 -77 1 -85 6 -4 36 -8 66 -9 48 -1 85 -5 167 -18 32 -5 93 -36 93 -47
0 -5 4 -7 8 -4 12 7 46 -40 60 -83 10 -27 10 -36 0 -43 -10 -6 -10 -8 0 -8 16
0 16 -62 0 -78 -9 -9 -9 -12 0 -12 6 0 9 -7 6 -15 -4 -8 -11 -12 -17 -8 -6 3
-7 1 -3 -5 7 -12 -15 -92 -26 -92 -5 0 -8 -9 -8 -20 0 -11 -7 -23 -15 -26 -8
-4 -13 -10 -10 -14 3 -5 1 -11 -5 -15 -6 -4 -8 -11 -5 -16 4 -5 2 -9 -4 -9 -5
0 -13 -9 -16 -20 -4 -12 -16 -30 -28 -42 -12 -11 -16 -18 -9 -14 13 8 -76
-126 -132 -199 -17 -21 -31 -44 -31 -50 -1 -5 -6 -9 -13 -8 -7 2 -11 0 -11 -5
4 -23 -3 -34 -17 -28 -14 5 -15 4 -5 -8 9 -10 9 -16 1 -21 -6 -4 -25 -31 -42
-61 -21 -39 -35 -53 -46 -49 -12 4 -13 3 -2 -10 8 -10 9 -15 1 -15 -6 0 -11
-4 -11 -10 0 -17 -119 -180 -132 -180 -4 0 -8 -7 -8 -15 0 -8 -3 -15 -7 -15
-5 0 -21 -18 -38 -40 -17 -24 -35 -38 -43 -35 -7 2 -10 0 -7 -5 8 -13 -37 -72
-51 -66 -8 3 -10 -3 -6 -16 3 -13 1 -19 -5 -15 -6 4 -14 0 -17 -9 -3 -8 -11
-12 -17 -8 -8 4 -9 3 -5 -5 4 -6 0 -14 -8 -17 -9 -3 -14 -10 -11 -14 7 -11
-24 -22 -37 -13 -7 4 -8 1 -3 -7 9 -14 -73 -93 -91 -86 -6 3 -11 -3 -10 -12 1
-10 -6 -16 -16 -16 -10 1 -16 -2 -13 -6 3 -4 -12 -21 -32 -36 -20 -16 -43 -37
-52 -46 -8 -10 -21 -18 -28 -18 -7 0 -13 -4 -13 -10 0 -5 -7 -10 -15 -10 -8 0
-15 -5 -15 -11 0 -6 -9 -9 -20 -6 -11 3 -18 0 -17 -7 1 -6 -4 -10 -10 -8 -7 1
-13 -3 -13 -10 0 -6 -3 -8 -7 -5 -3 4 -11 3 -17 -2 -6 -5 -22 -11 -36 -13 -14
-1 -28 -7 -32 -13 -5 -6 -8 -4 -8 5 0 13 -1 13 -10 0 -7 -11 -10 -11 -10 -2 0
7 -4 11 -9 7 -9 -5 -34 53 -30 71 1 5 0 11 -1 14 -1 3 -3 19 -5 37 -1 22 2 30
9 26 8 -5 8 -3 1 8 -14 19 -13 54 2 54 6 0 15 3 19 7 3 4 -3 6 -15 3 -25 -5
-26 3 -4 35 14 21 15 23 1 12 -14 -11 -16 -8 -15 27 1 23 5 37 10 34 6 -4 7
-1 1 8 -13 20 -13 239 0 231 7 -4 7 -1 0 9 -16 21 -13 155 4 151 8 -1 11 2 7
8 -3 6 -10 8 -14 6 -4 -3 -7 35 -7 83 0 75 3 88 16 83 11 -3 10 -1 -3 9 -18
15 -20 71 -3 98 6 9 5 12 -1 8 -6 -4 -10 19 -10 62 1 58 3 68 16 64 14 -4 14
-4 1 6 -12 8 -15 36 -16 133 -1 80 3 126 10 130 8 6 8 8 -1 8 -16 0 -10 140 7
150 6 4 12 11 13 16 1 5 6 8 11 6 5 -2 4 3 -2 11 -9 10 -3 23 26 58 21 26 43
44 51 41 8 -3 11 0 7 6 -4 6 9 16 29 23 19 7 35 17 35 21 0 4 8 8 18 8 10 0
23 5 30 12 7 7 12 8 12 3 0 -6 3 -6 8 0 12 17 111 45 118 33 4 -7 9 -7 13 0 3
6 35 11 71 13 36 1 74 5 84 9 20 7 31 50 13 50 -5 0 -4 7 3 15 15 18 27 17
-160 20 -80 2 -147 4 -150 5 -3 1 -9 1 -15 0 -12 -3 -206 -3 -220 0 -5 1 -14
1 -20 0 -29 -6 -105 -4 -105 3 0 4 -5 5 -11 1 -15 -9 -148 -11 -152 -2 -1 4
-7 4 -14 0z"/>
<path d="M4269 8733 c-13 -16 -12 -17 4 -4 9 7 17 15 17 17 0 8 -8 3 -21 -13z"/>
<path d="M5996 8688 c3 -5 10 -6 15 -3 13 9 11 12 -6 12 -8 0 -12 -4 -9 -9z"/>
<path d="M4916 8652 c-3 -5 1 -9 9 -9 8 0 12 4 9 9 -3 4 -7 8 -9 8 -2 0 -6 -4
-9 -8z"/>
<path d="M7035 8650 c3 -5 8 -10 11 -10 2 0 4 5 4 10 0 6 -5 10 -11 10 -5 0
-7 -4 -4 -10z"/>
<path d="M12140 8656 c0 -2 8 -10 18 -17 15 -13 16 -12 3 4 -13 16 -21 21 -21
13z"/>
<path d="M11335 8631 c-3 -5 -2 -12 3 -15 5 -3 9 1 9 9 0 17 -3 19 -12 6z"/>
<path d="M9375 8601 c-3 -5 -2 -12 3 -15 5 -3 9 1 9 9 0 17 -3 19 -12 6z"/>
<path d="M654 8586 c1 -8 5 -18 8 -22 4 -3 5 1 4 10 -1 8 -5 18 -8 22 -4 3 -5
-1 -4 -10z"/>
<path d="M5099 8598 c-5 -18 -6 -38 -1 -34 7 8 12 36 6 36 -2 0 -4 -1 -5 -2z"/>
<path d="M7035 8589 c-3 -4 2 -6 10 -5 21 3 28 13 10 13 -9 0 -18 -4 -20 -8z"/>
<path d="M1390 8571 c0 -6 4 -13 10 -16 6 -3 7 1 4 9 -7 18 -14 21 -14 7z"/>
<path d="M3056 8568 c3 -5 10 -6 15 -3 13 9 11 12 -6 12 -8 0 -12 -4 -9 -9z"/>
<path d="M3196 8572 c-3 -5 1 -9 9 -9 8 0 12 4 9 9 -3 4 -7 8 -9 8 -2 0 -6 -4
-9 -8z"/>
<path d="M8100 8576 c0 -2 8 -10 18 -17 15 -13 16 -12 3 4 -13 16 -21 21 -21
13z"/>
<path d="M3273 8555 c0 -8 4 -12 9 -9 5 3 6 10 3 15 -9 13 -12 11 -12 -6z"/>
<path d="M9395 8561 c-3 -5 -2 -12 3 -15 5 -3 9 1 9 9 0 17 -3 19 -12 6z"/>
<path d="M3096 8548 c3 -5 10 -6 15 -3 13 9 11 12 -6 12 -8 0 -12 -4 -9 -9z"/>
<path d="M3130 8549 c0 -5 5 -7 10 -4 6 3 10 8 10 11 0 2 -4 4 -10 4 -5 0 -10
-5 -10 -11z"/>
<path d="M3910 8555 c0 -7 30 -13 34 -7 3 4 -4 9 -15 9 -10 1 -19 0 -19 -2z"/>
<path d="M11315 8549 c-3 -4 2 -6 10 -5 21 3 28 13 10 13 -9 0 -18 -4 -20 -8z"/>
<path d="M5094 8526 c1 -8 5 -18 8 -22 4 -3 5 1 4 10 -1 8 -5 18 -8 22 -4 3
-5 -1 -4 -10z"/>
<path d="M7070 8530 c0 -5 5 -10 10 -10 6 0 10 5 10 10 0 6 -4 10 -10 10 -5 0
-10 -4 -10 -10z"/>
<path d="M9347 8529 c7 -7 15 -10 18 -7 3 3 -2 9 -12 12 -14 6 -15 5 -6 -5z"/>
<path d="M5913 8515 c0 -8 4 -12 9 -9 5 3 6 10 3 15 -9 13 -12 11 -12 -6z"/>
<path d="M3235 8510 c3 -5 8 -10 11 -10 2 0 4 5 4 10 0 6 -5 10 -11 10 -5 0
-7 -4 -4 -10z"/>
<path d="M3936 8508 c3 -5 10 -6 15 -3 13 9 11 12 -6 12 -8 0 -12 -4 -9 -9z"/>
<path d="M11314 8512 c4 -3 14 -7 22 -8 9 -1 13 0 10 4 -4 3 -14 7 -22 8 -9 1
-13 0 -10 -4z"/>
<path d="M1910 8491 c0 -6 4 -12 8 -15 5 -3 9 1 9 9 0 8 -4 15 -9 15 -4 0 -8
-4 -8 -9z"/>
<path d="M3113 8485 c0 -8 4 -12 9 -9 4 3 8 9 8 15 0 5 -4 9 -8 9 -5 0 -9 -7
-9 -15z"/>
<path d="M7010 8490 c0 -5 5 -10 11 -10 5 0 7 5 4 10 -3 6 -8 10 -11 10 -2 0
-4 -4 -4 -10z"/>
<path d="M7786 8488 c3 -5 10 -6 15 -3 13 9 11 12 -6 12 -8 0 -12 -4 -9 -9z"/>
<path d="M9436 8483 c-6 -14 -5 -15 5 -6 7 7 10 15 7 18 -3 3 -9 -2 -12 -12z"/>
<path d="M659 8478 c-5 -18 -6 -38 -1 -34 7 8 12 36 6 36 -2 0 -4 -1 -5 -2z"/>
<path d="M5130 8469 c0 -5 5 -7 10 -4 6 3 10 8 10 11 0 2 -4 4 -10 4 -5 0 -10
-5 -10 -11z"/>
<path d="M5775 8470 c3 -5 8 -10 11 -10 2 0 4 5 4 10 0 6 -5 10 -11 10 -5 0
-7 -4 -4 -10z"/>
<path d="M5815 8470 c3 -5 8 -10 11 -10 2 0 4 5 4 10 0 6 -5 10 -11 10 -5 0
-7 -4 -4 -10z"/>
<path d="M7046 8472 c-3 -5 1 -9 9 -9 8 0 12 4 9 9 -3 4 -7 8 -9 8 -2 0 -6 -4
-9 -8z"/>
<path d="M599 8443 c-13 -16 -12 -17 4 -4 16 13 21 21 13 21 -2 0 -10 -8 -17
-17z"/>
<path d="M2646 8452 c-3 -5 1 -9 9 -9 8 0 12 4 9 9 -3 4 -7 8 -9 8 -2 0 -6 -4
-9 -8z"/>
<path d="M1370 8429 c0 -5 5 -7 10 -4 6 3 10 8 10 11 0 2 -4 4 -10 4 -5 0 -10
-5 -10 -11z"/>
<path d="M1406 8432 c-3 -5 1 -9 9 -9 8 0 12 4 9 9 -3 4 -7 8 -9 8 -2 0 -6 -4
-9 -8z"/>
<path d="M1456 8432 c-3 -4 4 -9 15 -9 23 -2 25 3 4 10 -8 4 -16 3 -19 -1z"/>
<path d="M3120 8430 c-8 -5 -10 -10 -5 -10 6 0 17 5 25 10 8 5 11 10 5 10 -5
0 -17 -5 -25 -10z"/>
<path d="M3175 8430 c3 -5 8 -10 11 -10 2 0 4 5 4 10 0 6 -5 10 -11 10 -5 0
-7 -4 -4 -10z"/>
<path d="M5095 8429 c-3 -4 2 -6 10 -5 21 3 28 13 10 13 -9 0 -18 -4 -20 -8z"/>
<path d="M5776 8423 c-6 -14 -5 -15 5 -6 7 7 10 15 7 18 -3 3 -9 -2 -12 -12z"/>
<path d="M5815 8430 c-3 -5 -1 -10 4 -10 6 0 11 5 11 10 0 6 -2 10 -4 10 -3 0
-8 -4 -11 -10z"/>
<path d="M9415 8430 c3 -5 8 -10 11 -10 2 0 4 5 4 10 0 6 -5 10 -11 10 -5 0
-7 -4 -4 -10z"/>
<path d="M5855 8410 c3 -5 8 -10 11 -10 2 0 4 5 4 10 0 6 -5 10 -11 10 -5 0
-7 -4 -4 -10z"/>
<path d="M7940 8416 c0 -2 8 -10 18 -17 15 -13 16 -12 3 4 -13 16 -21 21 -21
13z"/>
<path d="M9379 8418 c-5 -18 -6 -38 -1 -34 7 8 12 36 6 36 -2 0 -4 -1 -5 -2z"/>
<path d="M10099 8418 c-5 -18 -6 -38 -1 -34 7 8 12 36 6 36 -2 0 -4 -1 -5 -2z"/>
<path d="M7035 8399 c-4 -6 -5 -12 -2 -15 2 -3 7 2 10 11 7 17 1 20 -8 4z"/>
<path d="M5134 8386 c1 -8 5 -18 8 -22 4 -3 5 1 4 10 -1 8 -5 18 -8 22 -4 3
-5 -1 -4 -10z"/>
<path d="M9415 8390 c3 -5 8 -10 11 -10 2 0 4 5 4 10 0 6 -5 10 -11 10 -5 0
-7 -4 -4 -10z"/>
<path d="M1635 8379 c-4 -6 -5 -12 -2 -15 2 -3 7 2 10 11 7 17 1 20 -8 4z"/>
<path d="M3115 8381 c-3 -5 -2 -12 3 -15 5 -3 9 1 9 9 0 17 -3 19 -12 6z"/>
<path d="M1550 8371 c0 -6 4 -13 10 -16 6 -3 7 1 4 9 -7 18 -14 21 -14 7z"/>
<path d="M5870 8369 c0 -5 5 -7 10 -4 6 3 10 8 10 11 0 2 -4 4 -10 4 -5 0 -10
-5 -10 -11z"/>
<path d="M9279 8363 c-13 -16 -12 -17 4 -4 9 7 17 15 17 17 0 8 -8 3 -21 -13z"/>
<path d="M11306 8368 c3 -5 10 -6 15 -3 13 9 11 12 -6 12 -8 0 -12 -4 -9 -9z"/>
<path d="M3890 8350 c0 -5 5 -10 11 -10 5 0 7 5 4 10 -3 6 -8 10 -11 10 -2 0
-4 -4 -4 -10z"/>
<path d="M9410 8350 c0 -5 5 -10 11 -10 5 0 7 5 4 10 -3 6 -8 10 -11 10 -2 0
-4 -4 -4 -10z"/>
<path d="M7670 8346 c0 -2 8 -10 18 -17 15 -13 16 -12 3 4 -13 16 -21 21 -21
13z"/>
<path d="M655 8330 c3 -5 8 -10 11 -10 2 0 4 5 4 10 0 6 -5 10 -11 10 -5 0 -7
-4 -4 -10z"/>
<path d="M1470 8336 c0 -2 7 -7 16 -10 8 -3 12 -2 9 4 -6 10 -25 14 -25 6z"/>
<path d="M7485 8330 c-3 -6 1 -7 9 -4 18 7 21 14 7 14 -6 0 -13 -4 -16 -10z"/>
<path d="M10119 8323 c-13 -17 -13 -17 6 -3 11 8 22 16 24 17 2 2 0 3 -6 3 -6
0 -17 -8 -24 -17z"/>
<path d="M1373 8305 c0 -8 4 -12 9 -9 5 3 6 10 3 15 -9 13 -12 11 -12 -6z"/>
<path d="M7435 8310 c3 -5 8 -10 11 -10 2 0 4 5 4 10 0 6 -5 10 -11 10 -5 0
-7 -4 -4 -10z"/>
<path d="M9415 8310 c3 -5 8 -10 11 -10 2 0 4 5 4 10 0 6 -5 10 -11 10 -5 0
-7 -4 -4 -10z"/>
<path d="M3869 8293 c-13 -16 -12 -17 4 -4 9 7 17 15 17 17 0 8 -8 3 -21 -13z"/>
<path d="M3170 8290 c0 -5 5 -10 11 -10 5 0 7 5 4 10 -3 6 -8 10 -11 10 -2 0
-4 -4 -4 -10z"/>
<path d="M7719 8283 c-13 -16 -12 -17 4 -4 16 13 21 21 13 21 -2 0 -10 -8 -17
-17z"/>
<path d="M11676 8283 c-6 -14 -5 -15 5 -6 7 7 10 15 7 18 -3 3 -9 -2 -12 -12z"/>
<path d="M690 8270 c0 -5 5 -10 11 -10 5 0 7 5 4 10 -3 6 -8 10 -11 10 -2 0
-4 -4 -4 -10z"/>
<path d="M1326 8272 c-3 -5 1 -9 9 -9 8 0 12 4 9 9 -3 4 -7 8 -9 8 -2 0 -6 -4
-9 -8z"/>
<path d="M5770 8270 c0 -5 5 -10 11 -10 5 0 7 5 4 10 -3 6 -8 10 -11 10 -2 0
-4 -4 -4 -10z"/>
<path d="M5815 8269 c-3 -4 2 -6 10 -5 21 3 28 13 10 13 -9 0 -18 -4 -20 -8z"/>
<path d="M9356 8263 c-6 -14 -5 -15 5 -6 7 7 10 15 7 18 -3 3 -9 -2 -12 -12z"/>
<path d="M9416 8272 c-3 -5 1 -9 9 -9 8 0 12 4 9 9 -3 4 -7 8 -9 8 -2 0 -6 -4
-9 -8z"/>
<path d="M10050 8270 c0 -5 5 -10 11 -10 5 0 7 5 4 10 -3 6 -8 10 -11 10 -2 0
-4 -4 -4 -10z"/>
<path d="M10086 8272 c-3 -5 1 -9 9 -9 8 0 12 4 9 9 -3 4 -7 8 -9 8 -2 0 -6
-4 -9 -8z"/>
<path d="M3107 8249 c7 -7 15 -10 18 -7 3 3 -2 9 -12 12 -14 6 -15 5 -6 -5z"/>
<path d="M4026 8248 c3 -5 10 -6 15 -3 13 9 11 12 -6 12 -8 0 -12 -4 -9 -9z"/>
<path d="M9266 8252 c-3 -5 1 -9 9 -9 8 0 12 4 9 9 -3 4 -7 8 -9 8 -2 0 -6 -4
-9 -8z"/>
<path d="M7670 8226 c0 -2 8 -10 18 -17 15 -13 16 -12 3 4 -13 16 -21 21 -21
13z"/>
<path d="M5085 8210 c-3 -6 1 -7 9 -4 18 7 21 14 7 14 -6 0 -13 -4 -16 -10z"/>
<path d="M5134 8206 c1 -8 5 -18 8 -22 4 -3 5 1 4 10 -1 8 -5 18 -8 22 -4 3
-5 -1 -4 -10z"/>
<path d="M11670 8216 c0 -2 7 -7 16 -10 8 -3 12 -2 9 4 -6 10 -25 14 -25 6z"/>
<path d="M635 8190 c3 -5 8 -10 11 -10 2 0 4 5 4 10 0 6 -5 10 -11 10 -5 0 -7
-4 -4 -10z"/>
<path d="M695 8190 c3 -5 8 -10 11 -10 2 0 4 5 4 10 0 6 -5 10 -11 10 -5 0 -7
-4 -4 -10z"/>
<path d="M3193 8184 c0 -9 4 -11 12 -4 7 5 14 9 16 7 2 -1 3 0 1 2 -7 11 -29
7 -29 -5z"/>
<path d="M3255 8190 c-3 -5 -1 -10 4 -10 6 0 11 5 11 10 0 6 -2 10 -4 10 -3 0
-8 -4 -11 -10z"/>
<path d="M5814 8186 c1 -8 5 -18 8 -22 4 -3 5 1 4 10 -1 8 -5 18 -8 22 -4 3
-5 -1 -4 -10z"/>
<path d="M3869 8173 c-13 -16 -12 -17 4 -4 9 7 17 15 17 17 0 8 -8 3 -21 -13z"/>
<path d="M10095 8170 c3 -5 8 -10 11 -10 2 0 4 5 4 10 0 6 -5 10 -11 10 -5 0
-7 -4 -4 -10z"/>
<path d="M11625 8170 c-3 -6 1 -7 9 -4 18 7 21 14 7 14 -6 0 -13 -4 -16 -10z"/>
<path d="M9416 8148 c3 -5 10 -6 15 -3 13 9 11 12 -6 12 -8 0 -12 -4 -9 -9z"/>
<path d="M5816 8112 c-3 -4 4 -9 15 -9 23 -2 25 3 4 10 -8 4 -16 3 -19 -1z"/>
<path d="M9386 8095 c-11 -8 -15 -15 -9 -15 6 0 16 7 23 15 16 19 11 19 -14 0z"/>
<path d="M3276 8077 c3 -10 9 -15 12 -12 3 3 0 11 -7 18 -10 9 -11 8 -5 -6z"/>
<path d="M3220 8050 c-9 -6 -10 -10 -3 -10 6 0 15 5 18 10 8 12 4 12 -15 0z"/>
<path d="M5135 8050 c3 -5 8 -10 11 -10 2 0 4 5 4 10 0 6 -5 10 -11 10 -5 0
-7 -4 -4 -10z"/>
<path d="M5813 8019 c-2 -23 3 -25 10 -4 4 8 3 16 -1 19 -4 3 -9 -4 -9 -15z"/>
<path d="M5135 8010 c-3 -5 -1 -10 4 -10 6 0 11 5 11 10 0 6 -2 10 -4 10 -3 0
-8 -4 -11 -10z"/>
<path d="M9371 8017 c2 -1 13 -9 24 -17 19 -14 19 -14 6 3 -7 9 -18 17 -24 17
-6 0 -8 -1 -6 -3z"/>
<path d="M10095 8010 c3 -5 8 -10 11 -10 2 0 4 5 4 10 0 6 -5 10 -11 10 -5 0
-7 -4 -4 -10z"/>
<path d="M3875 7989 c-3 -4 2 -6 10 -5 21 3 28 13 10 13 -9 0 -18 -4 -20 -8z"/>
<path d="M1319 7963 c-13 -16 -12 -17 4 -4 16 13 21 21 13 21 -2 0 -10 -8 -17
-17z"/>
<path d="M3080 7976 c0 -2 8 -10 18 -17 15 -13 16 -12 3 4 -13 16 -21 21 -21
13z"/>
<path d="M3210 7976 c0 -2 7 -7 16 -10 8 -3 12 -2 9 4 -6 10 -25 14 -25 6z"/>
<path d="M694 7952 c4 -3 14 -7 22 -8 9 -1 13 0 10 4 -4 3 -14 7 -22 8 -9 1
-13 0 -10 -4z"/>
<path d="M3255 7949 c-3 -4 2 -6 10 -5 21 3 28 13 10 13 -9 0 -18 -4 -20 -8z"/>
<path d="M3896 7948 c3 -5 10 -6 15 -3 13 9 11 12 -6 12 -8 0 -12 -4 -9 -9z"/>
<path d="M9416 7952 c-3 -5 1 -9 9 -9 8 0 12 4 9 9 -3 4 -7 8 -9 8 -2 0 -6 -4
-9 -8z"/>
<path d="M10075 7950 c3 -5 8 -10 11 -10 2 0 4 5 4 10 0 6 -5 10 -11 10 -5 0
-7 -4 -4 -10z"/>
<path d="M7313 7935 c0 -8 4 -12 9 -9 5 3 6 10 3 15 -9 13 -12 11 -12 -6z"/>
<path d="M1333 7921 c0 -11 5 -18 9 -15 4 3 5 11 1 19 -7 21 -12 19 -10 -4z"/>
<path d="M11580 7935 c0 -2 6 -8 13 -14 10 -8 14 -7 14 2 0 8 -6 14 -14 14 -7
0 -13 -1 -13 -2z"/>
<path d="M693 7915 c0 -8 4 -12 9 -9 5 3 6 10 3 15 -9 13 -12 11 -12 -6z"/>
<path d="M10054 7912 c4 -3 14 -7 22 -8 9 -1 13 0 10 4 -4 3 -14 7 -22 8 -9 1
-13 0 -10 -4z"/>
<path d="M5140 7890 c-9 -6 -10 -10 -3 -10 6 0 15 5 18 10 8 12 4 12 -15 0z"/>
<path d="M10053 7875 c0 -8 4 -12 9 -9 5 3 6 10 3 15 -9 13 -12 11 -12 -6z"/>
<path d="M695 7870 c-3 -5 -1 -10 4 -10 6 0 11 5 11 10 0 6 -2 10 -4 10 -3 0
-8 -4 -11 -10z"/>
<path d="M5816 7868 c3 -5 10 -6 15 -3 13 9 11 12 -6 12 -8 0 -12 -4 -9 -9z"/>
<path d="M1325 7850 c-3 -6 1 -7 9 -4 18 7 21 14 7 14 -6 0 -13 -4 -16 -10z"/>
<path d="M1436 7843 c-6 -14 -5 -15 5 -6 7 7 10 15 7 18 -3 3 -9 -2 -12 -12z"/>
<path d="M5190 7850 c0 -5 5 -10 11 -10 5 0 7 5 4 10 -3 6 -8 10 -11 10 -2 0
-4 -4 -4 -10z"/>
<path d="M6705 7850 c-3 -6 1 -7 9 -4 18 7 21 14 7 14 -6 0 -13 -4 -16 -10z"/>
<path d="M3256 7832 c-3 -4 4 -9 15 -9 23 -2 25 3 4 10 -8 4 -16 3 -19 -1z"/>
<path d="M1359 7803 c-13 -16 -12 -17 4 -4 9 7 17 15 17 17 0 8 -8 3 -21 -13z"/>
<path d="M5130 7816 c0 -2 7 -7 16 -10 8 -3 12 -2 9 4 -6 10 -25 14 -25 6z"/>
<path d="M9315 7810 c-3 -5 -1 -10 4 -10 6 0 11 5 11 10 0 6 -2 10 -4 10 -3 0
-8 -4 -11 -10z"/>
<path d="M10053 7795 c0 -8 4 -12 9 -9 5 3 6 10 3 15 -9 13 -12 11 -12 -6z"/>
<path d="M674 7792 c4 -3 14 -7 22 -8 9 -1 13 0 10 4 -4 3 -14 7 -22 8 -9 1
-13 0 -10 -4z"/>
<path d="M3235 7749 c-3 -4 2 -6 10 -5 21 3 28 13 10 13 -9 0 -18 -4 -20 -8z"/>
<path d="M3875 7750 c3 -5 8 -10 11 -10 2 0 4 5 4 10 0 6 -5 10 -11 10 -5 0
-7 -4 -4 -10z"/>
<path d="M9394 7752 c4 -3 14 -7 22 -8 9 -1 13 0 10 4 -4 3 -14 7 -22 8 -9 1
-13 0 -10 -4z"/>
<path d="M3896 7708 c3 -5 10 -6 15 -3 13 9 11 12 -6 12 -8 0 -12 -4 -9 -9z"/>
<path d="M5794 7712 c4 -3 14 -7 22 -8 9 -1 13 0 10 4 -4 3 -14 7 -22 8 -9 1
-13 0 -10 -4z"/>
<path d="M10094 7706 c1 -8 5 -18 8 -22 4 -3 5 1 4 10 -1 8 -5 18 -8 22 -4 3
-5 -1 -4 -10z"/>
<path d="M7194 7699 c-3 -6 -2 -15 3 -20 5 -5 9 -1 9 11 0 23 -2 24 -12 9z"/>
<path d="M660 7690 c-8 -5 -10 -10 -5 -10 6 0 17 5 25 10 8 5 11 10 5 10 -5 0
-17 -5 -25 -10z"/>
<path d="M1290 7669 c0 -5 5 -7 10 -4 6 3 10 8 10 11 0 2 -4 4 -10 4 -5 0 -10
-5 -10 -11z"/>
<path d="M5176 7668 c3 -5 10 -6 15 -3 13 9 11 12 -6 12 -8 0 -12 -4 -9 -9z"/>
<path d="M9406 7672 c-3 -5 1 -9 9 -9 8 0 12 4 9 9 -3 4 -7 8 -9 8 -2 0 -6 -4
-9 -8z"/>
<path d="M10029 7653 c-13 -16 -12 -17 4 -4 9 7 17 15 17 17 0 8 -8 3 -21 -13z"/>
<path d="M3864 7652 c4 -3 14 -7 22 -8 9 -1 13 0 10 4 -4 3 -14 7 -22 8 -9 1
-13 0 -10 -4z"/>
<path d="M10290 7656 c0 -2 7 -7 16 -10 8 -3 12 -2 9 4 -6 10 -25 14 -25 6z"/>
<path d="M696 7632 c-2 -4 -1 -14 4 -22 7 -11 9 -9 7 8 -1 24 -3 26 -11 14z"/>
<path d="M5770 7630 c0 -5 5 -10 11 -10 5 0 7 5 4 10 -3 6 -8 10 -11 10 -2 0
-4 -4 -4 -10z"/>
<path d="M5815 7630 c3 -5 8 -10 11 -10 2 0 4 5 4 10 0 6 -5 10 -11 10 -5 0
-7 -4 -4 -10z"/>
<path d="M9393 7625 c0 -8 4 -12 9 -9 5 3 6 10 3 15 -9 13 -12 11 -12 -6z"/>
<path d="M10086 7628 c3 -5 10 -6 15 -3 13 9 11 12 -6 12 -8 0 -12 -4 -9 -9z"/>
<path d="M9430 7609 c0 -5 5 -7 10 -4 6 3 10 8 10 11 0 2 -4 4 -10 4 -5 0 -10
-5 -10 -11z"/>
<path d="M636 7597 c3 -10 9 -15 12 -12 3 3 0 11 -7 18 -10 9 -11 8 -5 -6z"/>
<path d="M3275 7600 c-4 -6 -11 -7 -17 -4 -7 4 -8 2 -4 -5 6 -9 11 -9 22 0 14
11 18 19 10 19 -3 0 -8 -5 -11 -10z"/>
<path d="M10550 7590 c0 -5 5 -10 11 -10 5 0 7 5 4 10 -3 6 -8 10 -11 10 -2 0
-4 -4 -4 -10z"/>
<path d="M6395 7579 c-4 -6 -5 -12 -2 -15 2 -3 7 2 10 11 7 17 1 20 -8 4z"/>
<path d="M3910 7571 c0 -6 4 -13 10 -16 6 -3 7 1 4 9 -7 18 -14 21 -14 7z"/>
<path d="M10719 7563 c-13 -16 -12 -17 4 -4 9 7 17 15 17 17 0 8 -8 3 -21 -13z"/>
<path d="M690 7549 c0 -5 5 -7 10 -4 6 3 10 8 10 11 0 2 -4 4 -10 4 -5 0 -10
-5 -10 -11z"/>
<path d="M5819 7558 c-5 -18 -6 -38 -1 -34 7 8 12 36 6 36 -2 0 -4 -1 -5 -2z"/>
<path d="M9265 7550 c-3 -6 1 -7 9 -4 18 7 21 14 7 14 -6 0 -13 -4 -16 -10z"/>
<path d="M10090 7550 c0 -5 5 -10 11 -10 5 0 7 5 4 10 -3 6 -8 10 -11 10 -2 0
-4 -4 -4 -10z"/>
<path d="M9309 7533 c-13 -16 -12 -17 4 -4 9 7 17 15 17 17 0 8 -8 3 -21 -13z"/>
<path d="M5140 7530 c-8 -5 -10 -10 -5 -10 6 0 17 5 25 10 8 5 11 10 5 10 -5
0 -17 -5 -25 -10z"/>
<path d="M5873 7525 c0 -8 4 -12 9 -9 5 3 6 10 3 15 -9 13 -12 11 -12 -6z"/>
<path d="M9419 7538 c-5 -18 -6 -38 -1 -34 7 8 12 36 6 36 -2 0 -4 -1 -5 -2z"/>
<path d="M10520 7530 c-9 -6 -10 -10 -3 -10 6 0 15 5 18 10 8 12 4 12 -15 0z"/>
<path d="M3234 7512 c4 -3 14 -7 22 -8 9 -1 13 0 10 4 -4 3 -14 7 -22 8 -9 1
-13 0 -10 -4z"/>
<path d="M3875 7510 c3 -5 8 -10 11 -10 2 0 4 5 4 10 0 6 -5 10 -11 10 -5 0
-7 -4 -4 -10z"/>
<path d="M10136 7508 c3 -4 11 -5 19 -1 21 7 19 12 -4 10 -11 0 -18 -5 -15 -9z"/>
<path d="M6020 7496 c0 -2 8 -10 18 -17 15 -13 16 -12 3 4 -13 16 -21 21 -21
13z"/>
<path d="M3255 7481 c-3 -5 -2 -12 3 -15 5 -3 9 1 9 9 0 17 -3 19 -12 6z"/>
<path d="M3896 7468 c3 -5 10 -6 15 -3 13 9 11 12 -6 12 -8 0 -12 -4 -9 -9z"/>
<path d="M1436 7448 c3 -5 10 -6 15 -3 13 9 11 12 -6 12 -8 0 -12 -4 -9 -9z"/>
<path d="M10139 7458 c-5 -18 -6 -38 -1 -34 7 8 12 36 6 36 -2 0 -4 -1 -5 -2z"/>
<path d="M9356 7437 c3 -10 9 -15 12 -12 3 3 0 11 -7 18 -10 9 -11 8 -5 -6z"/>
<path d="M5853 7425 c0 -8 4 -12 9 -9 5 3 6 10 3 15 -9 13 -12 11 -12 -6z"/>
<path d="M5140 7410 c-9 -6 -10 -10 -3 -10 6 0 15 5 18 10 8 12 4 12 -15 0z"/>
<path d="M9414 7406 c1 -8 5 -18 8 -22 4 -3 5 1 4 10 -1 8 -5 18 -8 22 -4 3
-5 -1 -4 -10z"/>
<path d="M695 7401 c-3 -5 -2 -12 3 -15 5 -3 9 1 9 9 0 17 -3 19 -12 6z"/>
<path d="M3255 7401 c-3 -5 -2 -12 3 -15 5 -3 9 1 9 9 0 17 -3 19 -12 6z"/>
<path d="M5776 7383 c-6 -14 -5 -15 5 -6 7 7 10 15 7 18 -3 3 -9 -2 -12 -12z"/>
<path d="M5810 7390 c0 -5 5 -10 11 -10 5 0 7 5 4 10 -3 6 -8 10 -11 10 -2 0
-4 -4 -4 -10z"/>
<path d="M10133 7385 c0 -8 4 -12 9 -9 5 3 6 10 3 15 -9 13 -12 11 -12 -6z"/>
<path d="M10196 7383 c-6 -14 -5 -15 5 -6 7 7 10 15 7 18 -3 3 -9 -2 -12 -12z"/>
<path d="M10034 7379 c-3 -6 -2 -15 3 -20 5 -5 9 -1 9 11 0 23 -2 24 -12 9z"/>
<path d="M1475 7370 c3 -5 8 -10 11 -10 2 0 4 5 4 10 0 6 -5 10 -11 10 -5 0
-7 -4 -4 -10z"/>
<path d="M5987 7369 c7 -7 15 -10 18 -7 3 3 -2 9 -12 12 -14 6 -15 5 -6 -5z"/>
<path d="M6275 7371 c-3 -5 -2 -12 3 -15 5 -3 9 1 9 9 0 17 -3 19 -12 6z"/>
<path d="M10275 7371 c-3 -5 -2 -12 3 -15 5 -3 9 1 9 9 0 17 -3 19 -12 6z"/>
<path d="M10610 7369 c0 -5 5 -7 10 -4 6 3 10 8 10 11 0 2 -4 4 -10 4 -5 0
-10 -5 -10 -11z"/>
<path d="M673 7355 c0 -8 4 -12 9 -9 5 3 6 10 3 15 -9 13 -12 11 -12 -6z"/>
<path d="M1355 7359 c-4 -6 -5 -12 -2 -15 2 -3 7 2 10 11 7 17 1 20 -8 4z"/>
<path d="M3275 7350 c3 -5 8 -10 11 -10 2 0 4 5 4 10 0 6 -5 10 -11 10 -5 0
-7 -4 -4 -10z"/>
<path d="M5890 7350 c0 -5 5 -10 11 -10 5 0 7 5 4 10 -3 6 -8 10 -11 10 -2 0
-4 -4 -4 -10z"/>
<path d="M5934 7352 c4 -3 14 -7 22 -8 9 -1 13 0 10 4 -4 3 -14 7 -22 8 -9 1
-13 0 -10 -4z"/>
<path d="M10090 7350 c0 -5 5 -10 11 -10 5 0 7 5 4 10 -3 6 -8 10 -11 10 -2 0
-4 -4 -4 -10z"/>
<path d="M10135 7350 c-3 -5 -1 -10 4 -10 6 0 11 5 11 10 0 6 -2 10 -4 10 -3
0 -8 -4 -11 -10z"/>
<path d="M627 7329 c7 -7 15 -10 18 -7 3 3 -2 9 -12 12 -14 6 -15 5 -6 -5z"/>
<path d="M5130 7336 c0 -2 7 -7 16 -10 8 -3 12 -2 9 4 -6 10 -25 14 -25 6z"/>
<path d="M5955 7309 c-3 -4 2 -6 10 -5 21 3 28 13 10 13 -9 0 -18 -4 -20 -8z"/>
<path d="M9267 7309 c7 -7 15 -10 18 -7 3 3 -2 9 -12 12 -14 6 -15 5 -6 -5z"/>
<path d="M10170 7309 c0 -5 5 -7 10 -4 6 3 10 8 10 11 0 2 -4 4 -10 4 -5 0
-10 -5 -10 -11z"/>
<path d="M10256 7312 c-3 -4 4 -9 15 -9 23 -2 25 3 4 10 -8 4 -16 3 -19 -1z"/>
<path d="M10316 7303 c-6 -14 -5 -15 5 -6 7 7 10 15 7 18 -3 3 -9 -2 -12 -12z"/>
<path d="M1433 7295 c0 -8 4 -12 9 -9 5 3 6 10 3 15 -9 13 -12 11 -12 -6z"/>
<path d="M6270 7306 c0 -2 8 -10 18 -17 15 -13 16 -12 3 4 -13 16 -21 21 -21
13z"/>
<path d="M5906 7288 c3 -4 9 -8 15 -8 5 0 9 4 9 8 0 5 -7 9 -15 9 -8 0 -12 -4
-9 -9z"/>
<path d="M6126 7288 c3 -5 10 -6 15 -3 13 9 11 12 -6 12 -8 0 -12 -4 -9 -9z"/>
<path d="M10053 7285 c0 -8 4 -12 9 -9 4 3 8 9 8 15 0 5 -4 9 -8 9 -5 0 -9 -7
-9 -15z"/>
<path d="M10986 7292 c-3 -5 1 -9 9 -9 8 0 12 4 9 9 -3 4 -7 8 -9 8 -2 0 -6
-4 -9 -8z"/>
<path d="M1315 7270 c3 -5 8 -10 11 -10 2 0 4 5 4 10 0 6 -5 10 -11 10 -5 0
-7 -4 -4 -10z"/>
<path d="M3253 7273 c4 -3 1 -13 -6 -22 -11 -14 -10 -14 5 -2 16 12 16 31 1
31 -4 0 -3 -3 0 -7z"/>
<path d="M3875 7270 c3 -5 8 -10 11 -10 2 0 4 5 4 10 0 6 -5 10 -11 10 -5 0
-7 -4 -4 -10z"/>
<path d="M9390 7275 c0 -7 30 -13 34 -7 3 4 -4 9 -15 9 -10 1 -19 0 -19 -2z"/>
<path d="M6193 7255 c0 -8 4 -12 9 -9 5 3 6 10 3 15 -9 13 -12 11 -12 -6z"/>
<path d="M3195 7250 c-3 -5 -1 -10 4 -10 6 0 11 5 11 10 0 6 -2 10 -4 10 -3 0
-8 -4 -11 -10z"/>
<path d="M5144 7252 c4 -3 14 -7 22 -8 9 -1 13 0 10 4 -4 3 -14 7 -22 8 -9 1
-13 0 -10 -4z"/>
<path d="M6155 7251 c-3 -5 -2 -12 3 -15 5 -3 9 1 9 9 0 17 -3 19 -12 6z"/>
<path d="M6235 7250 c-3 -5 -1 -10 4 -10 6 0 11 5 11 10 0 6 -2 10 -4 10 -3 0
-8 -4 -11 -10z"/>
<path d="M10350 7248 c0 -4 4 -8 9 -8 6 0 12 4 15 8 3 5 -1 9 -9 9 -8 0 -15
-4 -15 -9z"/>
<path d="M10470 7251 c0 -6 4 -13 10 -16 6 -3 7 1 4 9 -7 18 -14 21 -14 7z"/>
<path d="M695 7241 c-3 -5 -2 -12 3 -15 5 -3 9 1 9 9 0 17 -3 19 -12 6z"/>
<path d="M1336 7232 c-3 -5 1 -9 9 -9 8 0 12 4 9 9 -3 4 -7 8 -9 8 -2 0 -6 -4
-9 -8z"/>
<path d="M3896 7228 c3 -5 10 -6 15 -3 13 9 11 12 -6 12 -8 0 -12 -4 -9 -9z"/>
<path d="M5975 7230 c-3 -5 -1 -10 4 -10 6 0 11 5 11 10 0 6 -2 10 -4 10 -3 0
-8 -4 -11 -10z"/>
<path d="M6006 7232 c-3 -5 1 -9 9 -9 8 0 12 4 9 9 -3 4 -7 8 -9 8 -2 0 -6 -4
-9 -8z"/>
<path d="M6055 7230 c-3 -5 -1 -10 4 -10 6 0 11 5 11 10 0 6 -2 10 -4 10 -3 0
-8 -4 -11 -10z"/>
<path d="M10255 7230 c3 -5 8 -10 11 -10 2 0 4 5 4 10 0 6 -5 10 -11 10 -5 0
-7 -4 -4 -10z"/>
<path d="M5833 7204 c0 -9 4 -11 12 -4 7 5 14 9 16 7 2 -1 3 0 1 2 -7 11 -29
7 -29 -5z"/>
<path d="M6110 7210 c0 -5 5 -10 11 -10 5 0 7 5 4 10 -3 6 -8 10 -11 10 -2 0
-4 -4 -4 -10z"/>
<path d="M6140 7216 c0 -2 8 -10 18 -17 15 -13 16 -12 3 4 -13 16 -21 21 -21
13z"/>
<path d="M10136 7203 c-6 -14 -5 -15 5 -6 7 7 10 15 7 18 -3 3 -9 -2 -12 -12z"/>
<path d="M10355 7211 c-3 -5 -2 -12 3 -15 5 -3 9 1 9 9 0 17 -3 19 -12 6z"/>
<path d="M10430 7210 c0 -5 5 -10 11 -10 5 0 7 5 4 10 -3 6 -8 10 -11 10 -2 0
-4 -4 -4 -10z"/>
<path d="M673 7195 c0 -8 4 -12 9 -9 5 3 6 10 3 15 -9 13 -12 11 -12 -6z"/>
<path d="M5790 7206 c0 -2 8 -10 18 -17 15 -13 16 -12 3 4 -13 16 -21 21 -21
13z"/>
<path d="M3254 7176 c1 -14 4 -28 7 -31 3 -3 5 6 5 19 -1 14 -4 28 -7 31 -3 3
-5 -6 -5 -19z"/>
<path d="M5176 7188 c3 -5 10 -6 15 -3 13 9 11 12 -6 12 -8 0 -12 -4 -9 -9z"/>
<path d="M6050 7189 c0 -5 5 -7 10 -4 6 3 10 8 10 11 0 2 -4 4 -10 4 -5 0 -10
-5 -10 -11z"/>
<path d="M9394 7192 c4 -3 14 -7 22 -8 9 -1 13 0 10 4 -4 3 -14 7 -22 8 -9 1
-13 0 -10 -4z"/>
<path d="M10886 7188 c3 -5 10 -6 15 -3 13 9 11 12 -6 12 -8 0 -12 -4 -9 -9z"/>
<path d="M11190 7189 c0 -5 5 -7 10 -4 6 3 10 8 10 11 0 2 -4 4 -10 4 -5 0
-10 -5 -10 -11z"/>
<path d="M3996 7177 c3 -10 9 -15 12 -12 3 3 0 11 -7 18 -10 9 -11 8 -5 -6z"/>
<path d="M3864 7172 c4 -3 14 -7 22 -8 9 -1 13 0 10 4 -4 3 -14 7 -22 8 -9 1
-13 0 -10 -4z"/>
<path d="M5934 7168 c-4 -7 -4 -10 1 -6 4 4 15 2 24 -5 14 -11 14 -10 2 6 -16
20 -18 21 -27 5z"/>
<path d="M10040 7176 c0 -2 8 -10 18 -17 15 -13 16 -12 3 4 -13 16 -21 21 -21
13z"/>
<path d="M5170 7150 c0 -5 5 -10 11 -10 5 0 7 5 4 10 -3 6 -8 10 -11 10 -2 0
-4 -4 -4 -10z"/>
<path d="M5860 7156 c0 -2 8 -10 18 -17 15 -13 16 -12 3 4 -13 16 -21 21 -21
13z"/>
<path d="M6073 7145 c0 -8 4 -12 9 -9 5 3 6 10 3 15 -9 13 -12 11 -12 -6z"/>
<path d="M10850 7150 c0 -5 5 -10 11 -10 5 0 7 5 4 10 -3 6 -8 10 -11 10 -2 0
-4 -4 -4 -10z"/>
<path d="M10134 7130 c0 -13 4 -16 10 -10 7 7 7 13 0 20 -6 6 -10 3 -10 -10z"/>
<path d="M5896 7123 c-6 -14 -5 -15 5 -6 7 7 10 15 7 18 -3 3 -9 -2 -12 -12z"/>
<path d="M5930 7131 c0 -6 4 -13 10 -16 6 -3 7 1 4 9 -7 18 -14 21 -14 7z"/>
<path d="M10099 7123 c-13 -16 -12 -17 4 -4 9 7 17 15 17 17 0 8 -8 3 -21 -13z"/>
<path d="M9413 7115 c0 -8 4 -12 9 -9 5 3 6 10 3 15 -9 13 -12 11 -12 -6z"/>
<path d="M1336 7108 c3 -5 10 -6 15 -3 13 9 11 12 -6 12 -8 0 -12 -4 -9 -9z"/>
<path d="M5790 7111 c0 -6 4 -12 8 -15 5 -3 9 1 9 9 0 8 -4 15 -9 15 -4 0 -8
-4 -8 -9z"/>
<path d="M6610 7109 c0 -5 5 -7 10 -4 6 3 10 8 10 11 0 2 -4 4 -10 4 -5 0 -10
-5 -10 -11z"/>
<path d="M10045 7109 c-4 -6 -5 -12 -2 -15 2 -3 7 2 10 11 7 17 1 20 -8 4z"/>
<path d="M10273 7100 c-1 -10 6 -25 15 -32 15 -12 16 -11 4 4 -8 9 -11 22 -8
27 4 5 3 12 -2 15 -4 2 -8 -4 -9 -14z"/>
<path d="M10855 7110 c3 -5 8 -10 11 -10 2 0 4 5 4 10 0 6 -5 10 -11 10 -5 0
-7 -4 -4 -10z"/>
<path d="M10915 7110 c3 -5 8 -10 11 -10 2 0 4 5 4 10 0 6 -5 10 -11 10 -5 0
-7 -4 -4 -10z"/>
<path d="M10214 7099 c-3 -6 -2 -15 3 -20 5 -5 9 -1 9 11 0 23 -2 24 -12 9z"/>
<path d="M3910 7091 c0 -6 4 -13 10 -16 6 -3 7 1 4 9 -7 18 -14 21 -14 7z"/>
<path d="M10059 7083 c-13 -16 -12 -17 4 -4 16 13 21 21 13 21 -2 0 -10 -8
-17 -17z"/>
<path d="M10173 7085 c0 -8 4 -12 9 -9 4 3 8 9 8 15 0 5 -4 9 -8 9 -5 0 -9 -7
-9 -15z"/>
<path d="M695 7081 c-3 -5 -2 -12 3 -15 5 -3 9 1 9 9 0 17 -3 19 -12 6z"/>
<path d="M3255 7081 c-3 -5 -2 -12 3 -15 5 -3 9 1 9 9 0 17 -3 19 -12 6z"/>
<path d="M5870 7086 c0 -2 8 -10 18 -17 15 -13 16 -12 3 4 -13 16 -21 21 -21
13z"/>
<path d="M6715 7079 c-4 -6 -5 -12 -2 -15 2 -3 7 2 10 11 7 17 1 20 -8 4z"/>
<path d="M5176 7068 c3 -5 10 -6 15 -3 13 9 11 12 -6 12 -8 0 -12 -4 -9 -9z"/>
<path d="M5799 7063 c-13 -16 -12 -17 4 -4 16 13 21 21 13 21 -2 0 -10 -8 -17
-17z"/>
<path d="M5946 7072 c-3 -5 1 -9 9 -9 8 0 15 4 15 9 0 4 -4 8 -9 8 -6 0 -12
-4 -15 -8z"/>
<path d="M9413 7065 c0 -8 4 -12 9 -9 5 3 6 10 3 15 -9 13 -12 11 -12 -6z"/>
<path d="M10076 7071 c-3 -4 4 -17 17 -27 22 -19 22 -19 4 2 -9 11 -14 24 -10
27 3 4 4 7 0 7 -3 0 -8 -4 -11 -9z"/>
<path d="M10118 7055 c9 -11 18 -21 18 -23 1 -2 1 7 1 20 -1 15 -8 24 -19 24
-16 0 -16 -1 0 -21z"/>
<path d="M10936 7068 c3 -5 10 -6 15 -3 13 9 11 12 -6 12 -8 0 -12 -4 -9 -9z"/>
<path d="M5830 7050 c0 -5 5 -10 11 -10 5 0 7 5 4 10 -3 6 -8 10 -11 10 -2 0
-4 -4 -4 -10z"/>
<path d="M5993 7043 c0 -9 4 -10 14 -2 7 6 13 12 13 14 0 1 -6 2 -13 2 -8 0
-14 -6 -14 -14z"/>
<path d="M10190 7055 c0 -7 30 -13 34 -7 3 4 -4 9 -15 9 -10 1 -19 0 -19 -2z"/>
<path d="M10800 7050 c-9 -6 -10 -10 -3 -10 6 0 15 5 18 10 8 12 4 12 -15 0z"/>
<path d="M670 7029 c0 -5 5 -7 10 -4 6 3 10 8 10 11 0 2 -4 4 -10 4 -5 0 -10
-5 -10 -11z"/>
<path d="M3275 7030 c3 -5 8 -10 11 -10 2 0 4 5 4 10 0 6 -5 10 -11 10 -5 0
-7 -4 -4 -10z"/>
<path d="M3874 7032 c4 -3 14 -7 22 -8 9 -1 13 0 10 4 -4 3 -14 7 -22 8 -9 1
-13 0 -10 -4z"/>
<path d="M5175 7030 c3 -5 8 -10 11 -10 2 0 4 5 4 10 0 6 -5 10 -11 10 -5 0
-7 -4 -4 -10z"/>
<path d="M5917 7018 c19 -21 31 -25 14 -5 -6 8 -9 16 -6 19 3 2 -2 5 -10 5
-13 0 -13 -3 2 -19z"/>
<path d="M9416 7032 c-3 -5 1 -9 9 -9 8 0 12 4 9 9 -3 4 -7 8 -9 8 -2 0 -6 -4
-9 -8z"/>
<path d="M10160 7025 c-7 -8 -16 -13 -19 -10 -4 2 -8 -1 -8 -8 0 -7 8 -13 18
-13 10 0 15 4 12 9 -2 4 1 14 7 22 7 8 10 15 7 15 -2 0 -10 -7 -17 -15z"/>
<path d="M5859 7017 c8 -9 16 -15 19 -12 3 3 12 -1 21 -8 14 -11 14 -10 2 6
-8 9 -16 15 -19 12 -3 -3 -12 1 -21 8 -14 11 -14 10 -2 -6z"/>
<path d="M626 7012 c-3 -5 1 -9 9 -9 8 0 12 4 9 9 -3 4 -7 8 -9 8 -2 0 -6 -4
-9 -8z"/>
<path d="M3896 6988 c3 -5 10 -6 15 -3 13 9 11 12 -6 12 -8 0 -12 -4 -9 -9z"/>
<path d="M6694 6986 c1 -8 5 -18 8 -22 4 -3 5 1 4 10 -1 8 -5 18 -8 22 -4 3
-5 -1 -4 -10z"/>
<path d="M5838 6983 c7 -3 16 -2 19 1 4 3 -2 6 -13 5 -11 0 -14 -3 -6 -6z"/>
<path d="M1330 6970 c0 -5 5 -10 11 -10 5 0 7 5 4 10 -3 6 -8 10 -11 10 -2 0
-4 -4 -4 -10z"/>
<path d="M10856 6972 c-3 -5 1 -9 9 -9 8 0 12 4 9 9 -3 4 -7 8 -9 8 -2 0 -6
-4 -9 -8z"/>
<path d="M3253 6953 c4 -3 1 -13 -6 -22 -11 -14 -10 -14 5 -2 16 12 16 31 1
31 -4 0 -3 -3 0 -7z"/>
<path d="M10935 6950 c-3 -5 -1 -10 4 -10 6 0 11 5 11 10 0 6 -2 10 -4 10 -3
0 -8 -4 -11 -10z"/>
<path d="M695 6921 c-3 -5 -2 -12 3 -15 5 -3 9 1 9 9 0 17 -3 19 -12 6z"/>
<path d="M6735 6911 c-3 -5 -2 -12 3 -15 5 -3 9 1 9 9 0 17 -3 19 -12 6z"/>
<path d="M9353 6895 c0 -8 4 -12 9 -9 5 3 6 10 3 15 -9 13 -12 11 -12 -6z"/>
<path d="M673 6875 c0 -8 4 -12 9 -9 5 3 6 10 3 15 -9 13 -12 11 -12 -6z"/>
<path d="M3253 6873 c4 -3 1 -13 -6 -22 -11 -14 -10 -14 5 -2 16 12 16 31 1
31 -4 0 -3 -3 0 -7z"/>
<path d="M6720 6870 c-12 -7 -10 -9 7 -7 12 0 19 5 17 9 -6 10 -6 10 -24 -2z"/>
<path d="M6775 6869 c-3 -4 2 -6 10 -5 21 3 28 13 10 13 -9 0 -18 -4 -20 -8z"/>
<path d="M11013 6873 c4 -3 1 -13 -6 -22 -11 -14 -10 -14 5 -2 16 12 16 31 1
31 -4 0 -3 -3 0 -7z"/>
<path d="M11035 6829 c-3 -4 2 -6 10 -5 21 3 28 13 10 13 -9 0 -18 -4 -20 -8z"/>
<path d="M715 6811 c-3 -5 -2 -12 3 -15 5 -3 9 1 9 9 0 17 -3 19 -12 6z"/>
<path d="M3254 6806 c1 -8 5 -18 8 -22 4 -3 5 1 4 10 -1 8 -5 18 -8 22 -4 3
-5 -1 -4 -10z"/>
<path d="M9417 6805 c-4 -8 -3 -16 1 -19 4 -3 9 4 9 15 2 23 -3 25 -10 4z"/>
<path d="M5175 6790 c3 -5 8 -10 11 -10 2 0 4 5 4 10 0 6 -5 10 -11 10 -5 0
-7 -4 -4 -10z"/>
<path d="M640 6770 c-9 -6 -10 -10 -3 -10 6 0 15 5 18 10 8 12 4 12 -15 0z"/>
<path d="M11306 6772 c-3 -5 1 -9 9 -9 8 0 12 4 9 9 -3 4 -7 8 -9 8 -2 0 -6
-4 -9 -8z"/>
<path d="M695 6750 c-3 -5 -1 -10 4 -10 6 0 11 5 11 10 0 6 -2 10 -4 10 -3 0
-8 -4 -11 -10z"/>
<path d="M5173 6745 c0 -8 4 -12 9 -9 5 3 6 10 3 15 -9 13 -12 11 -12 -6z"/>
<path d="M11050 6750 c0 -5 5 -10 11 -10 5 0 7 5 4 10 -3 6 -8 10 -11 10 -2 0
-4 -4 -4 -10z"/>
<path d="M11099 6758 c-5 -18 -6 -38 -1 -34 7 8 12 36 6 36 -2 0 -4 -1 -5 -2z"/>
<path d="M5856 6737 c3 -10 9 -15 12 -12 3 3 0 11 -7 18 -10 9 -11 8 -5 -6z"/>
<path d="M10053 6735 c0 -8 5 -11 10 -8 6 4 8 0 4 -9 -6 -17 16 -19 30 -3 5 4
2 5 -6 0 -11 -6 -13 -4 -7 11 4 10 4 15 0 11 -4 -4 -12 -2 -19 3 -8 7 -12 5
-12 -5z"/>
<path d="M5776 6728 c3 -4 11 -5 19 -1 21 7 19 12 -4 10 -11 0 -18 -5 -15 -9z"/>
<path d="M5953 6723 c0 -11 7 -20 14 -20 10 0 10 4 1 16 -7 9 -13 18 -15 20
-1 2 -1 -5 0 -16z"/>
<path d="M10139 6723 c-13 -16 -12 -17 4 -4 9 7 17 15 17 17 0 8 -8 3 -21 -13z"/>
<path d="M10193 6725 c0 -8 4 -12 9 -9 5 3 6 10 3 15 -9 13 -12 11 -12 -6z"/>
<path d="M3256 6712 c-3 -4 4 -9 15 -9 23 -2 25 3 4 10 -8 4 -16 3 -19 -1z"/>
<path d="M3866 6712 c-3 -5 1 -9 9 -9 8 0 12 4 9 9 -3 4 -7 8 -9 8 -2 0 -6 -4
-9 -8z"/>
<path d="M5115 6710 c3 -5 8 -10 11 -10 2 0 4 5 4 10 0 6 -5 10 -11 10 -5 0
-7 -4 -4 -10z"/>
<path d="M5175 6710 c-3 -5 -1 -10 4 -10 6 0 11 5 11 10 0 6 -2 10 -4 10 -3 0
-8 -4 -11 -10z"/>
<path d="M5804 6705 c-4 -8 -10 -13 -14 -10 -14 9 -23 -16 -11 -28 9 -9 10 -7
5 8 -7 20 -7 20 17 0 13 -11 19 -13 12 -6 -8 10 -9 20 -2 33 5 10 7 18 4 18
-3 0 -8 -7 -11 -15z"/>
<path d="M6876 6703 c-6 -14 -5 -15 5 -6 7 7 10 15 7 18 -3 3 -9 -2 -12 -12z"/>
<path d="M9416 6708 c3 -5 10 -6 15 -3 13 9 11 12 -6 12 -8 0 -12 -4 -9 -9z"/>
<path d="M10159 6703 c-13 -16 -12 -17 4 -4 16 13 21 21 13 21 -2 0 -10 -8
-17 -17z"/>
<path d="M5854 6699 c-3 -6 -2 -15 3 -20 5 -5 9 -1 9 11 0 23 -2 24 -12 9z"/>
<path d="M10214 6699 c-3 -6 -2 -15 3 -20 5 -5 9 -1 9 11 0 23 -2 24 -12 9z"/>
<path d="M1329 6687 c6 -8 7 -18 3 -22 -4 -5 -1 -5 6 -1 10 6 10 11 1 22 -6 8
-14 14 -16 14 -3 0 0 -6 6 -13z"/>
<path d="M10114 6674 c0 -20 11 -25 11 -6 0 4 3 12 7 18 4 6 1 11 -5 11 -7 0
-13 -11 -13 -23z"/>
<path d="M5914 6679 c-3 -6 4 -21 17 -33 l23 -21 -18 22 c-10 12 -15 27 -11
32 3 6 4 11 1 11 -3 0 -8 -5 -12 -11z"/>
<path d="M674 6672 c4 -3 14 -7 22 -8 9 -1 13 0 10 4 -4 3 -14 7 -22 8 -9 1
-13 0 -10 -4z"/>
<path d="M5994 6658 l-19 -23 23 19 c21 18 27 26 19 26 -2 0 -12 -10 -23 -22z"/>
<path d="M6039 6678 c-6 -21 -5 -38 1 -38 5 0 8 9 7 20 -1 17 -5 26 -8 18z"/>
<path d="M6950 6671 c0 -6 4 -13 10 -16 6 -3 7 1 4 9 -7 18 -14 21 -14 7z"/>
<path d="M10039 6678 c-5 -18 -6 -38 -1 -34 7 8 12 36 6 36 -2 0 -4 -1 -5 -2z"/>
<path d="M5116 6657 c3 -10 9 -15 12 -12 3 3 0 11 -7 18 -10 9 -11 8 -5 -6z"/>
<path d="M5877 6645 c-4 -8 -3 -16 1 -19 4 -3 9 4 9 15 2 23 -3 25 -10 4z"/>
<path d="M10059 6643 c-13 -16 -12 -17 4 -4 16 13 21 21 13 21 -2 0 -10 -8
-17 -17z"/>
<path d="M10206 6652 c-3 -5 1 -9 9 -9 8 0 12 4 9 9 -3 4 -7 8 -9 8 -2 0 -6
-4 -9 -8z"/>
<path d="M11190 6649 c0 -5 5 -7 10 -4 6 3 10 8 10 11 0 2 -4 4 -10 4 -5 0
-10 -5 -10 -11z"/>
<path d="M3230 6635 c0 -7 30 -13 34 -7 3 4 -4 9 -15 9 -10 1 -19 0 -19 -2z"/>
<path d="M3895 6631 c-3 -5 -2 -12 3 -15 5 -3 9 1 9 9 0 17 -3 19 -12 6z"/>
<path d="M5170 6630 c0 -5 5 -10 11 -10 5 0 7 5 4 10 -3 6 -8 10 -11 10 -2 0
-4 -4 -4 -10z"/>
<path d="M5793 6619 c-1 -10 6 -24 15 -31 15 -12 16 -11 3 5 -10 12 -11 20 -2
30 8 10 7 14 -2 14 -7 0 -14 -8 -14 -18z"/>
<path d="M5830 6636 c0 -2 7 -7 16 -10 8 -3 12 -2 9 4 -6 10 -25 14 -25 6z"/>
<path d="M11216 6628 c3 -4 11 -5 19 -1 21 7 19 12 -4 10 -11 0 -18 -5 -15 -9z"/>
<path d="M5772 6610 c0 -14 2 -19 5 -12 2 6 2 18 0 25 -3 6 -5 1 -5 -13z"/>
<path d="M5973 6615 c0 -8 4 -12 9 -9 5 3 6 10 3 15 -9 13 -12 11 -12 -6z"/>
<path d="M5926 6612 c-3 -5 1 -9 9 -9 8 0 12 4 9 9 -3 4 -7 8 -9 8 -2 0 -6 -4
-9 -8z"/>
<path d="M7156 6603 c-6 -14 -5 -15 5 -6 7 7 10 15 7 18 -3 3 -9 -2 -12 -12z"/>
<path d="M10240 6610 c-9 -6 -10 -10 -3 -10 6 0 15 5 18 10 8 12 4 12 -15 0z"/>
<path d="M10350 6611 c0 -6 4 -13 10 -16 6 -3 7 1 4 9 -7 18 -14 21 -14 7z"/>
<path d="M11187 6609 c7 -7 15 -10 18 -7 3 3 -2 9 -12 12 -14 6 -15 5 -6 -5z"/>
<path d="M1295 6590 c3 -5 8 -10 11 -10 2 0 4 5 4 10 0 6 -5 10 -11 10 -5 0
-7 -4 -4 -10z"/>
<path d="M5176 6592 c-3 -5 1 -9 9 -9 8 0 12 4 9 9 -3 4 -7 8 -9 8 -2 0 -6 -4
-9 -8z"/>
<path d="M5873 6585 c0 -8 4 -12 9 -9 5 3 6 10 3 15 -9 13 -12 11 -12 -6z"/>
<path d="M5900 6596 c0 -2 8 -10 18 -17 15 -13 16 -12 3 4 -13 16 -21 21 -21
13z"/>
<path d="M10065 6589 c-3 -4 2 -6 10 -5 21 3 28 13 10 13 -9 0 -18 -4 -20 -8z"/>
<path d="M660 6570 c-8 -5 -10 -10 -5 -10 6 0 17 5 25 10 8 5 11 10 5 10 -5 0
-17 -5 -25 -10z"/>
<path d="M5773 6563 c0 -9 4 -10 14 -2 7 6 13 12 13 14 0 1 -6 2 -13 2 -8 0
-14 -6 -14 -14z"/>
<path d="M11435 6570 c3 -5 8 -10 11 -10 2 0 4 5 4 10 0 6 -5 10 -11 10 -5 0
-7 -4 -4 -10z"/>
<path d="M1295 6550 c-3 -5 -1 -10 4 -10 6 0 11 5 11 10 0 6 -2 10 -4 10 -3 0
-8 -4 -11 -10z"/>
<path d="M5800 6550 c-9 -6 -10 -10 -3 -10 6 0 15 5 18 10 8 12 4 12 -15 0z"/>
<path d="M10119 6558 c-4 -13 -4 -66 0 -62 6 6 10 64 5 64 -2 0 -4 -1 -5 -2z"/>
<path d="M10153 6539 c-2 -23 3 -25 10 -4 4 8 3 16 -1 19 -4 3 -9 -4 -9 -15z"/>
<path d="M10049 6533 c-13 -16 -12 -17 4 -4 9 7 17 15 17 17 0 8 -8 3 -21 -13z"/>
<path d="M5156 6528 c3 -5 10 -6 15 -3 13 9 11 12 -6 12 -8 0 -12 -4 -9 -9z"/>
<path d="M5876 6523 c-6 -14 -5 -15 5 -6 7 7 10 15 7 18 -3 3 -9 -2 -12 -12z"/>
<path d="M699 6518 c-5 -18 -6 -38 -1 -34 7 8 12 36 6 36 -2 0 -4 -1 -5 -2z"/>
<path d="M6095 6510 c-3 -5 -1 -10 4 -10 6 0 11 5 11 10 0 6 -2 10 -4 10 -3 0
-8 -4 -11 -10z"/>
<path d="M7056 6508 c3 -5 10 -6 15 -3 13 9 11 12 -6 12 -8 0 -12 -4 -9 -9z"/>
<path d="M10255 6510 c3 -5 8 -10 11 -10 2 0 4 5 4 10 0 6 -5 10 -11 10 -5 0
-7 -4 -4 -10z"/>
<path d="M10295 6510 c3 -5 8 -10 11 -10 2 0 4 5 4 10 0 6 -5 10 -11 10 -5 0
-7 -4 -4 -10z"/>
<path d="M10410 6509 c0 -5 5 -7 10 -4 6 3 10 8 10 11 0 2 -4 4 -10 4 -5 0
-10 -5 -10 -11z"/>
<path d="M11315 6510 c-3 -5 -1 -10 4 -10 6 0 11 5 11 10 0 6 -2 10 -4 10 -3
0 -8 -4 -11 -10z"/>
<path d="M5772 6490 c0 -14 2 -19 5 -12 2 6 2 18 0 25 -3 6 -5 1 -5 -13z"/>
<path d="M7155 6499 c-4 -6 -5 -12 -2 -15 2 -3 7 2 10 11 7 17 1 20 -8 4z"/>
<path d="M3211 6497 c2 -1 13 -9 24 -17 19 -14 19 -14 6 3 -7 9 -18 17 -24 17
-6 0 -8 -1 -6 -3z"/>
<path d="M5866 6488 c3 -5 10 -6 15 -3 13 9 11 12 -6 12 -8 0 -12 -4 -9 -9z"/>
<path d="M5990 6491 c0 -6 4 -13 10 -16 6 -3 7 1 4 9 -7 18 -14 21 -14 7z"/>
<path d="M6266 6492 c-3 -5 1 -9 9 -9 8 0 12 4 9 9 -3 4 -7 8 -9 8 -2 0 -6 -4
-9 -8z"/>
<path d="M635 6481 c-3 -5 -2 -12 3 -15 5 -3 9 1 9 9 0 17 -3 19 -12 6z"/>
<path d="M11395 6479 c-4 -6 -5 -12 -2 -15 2 -3 7 2 10 11 7 17 1 20 -8 4z"/>
<path d="M6215 6470 c3 -5 8 -10 11 -10 2 0 4 5 4 10 0 6 -5 10 -11 10 -5 0
-7 -4 -4 -10z"/>
<path d="M10030 6468 c0 -4 4 -8 9 -8 6 0 12 4 15 8 3 5 -1 9 -9 9 -8 0 -15
-4 -15 -9z"/>
<path d="M10255 6469 c-3 -4 2 -6 10 -5 21 3 28 13 10 13 -9 0 -18 -4 -20 -8z"/>
<path d="M10450 6469 c0 -5 5 -7 10 -4 6 3 10 8 10 11 0 2 -4 4 -10 4 -5 0
-10 -5 -10 -11z"/>
<path d="M6276 6457 c3 -10 9 -15 12 -12 3 3 0 11 -7 18 -10 9 -11 8 -5 -6z"/>
<path d="M5140 6450 c-9 -6 -10 -10 -3 -10 6 0 15 5 18 10 8 12 4 12 -15 0z"/>
<path d="M5870 6456 c0 -2 7 -7 16 -10 8 -3 12 -2 9 4 -6 10 -25 14 -25 6z"/>
<path d="M675 6429 c-3 -4 2 -6 10 -5 21 3 28 13 10 13 -9 0 -18 -4 -20 -8z"/>
<path d="M5920 6430 c-12 -7 -10 -9 7 -7 12 0 19 5 17 9 -6 10 -6 10 -24 -2z"/>
<path d="M7134 6426 c1 -8 5 -18 8 -22 4 -3 5 1 4 10 -1 8 -5 18 -8 22 -4 3
-5 -1 -4 -10z"/>
<path d="M9395 6429 c-3 -4 2 -6 10 -5 21 3 28 13 10 13 -9 0 -18 -4 -20 -8z"/>
<path d="M10029 6413 c-13 -16 -12 -17 4 -4 9 7 17 15 17 17 0 8 -8 3 -21 -13z"/>
<path d="M10155 6421 c-3 -5 -2 -12 3 -15 5 -3 9 1 9 9 0 17 -3 19 -12 6z"/>
<path d="M5967 6409 c7 -7 15 -10 18 -7 3 3 -2 9 -12 12 -14 6 -15 5 -6 -5z"/>
<path d="M10416 6412 c-3 -5 1 -9 9 -9 8 0 12 4 9 9 -3 4 -7 8 -9 8 -2 0 -6
-4 -9 -8z"/>
<path d="M10495 6410 c-3 -5 -1 -10 4 -10 6 0 11 5 11 10 0 6 -2 10 -4 10 -3
0 -8 -4 -11 -10z"/>
<path d="M7195 6399 c-4 -6 -5 -12 -2 -15 2 -3 7 2 10 11 7 17 1 20 -8 4z"/>
<path d="M3246 6392 c-3 -5 1 -9 9 -9 8 0 12 4 9 9 -3 4 -7 8 -9 8 -2 0 -6 -4
-9 -8z"/>
<path d="M3866 6392 c-3 -5 1 -9 9 -9 8 0 12 4 9 9 -3 4 -7 8 -9 8 -2 0 -6 -4
-9 -8z"/>
<path d="M5895 6390 c-3 -5 -1 -10 4 -10 6 0 11 5 11 10 0 6 -2 10 -4 10 -3 0
-8 -4 -11 -10z"/>
<path d="M6275 6389 c-3 -4 2 -6 10 -5 21 3 28 13 10 13 -9 0 -18 -4 -20 -8z"/>
<path d="M9270 6389 c0 -5 5 -7 10 -4 6 3 10 8 10 11 0 2 -4 4 -10 4 -5 0 -10
-5 -10 -11z"/>
<path d="M10195 6390 c3 -5 8 -10 11 -10 2 0 4 5 4 10 0 6 -5 10 -11 10 -5 0
-7 -4 -4 -10z"/>
<path d="M7310 6386 c0 -2 8 -10 18 -17 15 -13 16 -12 3 4 -13 16 -21 21 -21
13z"/>
<path d="M10110 6386 c0 -2 8 -10 18 -17 15 -13 16 -12 3 4 -13 16 -21 21 -21
13z"/>
<path d="M5130 6376 c0 -2 7 -7 16 -10 8 -3 12 -2 9 4 -6 10 -25 14 -25 6z"/>
<path d="M9305 6370 c-3 -6 1 -7 9 -4 18 7 21 14 7 14 -6 0 -13 -4 -16 -10z"/>
<path d="M6315 6349 c-3 -4 2 -6 10 -5 21 3 28 13 10 13 -9 0 -18 -4 -20 -8z"/>
<path d="M10616 6348 c3 -4 11 -5 19 -1 21 7 19 12 -4 10 -11 0 -18 -5 -15 -9z"/>
<path d="M3226 6335 c-11 -8 -15 -15 -9 -15 6 0 16 7 23 15 16 19 11 19 -14 0z"/>
<path d="M715 6331 c-3 -5 -2 -12 3 -15 5 -3 9 1 9 9 0 17 -3 19 -12 6z"/>
<path d="M6376 6332 c-2 -4 -1 -14 4 -22 7 -11 9 -9 7 8 -1 24 -3 26 -11 14z"/>
<path d="M5810 6310 c0 -5 5 -10 11 -10 5 0 7 5 4 10 -3 6 -8 10 -11 10 -2 0
-4 -4 -4 -10z"/>
<path d="M6410 6309 c0 -5 5 -7 10 -4 6 3 10 8 10 11 0 2 -4 4 -10 4 -5 0 -10
-5 -10 -11z"/>
<path d="M10655 6310 c-3 -5 -1 -10 4 -10 6 0 11 5 11 10 0 6 -2 10 -4 10 -3
0 -8 -4 -11 -10z"/>
<path d="M11499 6318 c-5 -18 -6 -38 -1 -34 7 8 12 36 6 36 -2 0 -4 -1 -5 -2z"/>
<path d="M3254 6266 c1 -8 5 -18 8 -22 4 -3 5 1 4 10 -1 8 -5 18 -8 22 -4 3
-5 -1 -4 -10z"/>
<path d="M6419 6278 c-5 -18 -6 -38 -1 -34 7 8 12 36 6 36 -2 0 -4 -1 -5 -2z"/>
<path d="M7234 6272 c4 -3 14 -7 22 -8 9 -1 13 0 10 4 -4 3 -14 7 -22 8 -9 1
-13 0 -10 -4z"/>
<path d="M10756 6257 c3 -10 9 -15 12 -12 3 3 0 11 -7 18 -10 9 -11 8 -5 -6z"/>
<path d="M1316 6248 c3 -5 10 -6 15 -3 13 9 11 12 -6 12 -8 0 -12 -4 -9 -9z"/>
<path d="M5855 6250 c3 -5 8 -10 11 -10 2 0 4 5 4 10 0 6 -5 10 -11 10 -5 0
-7 -4 -4 -10z"/>
<path d="M9414 6246 c1 -8 5 -18 8 -22 4 -3 5 1 4 10 -1 8 -5 18 -8 22 -4 3
-5 -1 -4 -10z"/>
<path d="M10310 6251 c0 -6 4 -13 10 -16 6 -3 7 1 4 9 -7 18 -14 21 -14 7z"/>
<path d="M696 6232 c-3 -4 4 -9 15 -9 23 -2 25 3 4 10 -8 4 -16 3 -19 -1z"/>
<path d="M5176 6228 c3 -5 10 -6 15 -3 13 9 11 12 -6 12 -8 0 -12 -4 -9 -9z"/>
<path d="M6495 6230 c-3 -5 -1 -10 4 -10 6 0 11 5 11 10 0 6 -2 10 -4 10 -3 0
-8 -4 -11 -10z"/>
<path d="M7295 6229 c-3 -4 2 -6 10 -5 21 3 28 13 10 13 -9 0 -18 -4 -20 -8z"/>
<path d="M5875 6221 c-3 -5 -2 -12 3 -15 5 -3 9 1 9 9 0 17 -3 19 -12 6z"/>
<path d="M696 6188 c3 -4 11 -5 19 -1 21 7 19 12 -4 10 -11 0 -18 -5 -15 -9z"/>
<path d="M5806 6192 c-3 -5 1 -9 9 -9 8 0 12 4 9 9 -3 4 -7 8 -9 8 -2 0 -6 -4
-9 -8z"/>
<path d="M9419 6198 c-5 -18 -6 -38 -1 -34 7 8 12 36 6 36 -2 0 -4 -1 -5 -2z"/>
<path d="M10070 6195 c0 -7 30 -13 34 -7 3 4 -4 9 -15 9 -10 1 -19 0 -19 -2z"/>
<path d="M3254 6166 c1 -8 5 -18 8 -22 4 -3 5 1 4 10 -1 8 -5 18 -8 22 -4 3
-5 -1 -4 -10z"/>
<path d="M6573 6161 c0 -11 5 -18 9 -15 4 3 5 11 1 19 -7 21 -12 19 -10 -4z"/>
<path d="M10814 6166 c1 -8 5 -18 8 -22 4 -3 5 1 4 10 -1 8 -5 18 -8 22 -4 3
-5 -1 -4 -10z"/>
<path d="M9267 6149 c7 -7 15 -10 18 -7 3 3 -2 9 -12 12 -14 6 -15 5 -6 -5z"/>
<path d="M11635 6150 c3 -5 8 -10 11 -10 2 0 4 5 4 10 0 6 -5 10 -11 10 -5 0
-7 -4 -4 -10z"/>
<path d="M5136 6128 c3 -5 10 -6 15 -3 13 9 11 12 -6 12 -8 0 -12 -4 -9 -9z"/>
<path d="M5830 6136 c0 -2 7 -7 16 -10 8 -3 12 -2 9 4 -6 10 -25 14 -25 6z"/>
<path d="M695 6110 c-3 -5 -1 -10 4 -10 6 0 11 5 11 10 0 6 -2 10 -4 10 -3 0
-8 -4 -11 -10z"/>
<path d="M5816 6112 c-3 -5 1 -9 9 -9 8 0 12 4 9 9 -3 4 -7 8 -9 8 -2 0 -6 -4
-9 -8z"/>
<path d="M10094 6106 c1 -8 5 -18 8 -22 4 -3 5 1 4 10 -1 8 -5 18 -8 22 -4 3
-5 -1 -4 -10z"/>
<path d="M10855 6110 c-3 -5 -1 -10 4 -10 6 0 11 5 11 10 0 6 -2 10 -4 10 -3
0 -8 -4 -11 -10z"/>
<path d="M550 6089 c0 -5 5 -7 10 -4 6 3 10 8 10 11 0 2 -4 4 -10 4 -5 0 -10
-5 -10 -11z"/>
<path d="M5136 6092 c-3 -5 1 -9 9 -9 8 0 12 4 9 9 -3 4 -7 8 -9 8 -2 0 -6 -4
-9 -8z"/>
<path d="M3256 6072 c-3 -4 4 -9 15 -9 23 -2 25 3 4 10 -8 4 -16 3 -19 -1z"/>
<path d="M6614 6072 c4 -3 14 -7 22 -8 9 -1 13 0 10 4 -4 3 -14 7 -22 8 -9 1
-13 0 -10 -4z"/>
<path d="M10795 6050 c-3 -5 -1 -10 4 -10 6 0 11 5 11 10 0 6 -2 10 -4 10 -3
0 -8 -4 -11 -10z"/>
<path d="M674 6032 c4 -3 14 -7 22 -8 9 -1 13 0 10 4 -4 3 -14 7 -22 8 -9 1
-13 0 -10 -4z"/>
<path d="M1313 6025 c0 -8 4 -12 9 -9 5 3 6 10 3 15 -9 13 -12 11 -12 -6z"/>
<path d="M6675 6030 c-3 -5 -1 -10 4 -10 6 0 11 5 11 10 0 6 -2 10 -4 10 -3 0
-8 -4 -11 -10z"/>
<path d="M10075 6030 c3 -5 8 -10 11 -10 2 0 4 5 4 10 0 6 -5 10 -11 10 -5 0
-7 -4 -4 -10z"/>
<path d="M10886 6032 c-3 -5 1 -9 9 -9 8 0 12 4 9 9 -3 4 -7 8 -9 8 -2 0 -6
-4 -9 -8z"/>
<path d="M10934 6006 c1 -8 5 -18 8 -22 4 -3 5 1 4 10 -1 8 -5 18 -8 22 -4 3
-5 -1 -4 -10z"/>
<path d="M3235 5989 c-3 -4 2 -6 10 -5 21 3 28 13 10 13 -9 0 -18 -4 -20 -8z"/>
<path d="M5816 5992 c-3 -5 1 -9 9 -9 8 0 12 4 9 9 -3 4 -7 8 -9 8 -2 0 -6 -4
-9 -8z"/>
<path d="M9406 5992 c-3 -5 1 -9 9 -9 8 0 12 4 9 9 -3 4 -7 8 -9 8 -2 0 -6 -4
-9 -8z"/>
<path d="M9354 5979 c-3 -6 -2 -15 3 -20 5 -5 9 -1 9 11 0 23 -2 24 -12 9z"/>
<path d="M5140 5970 c-9 -6 -10 -10 -3 -10 6 0 15 5 18 10 8 12 4 12 -15 0z"/>
<path d="M10059 5978 c-5 -18 -6 -38 -1 -34 7 8 12 36 6 36 -2 0 -4 -1 -5 -2z"/>
<path d="M6680 5950 c-12 -7 -10 -9 7 -7 12 0 19 5 17 9 -6 10 -6 10 -24 -2z"/>
<path d="M11766 5948 c3 -5 10 -6 15 -3 13 9 11 12 -6 12 -8 0 -12 -4 -9 -9z"/>
<path d="M660 5930 c-8 -5 -10 -10 -5 -10 6 0 17 5 25 10 8 5 11 10 5 10 -5 0
-17 -5 -25 -10z"/>
<path d="M5190 5930 c0 -5 5 -10 11 -10 5 0 7 5 4 10 -3 6 -8 10 -11 10 -2 0
-4 -4 -4 -10z"/>
<path d="M6715 5931 c-3 -5 -2 -12 3 -15 5 -3 9 1 9 9 0 17 -3 19 -12 6z"/>
<path d="M3893 5905 c0 -8 4 -12 9 -9 5 3 6 10 3 15 -9 13 -12 11 -12 -6z"/>
<path d="M6776 5912 c-2 -4 -1 -14 4 -22 7 -11 9 -9 7 8 -1 24 -3 26 -11 14z"/>
<path d="M7555 5910 c-3 -5 -1 -10 4 -10 6 0 11 5 11 10 0 6 -2 10 -4 10 -3 0
-8 -4 -11 -10z"/>
<path d="M5130 5896 c0 -2 7 -7 16 -10 8 -3 12 -2 9 4 -6 10 -25 14 -25 6z"/>
<path d="M10053 5881 c0 -11 5 -18 9 -15 4 3 5 11 1 19 -7 21 -12 19 -10 -4z"/>
<path d="M699 5878 c-5 -18 -6 -38 -1 -34 7 8 12 36 6 36 -2 0 -4 -1 -5 -2z"/>
<path d="M5816 5868 c3 -5 10 -6 15 -3 13 9 11 12 -6 12 -8 0 -12 -4 -9 -9z"/>
<path d="M6815 5870 c3 -5 8 -10 11 -10 2 0 4 5 4 10 0 6 -5 10 -11 10 -5 0
-7 -4 -4 -10z"/>
<path d="M7570 5869 c0 -5 5 -7 10 -4 6 3 10 8 10 11 0 2 -4 4 -10 4 -5 0 -10
-5 -10 -11z"/>
<path d="M1316 5848 c3 -5 10 -6 15 -3 13 9 11 12 -6 12 -8 0 -12 -4 -9 -9z"/>
<path d="M3275 5840 c-4 -6 -11 -7 -17 -4 -7 4 -8 2 -4 -5 6 -9 11 -9 22 0 14
11 18 19 10 19 -3 0 -8 -5 -11 -10z"/>
<path d="M6853 5835 c0 -8 4 -12 9 -9 5 3 6 10 3 15 -9 13 -12 11 -12 -6z"/>
<path d="M635 5830 c-3 -5 -1 -10 4 -10 6 0 11 5 11 10 0 6 -2 10 -4 10 -3 0
-8 -4 -11 -10z"/>
<path d="M3895 5831 c-3 -5 -2 -12 3 -15 5 -3 9 1 9 9 0 17 -3 19 -12 6z"/>
<path d="M10866 5832 c-3 -5 1 -9 9 -9 8 0 12 4 9 9 -3 4 -7 8 -9 8 -2 0 -6
-4 -9 -8z"/>
<path d="M1433 5805 c0 -8 4 -12 9 -9 5 3 6 10 3 15 -9 13 -12 11 -12 -6z"/>
<path d="M5784 5812 c4 -3 14 -7 22 -8 9 -1 13 0 10 4 -4 3 -14 7 -22 8 -9 1
-13 0 -10 -4z"/>
<path d="M1333 5795 c0 -8 4 -12 9 -9 5 3 6 10 3 15 -9 13 -12 11 -12 -6z"/>
<path d="M675 5789 c-3 -4 2 -6 10 -5 21 3 28 13 10 13 -9 0 -18 -4 -20 -8z"/>
<path d="M6834 5792 c4 -3 14 -7 22 -8 9 -1 13 0 10 4 -4 3 -14 7 -22 8 -9 1
-13 0 -10 -4z"/>
<path d="M9414 5786 c1 -8 5 -18 8 -22 4 -3 5 1 4 10 -1 8 -5 18 -8 22 -4 3
-5 -1 -4 -10z"/>
<path d="M6875 5770 c-3 -5 -1 -10 4 -10 6 0 11 5 11 10 0 6 -2 10 -4 10 -3 0
-8 -4 -11 -10z"/>
<path d="M9270 5771 c0 -6 4 -13 10 -16 6 -3 7 1 4 9 -7 18 -14 21 -14 7z"/>
<path d="M1339 5758 c-5 -15 -4 -50 1 -53 3 -2 6 9 6 26 0 24 -3 37 -7 27z"/>
<path d="M3250 5749 c0 -5 5 -7 10 -4 6 3 10 8 10 11 0 2 -4 4 -10 4 -5 0 -10
-5 -10 -11z"/>
<path d="M5116 5743 c-6 -14 -5 -15 5 -6 7 7 10 15 7 18 -3 3 -9 -2 -12 -12z"/>
<path d="M5175 5750 c3 -5 8 -10 11 -10 2 0 4 5 4 10 0 6 -5 10 -11 10 -5 0
-7 -4 -4 -10z"/>
<path d="M1296 5737 c3 -10 9 -15 12 -12 3 3 0 11 -7 18 -10 9 -11 8 -5 -6z"/>
<path d="M6893 5721 c0 -11 5 -18 9 -15 4 3 5 11 1 19 -7 21 -12 19 -10 -4z"/>
<path d="M696 5708 c3 -5 10 -6 15 -3 13 9 11 12 -6 12 -8 0 -12 -4 -9 -9z"/>
<path d="M10080 5710 c-12 -7 -10 -9 7 -7 12 0 19 5 17 9 -6 10 -6 10 -24 -2z"/>
<path d="M11154 5712 c4 -3 14 -7 22 -8 9 -1 13 0 10 4 -4 3 -14 7 -22 8 -9 1
-13 0 -10 -4z"/>
<path d="M11979 5718 c-5 -18 -6 -38 -1 -34 7 8 12 36 6 36 -2 0 -4 -1 -5 -2z"/>
<path d="M3257 5685 c-4 -8 -3 -16 1 -19 4 -3 9 4 9 15 2 23 -3 25 -10 4z"/>
<path d="M3905 5690 c-3 -6 1 -7 9 -4 18 7 21 14 7 14 -6 0 -13 -4 -16 -10z"/>
<path d="M11000 5690 c-9 -6 -10 -10 -3 -10 6 0 15 5 18 10 8 12 4 12 -15 0z"/>
<path d="M693 5675 c0 -8 4 -12 9 -9 5 3 6 10 3 15 -9 13 -12 11 -12 -6z"/>
<path d="M3109 5673 c-13 -16 -12 -17 4 -4 16 13 21 21 13 21 -2 0 -10 -8 -17
-17z"/>
<path d="M12013 5675 c0 -8 4 -12 9 -9 5 3 6 10 3 15 -9 13 -12 11 -12 -6z"/>
<path d="M3866 5672 c-3 -5 1 -9 9 -9 8 0 12 4 9 9 -3 4 -7 8 -9 8 -2 0 -6 -4
-9 -8z"/>
<path d="M5170 5669 c0 -5 5 -7 10 -4 6 3 10 8 10 11 0 2 -4 4 -10 4 -5 0 -10
-5 -10 -11z"/>
<path d="M10055 5670 c-3 -5 -1 -10 4 -10 6 0 11 5 11 10 0 6 -2 10 -4 10 -3
0 -8 -4 -11 -10z"/>
<path d="M11216 5668 c3 -5 10 -6 15 -3 13 9 11 12 -6 12 -8 0 -12 -4 -9 -9z"/>
<path d="M3256 5632 c-2 -4 -1 -14 4 -22 7 -11 9 -9 7 8 -1 24 -3 26 -11 14z"/>
<path d="M11215 5629 c-3 -4 2 -6 10 -5 21 3 28 13 10 13 -9 0 -18 -4 -20 -8z"/>
<path d="M1376 5608 c3 -5 10 -6 15 -3 13 9 11 12 -6 12 -8 0 -12 -4 -9 -9z"/>
<path d="M3910 5611 c0 -6 4 -13 10 -16 6 -3 7 1 4 9 -7 18 -14 21 -14 7z"/>
<path d="M5137 5605 c-4 -8 -3 -16 1 -19 4 -3 9 4 9 15 2 23 -3 25 -10 4z"/>
<path d="M5865 5610 c-3 -6 1 -7 9 -4 18 7 21 14 7 14 -6 0 -13 -4 -16 -10z"/>
<path d="M1334 5586 c1 -8 5 -18 8 -22 4 -3 5 1 4 10 -1 8 -5 18 -8 22 -4 3
-5 -1 -4 -10z"/>
<path d="M3870 5589 c0 -5 5 -7 10 -4 6 3 10 8 10 11 0 2 -4 4 -10 4 -5 0 -10
-5 -10 -11z"/>
<path d="M7015 5590 c3 -5 8 -10 11 -10 2 0 4 5 4 10 0 6 -5 10 -11 10 -5 0
-7 -4 -4 -10z"/>
<path d="M9416 5588 c3 -5 10 -6 15 -3 13 9 11 12 -6 12 -8 0 -12 -4 -9 -9z"/>
<path d="M11255 5590 c-3 -5 -1 -10 4 -10 6 0 11 5 11 10 0 6 -2 10 -4 10 -3
0 -8 -4 -11 -10z"/>
<path d="M4976 5577 c3 -10 9 -15 12 -12 3 3 0 11 -7 18 -10 9 -11 8 -5 -6z"/>
<path d="M6870 5569 c0 -5 5 -7 10 -4 6 3 10 8 10 11 0 2 -4 4 -10 4 -5 0 -10
-5 -10 -11z"/>
<path d="M5819 5558 c-5 -18 -6 -38 -1 -34 7 8 12 36 6 36 -2 0 -4 -1 -5 -2z"/>
<path d="M7019 5558 c-5 -18 -6 -38 -1 -34 7 8 12 36 6 36 -2 0 -4 -1 -5 -2z"/>
<path d="M10074 5552 c4 -3 14 -7 22 -8 9 -1 13 0 10 4 -4 3 -14 7 -22 8 -9 1
-13 0 -10 -4z"/>
<path d="M510 5546 c0 -2 8 -10 18 -17 15 -13 16 -12 3 4 -13 16 -21 21 -21
13z"/>
<path d="M4996 5528 c3 -5 10 -6 15 -3 13 9 11 12 -6 12 -8 0 -12 -4 -9 -9z"/>
<path d="M7050 5509 c0 -5 5 -7 10 -4 6 3 10 8 10 11 0 2 -4 4 -10 4 -5 0 -10
-5 -10 -11z"/>
<path d="M7855 5509 c-3 -4 2 -6 10 -5 21 3 28 13 10 13 -9 0 -18 -4 -20 -8z"/>
<path d="M9415 5510 c3 -5 8 -10 11 -10 2 0 4 5 4 10 0 6 -5 10 -11 10 -5 0
-7 -4 -4 -10z"/>
<path d="M1310 5486 c7 -7 13 -7 20 0 6 6 3 10 -10 10 -13 0 -16 -4 -10 -10z"/>
<path d="M5139 5498 c-5 -18 -6 -38 -1 -34 7 8 12 36 6 36 -2 0 -4 -1 -5 -2z"/>
<path d="M7006 5492 c-3 -5 1 -9 9 -9 8 0 12 4 9 9 -3 4 -7 8 -9 8 -2 0 -6 -4
-9 -8z"/>
<path d="M10106 5492 c-3 -5 1 -9 9 -9 8 0 12 4 9 9 -3 4 -7 8 -9 8 -2 0 -6
-4 -9 -8z"/>
<path d="M12155 5490 c3 -5 8 -10 11 -10 2 0 4 5 4 10 0 6 -5 10 -11 10 -5 0
-7 -4 -4 -10z"/>
<path d="M655 5469 c-3 -4 2 -6 10 -5 21 3 28 13 10 13 -9 0 -18 -4 -20 -8z"/>
<path d="M3206 5472 c-3 -5 1 -9 9 -9 8 0 12 4 9 9 -3 4 -7 8 -9 8 -2 0 -6 -4
-9 -8z"/>
<path d="M3890 5470 c0 -5 5 -10 11 -10 5 0 7 5 4 10 -3 6 -8 10 -11 10 -2 0
-4 -4 -4 -10z"/>
<path d="M5170 5469 c0 -5 5 -7 10 -4 6 3 10 8 10 11 0 2 -4 4 -10 4 -5 0 -10
-5 -10 -11z"/>
<path d="M5790 5475 c0 -7 30 -13 34 -7 3 4 -4 9 -15 9 -10 1 -19 0 -19 -2z"/>
<path d="M9415 5470 c-3 -5 -1 -10 4 -10 6 0 11 5 11 10 0 6 -2 10 -4 10 -3 0
-8 -4 -11 -10z"/>
<path d="M12130 5469 c0 -5 5 -7 10 -4 6 3 10 8 10 11 0 2 -4 4 -10 4 -5 0
-10 -5 -10 -11z"/>
<path d="M1334 5446 c1 -8 5 -18 8 -22 4 -3 5 1 4 10 -1 8 -5 18 -8 22 -4 3
-5 -1 -4 -10z"/>
<path d="M3999 5443 c-13 -16 -12 -17 4 -4 9 7 17 15 17 17 0 8 -8 3 -21 -13z"/>
<path d="M11395 5450 c3 -5 8 -10 11 -10 2 0 4 5 4 10 0 6 -5 10 -11 10 -5 0
-7 -4 -4 -10z"/>
<path d="M11355 5440 c-4 -6 -11 -7 -17 -4 -7 4 -8 2 -4 -5 6 -9 11 -9 22 0
14 11 18 19 10 19 -3 0 -8 -5 -11 -10z"/>
<path d="M5135 5430 c-3 -5 -1 -10 4 -10 6 0 11 5 11 10 0 6 -2 10 -4 10 -3 0
-8 -4 -11 -10z"/>
<path d="M5800 5430 c-12 -7 -10 -9 7 -7 12 0 19 5 17 9 -6 10 -6 10 -24 -2z"/>
<path d="M5856 5432 c-3 -5 1 -9 9 -9 8 0 12 4 9 9 -3 4 -7 8 -9 8 -2 0 -6 -4
-9 -8z"/>
<path d="M7056 5432 c-2 -4 -1 -14 4 -22 7 -11 9 -9 7 8 -1 24 -3 26 -11 14z"/>
<path d="M7135 5430 c3 -5 8 -10 11 -10 2 0 4 5 4 10 0 6 -5 10 -11 10 -5 0
-7 -4 -4 -10z"/>
<path d="M7170 5430 c0 -5 5 -10 11 -10 5 0 7 5 4 10 -3 6 -8 10 -11 10 -2 0
-4 -4 -4 -10z"/>
<path d="M7895 5430 c-3 -5 -1 -10 4 -10 6 0 11 5 11 10 0 6 -2 10 -4 10 -3 0
-8 -4 -11 -10z"/>
<path d="M7990 5430 c0 -5 5 -10 11 -10 5 0 7 5 4 10 -3 6 -8 10 -11 10 -2 0
-4 -4 -4 -10z"/>
<path d="M9415 5430 c-3 -5 -1 -10 4 -10 6 0 11 5 11 10 0 6 -2 10 -4 10 -3 0
-8 -4 -11 -10z"/>
<path d="M10086 5432 c-3 -5 1 -9 9 -9 8 0 12 4 9 9 -3 4 -7 8 -9 8 -2 0 -6
-4 -9 -8z"/>
<path d="M3869 5413 c-13 -16 -12 -17 4 -4 16 13 21 21 13 21 -2 0 -10 -8 -17
-17z"/>
<path d="M11435 5421 c-3 -5 -2 -12 3 -15 5 -3 9 1 9 9 0 17 -3 19 -12 6z"/>
<path d="M6993 5405 c0 -8 4 -12 9 -9 5 3 6 10 3 15 -9 13 -12 11 -12 -6z"/>
<path d="M670 5389 c0 -5 5 -7 10 -4 6 3 10 8 10 11 0 2 -4 4 -10 4 -5 0 -10
-5 -10 -11z"/>
<path d="M1339 5398 c-5 -18 -6 -38 -1 -34 7 8 12 36 6 36 -2 0 -4 -1 -5 -2z"/>
<path d="M7934 5392 c4 -3 14 -7 22 -8 9 -1 13 0 10 4 -4 3 -14 7 -22 8 -9 1
-13 0 -10 -4z"/>
<path d="M9415 5390 c-3 -5 -1 -10 4 -10 6 0 11 5 11 10 0 6 -2 10 -4 10 -3 0
-8 -4 -11 -10z"/>
<path d="M11375 5391 c-3 -5 -2 -12 3 -15 5 -3 9 1 9 9 0 17 -3 19 -12 6z"/>
<path d="M3190 5374 c0 -20 27 -37 36 -23 4 7 3 9 -4 5 -6 -3 -15 2 -21 11 -6
10 -11 13 -11 7z"/>
<path d="M7985 5370 c-3 -6 1 -7 9 -4 18 7 21 14 7 14 -6 0 -13 -4 -16 -10z"/>
<path d="M8027 5369 c7 -7 15 -10 18 -7 3 3 -2 9 -12 12 -14 6 -15 5 -6 -5z"/>
<path d="M5094 5346 c1 -8 5 -18 8 -22 4 -3 5 1 4 10 -1 8 -5 18 -8 22 -4 3
-5 -1 -4 -10z"/>
<path d="M5810 5349 c0 -5 5 -7 10 -4 6 3 10 8 10 11 0 2 -4 4 -10 4 -5 0 -10
-5 -10 -11z"/>
<path d="M7233 5345 c0 -8 4 -12 9 -9 5 3 6 10 3 15 -9 13 -12 11 -12 -6z"/>
<path d="M9435 5350 c3 -5 8 -10 11 -10 2 0 4 5 4 10 0 6 -5 10 -11 10 -5 0
-7 -4 -4 -10z"/>
<path d="M11366 5352 c-3 -5 1 -9 9 -9 8 0 12 4 9 9 -3 4 -7 8 -9 8 -2 0 -6
-4 -9 -8z"/>
<path d="M11415 5350 c3 -5 8 -10 11 -10 2 0 4 5 4 10 0 6 -5 10 -11 10 -5 0
-7 -4 -4 -10z"/>
<path d="M11275 5341 c-3 -5 -2 -12 3 -15 5 -3 9 1 9 9 0 17 -3 19 -12 6z"/>
<path d="M3955 5330 c-3 -5 -1 -10 4 -10 6 0 11 5 11 10 0 6 -2 10 -4 10 -3 0
-8 -4 -11 -10z"/>
<path d="M8014 5326 c1 -8 5 -18 8 -22 4 -3 5 1 4 10 -1 8 -5 18 -8 22 -4 3
-5 -1 -4 -10z"/>
<path d="M10106 5332 c-3 -5 1 -9 9 -9 8 0 12 4 9 9 -3 4 -7 8 -9 8 -2 0 -6
-4 -9 -8z"/>
<path d="M3193 5315 c0 -8 4 -12 9 -9 5 3 6 10 3 15 -9 13 -12 11 -12 -6z"/>
<path d="M1390 5311 c0 -6 4 -13 10 -16 6 -3 7 1 4 9 -7 18 -14 21 -14 7z"/>
<path d="M5035 5311 c-3 -5 -2 -12 3 -15 5 -3 9 1 9 9 0 17 -3 19 -12 6z"/>
<path d="M5130 5310 c0 -5 5 -10 11 -10 5 0 7 5 4 10 -3 6 -8 10 -11 10 -2 0
-4 -4 -4 -10z"/>
<path d="M7135 5310 c3 -5 8 -10 11 -10 2 0 4 5 4 10 0 6 -5 10 -11 10 -5 0
-7 -4 -4 -10z"/>
<path d="M1306 5288 c3 -5 10 -6 15 -3 13 9 11 12 -6 12 -8 0 -12 -4 -9 -9z"/>
<path d="M3226 5288 c3 -5 10 -6 15 -3 13 9 11 12 -6 12 -8 0 -12 -4 -9 -9z"/>
<path d="M3939 5298 c-5 -18 -6 -38 -1 -34 7 8 12 36 6 36 -2 0 -4 -1 -5 -2z"/>
<path d="M7220 5296 c0 -2 8 -10 18 -17 15 -13 16 -12 3 4 -13 16 -21 21 -21
13z"/>
<path d="M8120 5290 c-9 -6 -10 -10 -3 -10 6 0 15 5 18 10 8 12 4 12 -15 0z"/>
<path d="M8427 5289 c7 -7 15 -10 18 -7 3 3 -2 9 -12 12 -14 6 -15 5 -6 -5z"/>
<path d="M9396 5283 c-6 -14 -5 -15 5 -6 7 7 10 15 7 18 -3 3 -9 -2 -12 -12z"/>
<path d="M5875 5281 c-3 -5 -2 -12 3 -15 5 -3 9 1 9 9 0 17 -3 19 -12 6z"/>
<path d="M9333 5273 c4 -3 1 -13 -6 -22 -11 -14 -10 -14 5 -2 16 12 16 31 1
31 -4 0 -3 -3 0 -7z"/>
<path d="M1370 5250 c0 -5 5 -10 11 -10 5 0 7 5 4 10 -3 6 -8 10 -11 10 -2 0
-4 -4 -4 -10z"/>
<path d="M11413 5241 c0 -11 5 -18 9 -15 4 3 5 11 1 19 -7 21 -12 19 -10 -4z"/>
<path d="M650 5235 c0 -7 30 -13 34 -7 3 4 -4 9 -15 9 -10 1 -19 0 -19 -2z"/>
<path d="M3200 5230 c-12 -7 -10 -9 7 -7 12 0 19 5 17 9 -6 10 -6 10 -24 -2z"/>
<path d="M7175 5230 c3 -5 8 -10 11 -10 2 0 4 5 4 10 0 6 -5 10 -11 10 -5 0
-7 -4 -4 -10z"/>
<path d="M9395 5230 c3 -5 8 -10 11 -10 2 0 4 5 4 10 0 6 -5 10 -11 10 -5 0
-7 -4 -4 -10z"/>
<path d="M6955 5210 c-3 -5 -1 -10 4 -10 6 0 11 5 11 10 0 6 -2 10 -4 10 -3 0
-8 -4 -11 -10z"/>
<path d="M7215 5190 c3 -5 8 -10 11 -10 2 0 4 5 4 10 0 6 -5 10 -11 10 -5 0
-7 -4 -4 -10z"/>
<path d="M1420 5176 c0 -2 8 -10 18 -17 15 -13 16 -12 3 4 -13 16 -21 21 -21
13z"/>
<path d="M11456 5152 c-2 -4 -1 -14 4 -22 7 -11 9 -9 7 8 -1 24 -3 26 -11 14z"/>
<path d="M7176 5132 c-2 -4 -1 -14 4 -22 7 -11 9 -9 7 8 -1 24 -3 26 -11 14z"/>
<path d="M9156 5132 c-3 -5 1 -9 9 -9 8 0 12 4 9 9 -3 4 -7 8 -9 8 -2 0 -6 -4
-9 -8z"/>
<path d="M5430 4910 c0 -5 5 -10 11 -10 5 0 7 5 4 10 -3 6 -8 10 -11 10 -2 0
-4 -4 -4 -10z"/>
<path d="M5475 4910 c-3 -5 -1 -10 4 -10 6 0 11 5 11 10 0 6 -2 10 -4 10 -3 0
-8 -4 -11 -10z"/>
<path d="M5550 4910 c0 -5 5 -10 11 -10 5 0 7 5 4 10 -3 6 -8 10 -11 10 -2 0
-4 -4 -4 -10z"/>
<path d="M5595 4911 c-3 -5 -2 -12 3 -15 5 -3 9 1 9 9 0 17 -3 19 -12 6z"/>
<path d="M7650 4916 c0 -2 7 -7 16 -10 8 -3 12 -2 9 4 -6 10 -25 14 -25 6z"/>
<path d="M11794 4912 c4 -3 14 -7 22 -8 9 -1 13 0 10 4 -4 3 -14 7 -22 8 -9 1
-13 0 -10 -4z"/>
<path d="M11870 4910 c0 -5 5 -10 11 -10 5 0 7 5 4 10 -3 6 -8 10 -11 10 -2 0
-4 -4 -4 -10z"/>
<path d="M1075 4901 c-3 -5 -2 -12 3 -15 5 -3 9 1 9 9 0 17 -3 19 -12 6z"/>
<path d="M7473 4895 c0 -8 4 -12 9 -9 5 3 6 10 3 15 -9 13 -12 11 -12 -6z"/>
<path d="M3530 4896 c0 -2 7 -7 16 -10 8 -3 12 -2 9 4 -6 10 -25 14 -25 6z"/>
<path d="M3610 4896 c0 -2 7 -7 16 -10 8 -3 12 -2 9 4 -6 10 -25 14 -25 6z"/>
<path d="M5340 4896 c0 -2 8 -10 18 -17 15 -13 16 -12 3 4 -13 16 -21 21 -21
13z"/>
<path d="M5866 4888 c3 -5 10 -6 15 -3 13 9 11 12 -6 12 -8 0 -12 -4 -9 -9z"/>
<path d="M9556 4892 c-3 -5 1 -9 9 -9 8 0 12 4 9 9 -3 4 -7 8 -9 8 -2 0 -6 -4
-9 -8z"/>
<path d="M3086 4848 c3 -5 10 -6 15 -3 13 9 11 12 -6 12 -8 0 -12 -4 -9 -9z"/>
<path d="M9466 4848 c3 -5 10 -6 15 -3 13 9 11 12 -6 12 -8 0 -12 -4 -9 -9z"/>
<path d="M3555 4650 c-3 -5 -1 -10 4 -10 6 0 11 5 11 10 0 6 -2 10 -4 10 -3 0
-8 -4 -11 -10z"/>
</g>
</svg>
