<?xml version="1.0" standalone="no"?>
<!DOCTYPE svg PUBLIC "-//W3C//DTD SVG 20010904//EN"
 "http://www.w3.org/TR/2001/REC-SVG-20010904/DTD/svg10.dtd">
<svg version="1.0" xmlns="http://www.w3.org/2000/svg"
 width="2000.000000pt" height="2000.000000pt" viewBox="0 0 2000.000000 2000.000000"
 preserveAspectRatio="xMidYMid meet">
<metadata>
Created by potrace 1.14, written by Peter Selinger 2001-2017
</metadata>
<g transform="translate(0.000000,2000.000000) scale(0.100000,-0.100000)"
fill="#000000" stroke="none">
<path d="M9070 12161 c0 -6 4 -13 10 -16 6 -3 7 1 4 9 -7 18 -14 21 -14 7z"/>
<path d="M14613 12155 c0 -8 4 -12 9 -9 5 3 6 10 3 15 -9 13 -12 11 -12 -6z"/>
<path d="M6064 12142 c4 -3 14 -7 22 -8 9 -1 13 0 10 4 -4 3 -14 7 -22 8 -9 1
-13 0 -10 -4z"/>
<path d="M5260 12126 c0 -2 8 -10 18 -17 15 -13 16 -12 3 4 -13 16 -21 21 -21
13z"/>
<path d="M11466 12122 c-3 -5 1 -9 9 -9 8 0 12 4 9 9 -3 4 -7 8 -9 8 -2 0 -6
-4 -9 -8z"/>
<path d="M5795 12091 c-3 -5 -2 -12 3 -15 5 -3 9 1 9 9 0 17 -3 19 -12 6z"/>
<path d="M6869 12083 c-13 -16 -12 -17 4 -4 9 7 17 15 17 17 0 8 -8 3 -21 -13z"/>
<path d="M8755 12051 c-3 -5 -2 -12 3 -15 5 -3 9 1 9 9 0 17 -3 19 -12 6z"/>
<path d="M4853 12031 c0 -11 5 -18 9 -15 4 3 5 11 1 19 -7 21 -12 19 -10 -4z"/>
<path d="M10180 12046 c0 -2 8 -10 18 -17 15 -13 16 -12 3 4 -13 16 -21 21
-21 13z"/>
<path d="M10755 12040 c3 -5 8 -10 11 -10 2 0 4 5 4 10 0 6 -5 10 -11 10 -5 0
-7 -4 -4 -10z"/>
<path d="M4893 12025 c0 -8 4 -12 9 -9 5 3 6 10 3 15 -9 13 -12 11 -12 -6z"/>
<path d="M12875 12029 c-4 -6 -5 -12 -2 -15 2 -3 7 2 10 11 7 17 1 20 -8 4z"/>
<path d="M6910 12019 c0 -5 5 -7 10 -4 6 3 10 8 10 11 0 2 -4 4 -10 4 -5 0
-10 -5 -10 -11z"/>
<path d="M6950 12025 c0 -7 30 -13 34 -7 3 4 -4 9 -15 9 -10 1 -19 0 -19 -2z"/>
<path d="M7036 12013 c-6 -14 -5 -15 5 -6 7 7 10 15 7 18 -3 3 -9 -2 -12 -12z"/>
<path d="M7095 12019 c-3 -4 2 -6 10 -5 21 3 28 13 10 13 -9 0 -18 -4 -20 -8z"/>
<path d="M7154 12022 c4 -3 14 -7 22 -8 9 -1 13 0 10 4 -4 3 -14 7 -22 8 -9 1
-13 0 -10 -4z"/>
<path d="M4815 11980 c-4 -6 -134 -10 -358 -11 -194 0 -359 -1 -367 -1 -12 -1
-14 -13 -12 -55 3 -33 8 -53 15 -52 34 4 58 -2 51 -13 -5 -7 -3 -8 7 -2 17 11
113 7 117 -5 2 -5 12 -7 22 -4 11 3 20 0 20 -6 0 -6 3 -10 8 -10 31 5 90 -30
75 -45 -4 -4 0 -4 9 -1 11 4 18 0 23 -14 3 -12 11 -21 16 -21 5 0 9 -7 9 -15
0 -8 5 -15 10 -15 6 0 10 -8 10 -18 0 -10 4 -22 9 -27 4 -6 11 -24 14 -42 5
-24 2 -35 -11 -43 -14 -9 -14 -11 -1 -7 14 5 16 -6 15 -76 -1 -45 -5 -88 -10
-96 -6 -9 -5 -12 2 -7 6 3 13 2 16 -3 4 -5 3 -12 -1 -14 -5 -3 -8 -49 -7 -104
1 -55 -3 -104 -9 -111 -6 -7 -6 -12 -1 -10 9 3 14 -4 14 -23 0 -8 -6 -7 -17 2
-13 10 -12 6 3 -13 17 -22 20 -35 15 -70 -4 -24 -6 -60 -5 -81 1 -25 -3 -40
-15 -47 -13 -9 -13 -10 -1 -8 9 2 17 0 18 -4 5 -20 1 -27 -15 -21 -13 5 -12 2
4 -14 17 -17 19 -28 14 -64 -4 -24 -6 -60 -5 -79 1 -19 -3 -41 -9 -48 -8 -10
-7 -12 4 -10 8 2 13 -3 11 -12 -8 -33 -7 -222 0 -226 5 -3 6 -10 2 -15 -7 -12
-9 -847 -2 -854 3 -3 2 -24 -1 -48 -3 -23 -5 -78 -4 -122 2 -44 2 -96 2 -115
-1 -19 -2 -107 -3 -195 -1 -137 -3 -160 -16 -157 -8 2 -11 0 -7 -5 5 -4 13 -8
18 -8 5 0 9 -3 9 -7 0 -5 0 -13 0 -19 0 -8 -6 -7 -17 2 -17 13 -17 12 -2 -6
22 -26 22 -202 0 -197 -7 1 -10 -2 -6 -8 3 -6 10 -8 15 -5 8 5 7 -56 0 -75 -4
-10 -7 -26 -8 -48 -1 -13 -6 -20 -12 -17 -5 3 -7 0 -4 -8 3 -8 0 -18 -5 -22
-6 -3 -9 -11 -6 -16 4 -5 -1 -12 -9 -15 -9 -3 -16 -10 -16 -16 0 -5 -7 -16
-15 -24 -8 -9 -15 -13 -15 -10 0 3 -9 -3 -20 -14 -11 -11 -26 -20 -34 -20 -8
0 -16 -5 -18 -10 -4 -13 -37 -20 -123 -27 -123 -9 -130 -12 -133 -66 -3 -40 0
-47 15 -48 10 0 81 -2 158 -2 77 -1 146 -6 154 -11 9 -6 12 -5 8 1 -4 6 27 9
81 8 65 0 86 -4 84 -14 -1 -7 2 -10 8 -6 6 3 8 11 5 16 -11 17 18 9 31 -8 12
-16 13 -16 8 -1 -4 12 -1 16 13 13 10 -1 17 -8 15 -15 -1 -6 2 -9 8 -5 6 3 8
9 6 13 -2 4 90 7 204 8 130 0 206 -4 203 -10 -4 -5 -1 -6 8 0 8 5 88 10 179
11 91 1 168 2 171 2 3 1 5 17 4 36 -1 19 2 35 7 35 5 0 1 9 -9 19 -14 15 -34
20 -88 22 -39 1 -87 8 -108 15 -20 7 -41 14 -45 15 -48 10 -119 73 -146 128
-19 41 -20 44 -3 35 6 -4 5 1 -4 12 -10 11 -16 36 -15 62 1 23 -2 42 -6 42 -3
0 -5 8 -3 18 2 9 4 22 4 29 1 7 9 10 19 7 13 -4 12 -2 -3 7 -30 18 -31 19 -15
30 9 7 11 12 4 15 -11 5 -11 55 1 73 3 6 1 11 -6 11 -8 0 -8 4 -1 13 7 8 7 18
2 27 -5 8 -5 21 1 32 5 10 6 18 2 18 -11 0 -9 42 2 60 5 8 4 11 -1 7 -5 -3
-10 3 -10 13 0 10 4 16 8 14 4 -3 8 -1 8 5 0 5 -6 12 -12 14 -10 4 -9 8 2 16
9 7 11 14 5 19 -12 9 -12 52 0 71 5 9 4 12 -1 8 -11 -7 -11 104 0 121 4 7 2
12 -5 12 -8 0 -8 4 1 15 10 12 10 15 -1 15 -9 1 -4 9 11 21 22 18 22 21 5 17
-16 -2 -20 3 -20 27 0 17 4 36 9 43 5 7 4 12 -3 12 -8 0 -9 6 -2 18 6 11 6 24
-1 36 -8 14 -7 17 1 12 6 -4 11 -3 11 3 0 5 -6 12 -12 14 -10 4 -9 8 2 16 12
9 13 12 1 20 -11 7 -11 9 0 14 12 5 12 6 0 6 -11 1 -11 4 0 18 8 9 10 14 4 11
-6 -4 -10 8 -10 27 0 18 3 31 8 28 4 -2 7 0 7 6 0 5 -6 12 -12 14 -10 4 -9 8
2 17 11 9 12 13 3 17 -10 3 -10 10 -2 25 6 11 7 18 2 15 -11 -7 -10 94 1 111
3 5 0 13 -6 15 -10 4 -9 8 2 16 12 9 13 13 2 20 -8 4 -14 12 -14 16 0 4 6 12
14 16 8 6 9 9 1 9 -12 0 -12 17 0 38 5 7 3 12 -4 12 -8 0 -7 5 2 17 8 9 9 14
4 11 -6 -4 -11 2 -11 12 0 10 4 16 8 14 4 -3 8 -1 8 5 0 5 -6 12 -12 14 -10 4
-9 8 2 17 11 9 12 13 3 17 -9 3 -10 10 -3 24 7 13 7 19 0 19 -12 0 -9 22 5 32
6 5 6 8 -1 8 -9 0 -11 17 -5 63 1 5 5 6 10 2 5 -3 13 0 17 6 4 7 3 9 -2 6 -6
-3 -16 -1 -24 4 -13 8 -13 10 0 19 11 7 11 10 2 10 -7 0 -10 5 -7 11 5 7 12 6
24 -3 9 -7 6 -3 -7 10 -13 13 -18 22 -10 22 9 0 9 3 -2 10 -13 9 -13 11 0 20
12 8 13 12 2 19 -8 4 -14 12 -14 16 0 4 6 12 14 16 8 6 9 9 1 9 -12 0 -12 17
0 38 5 7 3 12 -4 12 -8 0 -8 4 1 15 10 12 10 15 0 15 -10 0 -10 4 1 16 10 13
10 17 -2 25 -12 8 -12 10 1 19 12 8 13 12 2 19 -17 11 -17 21 0 32 7 5 8 9 2
9 -14 0 -14 30 0 30 7 0 7 3 1 8 -14 10 -17 32 -5 32 7 0 7 7 -1 21 -8 15 -8
19 0 15 6 -4 11 -2 11 3 0 6 -4 11 -8 11 -4 0 -7 24 -7 53 0 32 5 52 12 52 6
0 15 4 20 8 4 5 4 8 -2 7 -32 -7 -45 14 -20 32 6 5 6 8 -2 8 -12 0 -12 17 0
38 5 7 3 12 -4 12 -8 0 -7 5 2 17 8 9 9 14 4 11 -6 -4 -10 6 -9 25 2 48 3 50
17 41 7 -5 6 -2 -3 6 -17 17 -21 71 -5 82 7 5 7 8 0 8 -14 0 -13 93 0 102 6 5
5 8 -3 8 -7 0 -10 5 -7 10 4 6 12 8 18 4 7 -3 3 2 -7 10 -15 12 -16 16 -5 16
12 0 12 2 -1 10 -13 8 -12 11 5 25 11 9 14 14 8 10 -8 -4 -14 0 -14 9 -1 9 -2
26 -3 39 -1 12 2 28 7 35 5 6 6 12 1 12 -11 0 -10 122 0 139 4 6 2 11 -3 11
-6 0 -11 5 -11 11 0 5 4 8 9 4 6 -3 7 6 2 22 -16 60 -25 58 209 60 118 1 220
3 225 4 6 1 14 1 18 0 5 -1 248 -1 539 -1 413 0 534 -3 546 -12 11 -9 13 -9 9
-1 -6 9 39 12 178 12 102 0 185 -3 186 -7 5 -41 4 -90 -2 -86 -4 2 -10 0 -14
-6 -4 -6 -11 -7 -17 -4 -7 4 -8 2 -4 -5 6 -8 12 -9 20 -2 18 15 28 1 13 -17
-6 -9 -7 -13 -2 -10 12 8 13 -822 0 -842 -5 -7 -4 -11 1 -7 5 3 9 -27 9 -68 0
-46 -4 -71 -10 -68 -5 3 -4 0 3 -8 15 -16 16 -33 0 -23 -7 5 -8 3 -3 -6 12
-19 12 -609 0 -603 -5 3 -4 0 3 -8 14 -16 16 -33 2 -24 -6 3 -7 -1 -4 -10 11
-28 10 -199 0 -214 -7 -9 -7 -12 -1 -9 7 4 10 -116 10 -352 0 -211 -4 -356 -9
-353 -5 4 -5 0 0 -8 10 -17 8 -350 -3 -358 -4 -3 -9 -22 -10 -41 -2 -40 -26
-93 -37 -83 -4 4 -4 0 0 -10 4 -11 0 -19 -10 -23 -9 -3 -16 -13 -16 -21 0 -8
-4 -12 -9 -9 -5 3 -11 -1 -15 -9 -3 -8 -12 -15 -21 -15 -8 0 -15 -5 -15 -11 0
-5 -4 -8 -9 -4 -5 3 -12 1 -16 -5 -4 -6 -11 -8 -16 -5 -5 4 -9 2 -9 -3 0 -10
2 -10 -122 -21 -105 -10 -122 -16 -114 -37 3 -8 1 -14 -5 -14 -6 0 -6 -7 1
-20 6 -11 7 -20 3 -20 -4 0 -2 -5 5 -12 7 -7 57 -12 144 -12 73 -1 139 -5 147
-10 10 -6 12 -6 7 2 -5 8 1 12 14 12 13 0 19 -4 14 -12 -5 -7 -3 -8 7 -2 23
14 62 17 53 3 -5 -9 -3 -9 7 -3 21 13 281 13 298 0 9 -7 12 -7 9 -1 -5 8 92
11 305 10 172 0 322 2 335 4 19 3 22 9 22 51 0 57 -5 60 -100 60 -38 0 -72 5
-75 10 -4 6 -10 8 -15 5 -9 -6 -86 22 -109 40 -47 36 -82 77 -77 90 3 8 0 14
-5 12 -6 -1 -17 18 -25 43 -17 57 -18 73 -1 64 9 -6 9 -5 0 7 -14 18 -22 189
-8 189 6 0 3 5 -5 10 -8 5 -10 10 -4 10 8 0 9 11 4 35 -5 23 -4 36 4 39 6 2 5
5 -3 5 -11 1 -10 5 5 17 10 8 14 13 8 10 -8 -4 -12 8 -12 34 0 22 -4 44 -7 50
-3 5 -1 10 6 10 9 0 9 3 0 14 -9 11 -9 15 1 19 10 4 9 6 -1 6 -11 1 -10 5 5
17 10 8 14 13 8 10 -7 -4 -14 6 -16 24 -3 17 -1 30 2 30 4 0 4 18 0 40 -4 22
-5 40 -1 40 10 0 7 95 -4 102 -6 5 -4 8 5 8 13 0 13 1 0 10 -11 7 -11 10 -2
10 10 0 10 5 2 20 -8 15 -8 20 2 20 9 0 9 3 -2 10 -11 7 -11 10 -2 10 9 0 10
5 2 19 -7 14 -6 21 3 24 8 4 8 6 -2 6 -11 1 -10 5 5 17 10 8 13 12 5 8 -11 -5
-13 -2 -9 14 4 13 1 22 -5 23 -7 0 -3 4 8 9 13 6 15 9 5 9 -11 1 -15 12 -15
41 0 22 3 40 6 40 4 0 3 18 -1 40 -4 22 -4 40 1 40 5 0 6 6 4 13 -10 25 -10
137 0 141 6 3 4 5 -4 5 -11 1 -10 5 5 17 10 8 14 13 8 10 -7 -3 -14 3 -17 14
-3 10 0 21 7 24 6 3 5 5 -3 5 -11 1 -10 5 5 17 10 8 14 13 7 10 -19 -10 -21
66 -3 82 8 8 10 11 4 8 -7 -4 -14 6 -16 24 -3 17 0 30 6 30 6 0 4 5 -4 10 -8
5 -10 10 -4 10 7 0 9 13 5 38 -5 27 -3 41 9 50 9 8 10 11 1 6 -11 -5 -13 1 -9
30 2 21 0 36 -7 37 -5 0 -1 4 10 9 13 6 15 9 5 9 -17 1 -22 51 -5 51 6 0 3 5
-5 10 -9 6 -10 10 -3 10 7 0 9 9 4 28 -5 19 -3 31 8 40 10 8 11 11 2 6 -11 -5
-13 -2 -9 14 4 12 3 22 0 22 -4 0 -7 23 -7 50 0 28 3 50 6 50 4 0 3 18 -1 40
-4 22 -4 40 0 40 4 0 4 17 1 38 -9 47 -3 74 12 65 9 -5 9 -3 1 8 -19 23 -21
53 -4 67 8 8 10 11 4 8 -7 -3 -14 3 -17 14 -3 11 0 20 6 20 7 0 5 5 -3 10 -8
5 -10 10 -4 10 6 0 8 15 4 43 -4 31 -1 45 10 55 10 10 11 11 1 6 -11 -5 -13
-2 -9 14 3 12 1 23 -6 26 -8 3 -8 5 1 5 8 1 9 10 3 31 -6 21 -5 30 3 30 7 0 6
4 -3 10 -8 5 -10 10 -5 10 6 0 10 16 10 35 0 19 -4 35 -10 36 -5 0 -1 4 10 9
13 6 15 9 5 9 -11 1 -15 13 -15 46 0 25 5 45 10 45 6 0 3 5 -5 10 -11 7 -11
10 -2 10 9 0 10 5 3 19 -8 15 -7 20 5 25 13 5 14 9 4 21 -7 8 -10 22 -6 30 3
8 0 15 -7 16 -7 0 -3 4 8 9 16 7 17 9 3 9 -17 1 -15 34 5 59 6 8 6 17 -2 25
-7 10 -7 17 0 24 7 7 7 13 1 17 -13 8 6 87 24 102 8 6 11 14 7 17 -3 4 -1 7 5
7 7 0 11 3 10 8 -5 15 35 63 49 58 8 -3 12 -2 9 2 -6 10 40 39 69 44 11 1 23
7 26 11 3 4 41 10 85 13 43 2 88 6 99 8 11 3 23 5 26 5 6 1 4 89 -3 96 -2 3
-249 5 -548 6 -406 0 -548 3 -559 12 -11 9 -13 9 -8 0 11 -17 -1764 -17 -1775
0 -6 9 -8 9 -8 0 0 -8 -14 -13 -36 -13 -25 0 -33 4 -28 13 6 10 4 10 -7 0 -16
-15 -83 -18 -74 -3 3 6 4 10 1 10 -3 0 -8 -5 -11 -10z m2645 -440 c0 -5 -5
-10 -11 -10 -5 0 -7 5 -4 10 3 6 8 10 11 10 2 0 4 -4 4 -10z"/>
<path d="M8895 11980 c-4 -6 -127 -10 -339 -10 -183 0 -339 -2 -347 -5 -17 -6
-24 -63 -11 -83 5 -8 33 -14 70 -15 34 -1 62 -4 62 -7 0 -3 20 -6 45 -7 25 -1
51 -6 58 -10 7 -4 23 -9 37 -11 13 -2 27 -6 30 -10 3 -4 11 -7 18 -8 29 -2 33
-5 26 -16 -4 -7 -3 -8 4 -4 18 11 87 -30 121 -72 17 -22 28 -42 24 -46 -3 -3
-2 -6 4 -6 6 0 18 -15 26 -33 14 -30 16 -191 15 -1531 0 -1292 -2 -1499 -15
-1512 -8 -7 -10 -14 -4 -14 5 0 3 -13 -5 -30 -9 -16 -20 -30 -25 -30 -6 0 -7
-4 -4 -10 3 -5 1 -10 -6 -10 -7 0 -9 -3 -6 -7 10 -10 -71 -65 -84 -57 -8 4 -9
3 -5 -4 3 -6 -3 -16 -15 -22 -17 -10 -20 -9 -13 2 4 7 -2 5 -13 -4 -11 -10
-27 -18 -36 -18 -9 0 -17 -4 -17 -8 0 -7 -46 -22 -120 -38 -14 -3 -52 -7 -85
-8 -82 -4 -95 -11 -95 -51 0 -19 5 -37 11 -41 7 -4 96 -7 198 -8 102 -1 192
-5 200 -10 10 -6 12 -6 7 3 -9 14 30 11 53 -3 10 -6 12 -5 7 2 -4 7 -1 12 8
12 9 0 16 -6 16 -12 0 -9 3 -9 8 -2 11 16 118 11 114 -5 -1 -7 2 -10 8 -6 6 3
8 10 6 14 -3 4 35 7 84 7 53 0 86 -4 83 -10 -4 -5 -1 -6 8 0 20 12 83 13 91 0
6 -8 8 -8 8 1 0 6 8 10 18 8 9 -1 16 -8 14 -15 -1 -6 2 -9 8 -5 6 3 8 10 6 14
-3 4 135 7 306 7 339 -1 338 -1 338 55 0 33 -7 36 -115 43 -92 6 -145 16 -145
28 0 5 -5 6 -10 3 -6 -4 -24 1 -42 9 -17 9 -38 16 -46 16 -8 0 -12 6 -9 14 4
10 1 13 -8 10 -19 -8 -67 26 -61 42 3 8 0 11 -10 7 -8 -3 -14 1 -14 10 0 8 -7
20 -15 27 -8 7 -12 16 -9 21 3 5 1 9 -3 9 -5 0 -15 16 -22 35 -18 49 -28 263
-15 307 3 9 1 19 -4 22 -5 3 -5 29 -2 58 4 29 4 63 -1 75 -5 14 -4 23 3 25 8
3 8 10 2 21 -6 10 -7 43 -3 75 3 31 2 67 -2 80 -6 14 -5 22 2 22 7 0 8 7 4 18
-4 9 -6 35 -5 57 2 22 2 49 2 60 -1 11 -1 54 -1 95 2 317 1 379 -6 391 -6 9
-3 11 9 6 12 -5 15 -3 9 6 -11 17 -15 57 -8 75 4 12 8 12 22 1 9 -8 14 -9 10
-3 -4 7 2 14 13 17 14 4 20 0 21 -11 0 -11 2 -12 6 -4 2 6 9 12 14 12 6 0 7
-6 3 -12 -6 -9 -3 -9 9 0 9 8 20 11 25 8 14 -8 8 -76 -8 -86 -9 -6 -10 -10 -3
-10 17 0 28 21 28 55 0 26 3 30 25 26 14 -1 28 -8 31 -13 4 -6 12 -7 18 -4 6
4 11 3 11 -3 0 -6 11 -13 25 -17 14 -3 25 -10 25 -15 0 -5 5 -9 10 -9 20 0 90
-53 83 -63 -3 -6 -1 -7 6 -3 6 4 18 0 27 -8 8 -9 22 -20 32 -25 14 -8 14 -11
2 -28 -14 -16 -14 -17 3 -4 13 11 20 11 32 1 8 -7 12 -17 8 -23 -3 -5 -1 -7 4
-4 13 8 46 -27 36 -37 -5 -4 -3 -6 3 -4 11 3 79 -62 134 -127 70 -84 80 -98
74 -107 -4 -6 -2 -8 3 -5 12 8 65 -52 57 -65 -3 -5 0 -7 6 -6 7 2 17 -6 23
-17 7 -11 16 -23 21 -26 5 -4 6 -12 2 -18 -4 -7 -1 -9 8 -5 9 3 19 -3 27 -18
7 -13 20 -29 31 -36 10 -7 18 -20 18 -29 0 -9 3 -14 6 -11 5 6 43 -32 90 -91
10 -13 25 -29 32 -36 6 -8 12 -18 12 -23 0 -6 7 -13 16 -16 9 -3 14 -13 11
-21 -4 -10 -1 -12 10 -8 12 5 15 2 10 -10 -4 -10 -2 -16 6 -14 7 1 11 -4 9
-11 -1 -8 2 -11 7 -8 11 7 33 -18 24 -27 -3 -4 -1 -7 6 -7 7 0 9 -5 5 -12 -4
-6 -3 -8 3 -5 6 4 21 -5 33 -18 13 -14 20 -25 16 -25 -4 0 5 -12 19 -27 14
-15 25 -31 25 -36 0 -4 11 -20 25 -35 14 -15 23 -33 20 -40 -3 -7 -1 -11 4 -8
12 8 52 -38 54 -62 0 -11 5 -18 9 -16 5 3 11 -3 15 -13 4 -10 13 -24 20 -31 7
-7 13 -22 13 -32 0 -10 4 -20 10 -22 5 -1 11 -21 12 -43 3 -48 -19 -108 -38
-101 -7 3 -16 0 -20 -6 -4 -7 -3 -8 4 -4 7 4 12 5 12 2 0 -3 -10 -10 -21 -17
-17 -9 -20 -8 -14 3 3 7 0 5 -8 -5 -14 -17 -40 -27 -83 -31 -11 -1 -25 -5 -30
-9 -6 -3 -30 -7 -53 -8 -23 -2 -44 -6 -47 -11 -3 -4 -10 -5 -18 -2 -7 3 -25 0
-39 -5 -21 -8 -27 -17 -27 -40 0 -55 2 -56 110 -55 65 1 97 -2 93 -9 -4 -6 -1
-7 8 -1 19 13 120 13 112 1 -4 -6 -1 -7 8 -1 20 13 122 13 138 0 11 -8 13 -8
8 0 -8 13 140 13 162 0 9 -6 12 -5 7 2 -4 7 8 10 38 9 25 -1 43 -4 40 -8 -2
-4 0 -11 6 -14 6 -4 9 -1 8 6 -4 19 55 19 69 0 11 -13 12 -14 8 -1 -4 11 1 16
15 17 11 1 18 -2 15 -7 -3 -5 -1 -12 5 -15 6 -4 9 -1 8 7 -2 7 4 13 12 13 8 0
14 -6 12 -13 -1 -8 2 -11 8 -7 6 3 8 10 6 14 -7 10 136 8 153 -3 9 -6 12 -5 8
1 -4 6 114 9 331 9 185 -1 348 1 362 5 21 5 25 11 23 39 -2 34 -17 51 -43 49
-8 -1 -17 0 -20 1 -3 1 -18 3 -35 5 -71 7 -135 18 -135 24 0 6 -30 10 -77 11
-13 0 -23 4 -23 9 0 5 -11 8 -25 6 -15 -1 -29 4 -35 14 -7 13 -9 13 -10 1 0
-11 -3 -11 -12 -2 -7 7 -22 12 -35 12 -13 0 -23 4 -23 10 0 5 -3 9 -7 9 -25
-4 -43 2 -37 13 4 6 3 8 -4 4 -29 -18 -312 202 -312 243 0 7 5 9 12 5 7 -4 8
-3 4 4 -4 6 -12 9 -20 6 -10 -4 -96 95 -96 111 0 3 -9 14 -21 26 -11 11 -18
27 -15 35 3 8 2 12 -4 9 -12 -7 -33 32 -24 47 4 6 3 8 -3 5 -11 -7 -65 56 -58
67 3 3 2 4 -1 1 -7 -4 -34 19 -34 29 0 6 -24 36 -47 61 -7 8 -13 17 -13 20 0
9 -61 87 -80 102 -8 7 -12 13 -8 13 4 0 -8 16 -27 36 -19 20 -32 41 -28 46 3
6 1 8 -4 5 -13 -8 -46 40 -38 54 4 5 3 9 -2 8 -20 -3 -33 2 -33 14 0 7 -9 18
-21 25 -12 7 -18 16 -15 19 3 3 -6 15 -20 26 -14 10 -23 25 -20 33 3 8 0 11
-10 7 -7 -3 -14 -1 -14 3 0 5 -18 28 -40 52 -23 24 -38 48 -34 54 4 6 3 8 -3
5 -13 -8 -55 31 -48 44 4 5 0 9 -8 9 -8 0 -21 10 -30 23 -23 36 -305 316 -311
309 -3 -3 -6 2 -6 11 0 9 -7 17 -16 17 -10 0 -14 5 -10 16 3 8 2 13 -3 10 -11
-7 -71 44 -71 61 0 7 -6 12 -12 11 -7 -2 -12 3 -10 10 1 8 -1 11 -6 8 -5 -3
-19 6 -30 19 -12 14 -27 25 -33 25 -8 0 -8 5 1 15 11 13 10 14 -3 10 -8 -4
-18 -2 -22 4 -3 6 -2 11 4 11 6 0 8 6 5 14 -3 8 4 20 15 28 12 8 18 17 15 21
-3 3 3 10 14 16 11 6 22 7 26 3 4 -3 4 1 1 9 -4 10 10 31 42 60 26 24 47 45
46 46 -2 2 18 23 42 49 25 25 45 50 45 56 0 5 5 6 10 3 6 -3 10 0 10 8 0 7 16
28 36 45 20 18 33 32 30 32 -4 0 5 12 19 28 15 15 33 39 41 55 8 15 19 27 24
27 6 0 10 6 10 14 0 8 8 21 19 28 10 7 20 18 22 23 2 6 8 9 12 7 5 -1 6 2 3 7
-4 5 0 16 8 24 8 8 49 67 91 131 47 73 80 114 87 110 6 -4 8 -3 5 4 -7 11 23
72 36 72 4 0 7 4 7 9 0 10 61 113 72 121 3 3 8 12 10 20 5 24 27 42 40 34 10
-6 11 -5 1 7 -11 13 -7 24 19 63 17 26 37 50 44 53 8 3 12 8 9 12 -2 5 11 24
29 44 18 20 31 38 29 41 -3 2 5 10 17 16 12 6 19 14 16 17 -8 8 52 55 63 49 5
-4 13 -1 17 5 4 8 3 9 -4 5 -7 -4 -12 -2 -12 3 0 6 7 11 15 11 8 0 23 9 34 21
12 13 25 18 33 13 7 -4 10 -4 6 1 -11 11 29 38 44 29 7 -4 8 -3 4 5 -4 6 0 14
11 18 10 3 25 11 33 18 8 7 24 15 35 18 11 3 44 14 73 25 28 11 49 16 46 10
-4 -5 4 -4 17 3 13 7 25 12 27 11 1 -1 3 -2 5 -1 32 10 131 21 204 23 40 1 75
5 79 8 3 4 12 4 20 1 24 -9 41 15 39 57 -1 22 -4 42 -7 45 -4 5 -644 7 -1479
5 l-96 0 7 -40 c5 -27 4 -40 -4 -40 -6 0 -4 -5 4 -10 8 -6 29 -10 45 -9 67 2
106 -2 100 -10 -3 -6 6 -6 25 -1 17 5 32 5 35 -1 4 -5 17 -9 31 -9 18 0 23 -4
18 -12 -5 -9 -2 -9 9 1 11 9 17 10 17 2 0 -6 6 -11 14 -11 24 0 78 -56 79 -83
1 -14 5 -23 9 -21 7 4 15 -83 10 -110 -2 -9 -7 -14 -12 -11 -11 7 -7 -29 5
-37 6 -5 5 -8 -3 -8 -7 0 -10 -4 -7 -10 3 -5 2 -10 -3 -10 -5 0 -9 -6 -10 -12
-3 -33 -11 -53 -20 -51 -5 1 -8 -6 -5 -16 3 -10 -1 -22 -8 -26 -8 -6 -10 -4
-4 6 5 8 4 11 -1 6 -5 -5 -9 -12 -10 -15 -3 -29 -18 -62 -31 -66 -8 -3 -12
-10 -8 -15 3 -6 -1 -13 -9 -18 -8 -4 -14 -11 -13 -14 3 -8 -47 -79 -55 -79 -5
0 -8 -7 -8 -15 0 -7 -6 -18 -14 -22 -8 -4 -15 -12 -16 -18 -1 -5 -15 -32 -33
-60 -17 -27 -30 -53 -29 -57 1 -5 -5 -8 -14 -8 -8 0 -12 -5 -9 -10 3 -6 -1
-13 -9 -16 -9 -3 -14 -10 -11 -14 2 -4 -6 -19 -20 -34 -13 -15 -26 -30 -27
-34 -2 -4 -7 -6 -11 -4 -5 1 -6 -2 -2 -7 6 -10 -17 -53 -42 -79 -7 -8 -10 -18
-7 -24 4 -6 3 -8 -3 -5 -5 3 -18 -10 -28 -29 -10 -20 -24 -33 -31 -30 -8 3
-11 0 -8 -8 6 -15 -34 -68 -46 -61 -4 3 -7 -3 -6 -13 0 -9 -5 -16 -12 -14 -8
1 -11 -1 -8 -6 3 -5 -14 -31 -37 -58 -56 -66 -237 -247 -237 -237 0 4 -7 -3
-16 -15 -9 -13 -22 -21 -30 -18 -7 3 -16 0 -20 -6 -4 -7 -3 -8 4 -4 29 18 8
-15 -25 -40 -21 -15 -41 -33 -45 -38 -5 -7 -8 -7 -8 2 0 6 -4 12 -10 12 -5 0
-6 -8 -3 -17 5 -13 3 -15 -12 -9 -11 4 -16 4 -12 0 9 -9 -13 -35 -24 -28 -5 3
-9 0 -9 -6 0 -7 -7 -9 -16 -6 -8 3 -13 2 -10 -3 6 -9 -52 -38 -66 -33 -5 1 -8
-3 -8 -9 0 -5 -5 -7 -10 -4 -6 4 -7 11 -4 17 4 7 2 8 -5 4 -6 -4 -9 -11 -6
-16 2 -4 -7 -10 -21 -13 -17 -3 -32 2 -45 16 -22 24 -25 47 -6 48 6 0 3 5 -8
10 -18 8 -17 9 6 6 15 -2 26 1 26 8 0 7 -8 10 -19 7 -19 -4 -19 -3 -23 73 0
17 -4 36 -8 42 -4 6 -3 14 3 18 5 3 10 1 10 -6 0 -7 3 -9 6 -6 4 4 2 12 -3 19
-6 7 -11 42 -12 77 -1 34 -2 66 -3 70 0 3 1 11 2 16 1 6 3 42 4 80 1 57 4 69
16 67 8 -2 11 0 7 5 -5 4 -13 8 -18 8 -9 0 -10 179 -6 767 0 73 4 105 11 101
6 -4 5 0 -1 9 -7 8 -10 18 -6 21 3 4 8 19 9 34 2 14 8 29 14 33 7 4 11 10 11
14 -3 20 0 26 9 21 6 -3 10 0 10 7 0 15 60 78 75 78 4 0 16 7 26 16 9 8 26 16
38 17 11 1 21 5 21 10 0 4 5 5 10 2 6 -3 10 -1 10 5 0 6 5 8 10 5 6 -3 10 0
10 7 0 10 2 10 9 -1 6 -9 10 -10 12 -2 3 7 22 14 44 17 22 2 55 6 73 9 21 3
32 1 32 -8 0 -8 3 -8 8 -2 4 6 14 10 22 10 8 -1 27 3 43 8 20 7 27 15 27 35 0
36 -11 51 -35 51 -255 -5 -855 3 -850 11 3 6 4 10 1 10 -3 0 -8 -5 -11 -10z"/>
<path d="M12854 11982 c6 -10 -28 -13 -176 -12 -100 1 -245 1 -320 1 l-138 -1
0 -50 c0 -49 0 -50 33 -51 37 -2 54 -4 122 -13 94 -13 154 -29 148 -39 -3 -6
-1 -7 6 -3 16 10 53 -3 45 -16 -4 -6 -2 -8 4 -5 14 9 43 -3 36 -14 -3 -5 1 -6
9 -3 9 3 24 -6 36 -22 11 -15 21 -23 21 -18 0 26 66 -71 72 -106 2 -8 8 -18
13 -22 6 -5 4 -12 -5 -18 -8 -5 -10 -10 -4 -10 15 0 25 -50 10 -50 -6 0 -4 -5
4 -10 12 -8 12 -10 -5 -10 -12 0 -16 -3 -9 -8 7 -4 13 -31 15 -60 3 -41 1 -52
-11 -53 -10 0 -11 -2 -2 -6 6 -2 12 -17 12 -32 0 -15 -6 -33 -12 -40 -11 -10
-10 -11 5 -6 19 8 24 -10 5 -18 -10 -4 -9 -6 1 -6 11 -1 11 -4 1 -16 -7 -8 -9
-15 -4 -15 16 0 11 -144 -5 -156 -12 -9 -11 -13 5 -22 19 -11 19 -11 0 -12
-20 0 -20 0 0 -15 12 -9 14 -14 6 -15 -7 0 -10 -5 -6 -11 4 -7 7 -29 8 -50 1
-30 -2 -38 -13 -34 -10 4 -9 -1 4 -15 18 -19 18 -20 -1 -21 -18 0 -18 -1 1 -9
13 -6 15 -9 5 -9 -9 -1 -11 -4 -5 -9 6 -4 10 -26 10 -50 0 -23 -4 -42 -10 -42
-5 0 -3 -5 5 -10 13 -9 13 -10 0 -10 -13 0 -13 -1 0 -10 13 -9 13 -10 0 -10
-13 0 -13 -1 0 -10 10 -6 11 -10 3 -10 -9 0 -10 -7 -3 -25 6 -16 6 -25 0 -25
-6 0 -6 -9 0 -24 7 -18 5 -26 -5 -30 -12 -4 -12 -9 0 -33 15 -29 11 -48 -5
-23 -6 9 -10 10 -10 3 0 -6 5 -15 10 -18 6 -3 10 -20 10 -36 0 -17 -4 -28 -9
-24 -5 3 -13 1 -16 -5 -4 -6 -3 -10 2 -9 19 3 33 -2 33 -12 0 -6 -8 -8 -17 -5
-16 5 -16 5 0 -8 18 -14 18 -15 0 -25 -14 -8 -14 -10 -3 -11 11 0 15 -13 15
-52 0 -29 -4 -56 -10 -60 -6 -5 -4 -8 5 -8 13 0 13 -1 0 -10 -13 -9 -13 -10 0
-10 13 0 13 -1 0 -10 -8 -5 -10 -10 -5 -10 6 0 10 -13 10 -30 0 -16 -3 -30 -6
-30 -3 0 -4 -14 -1 -30 2 -17 -1 -37 -8 -45 -11 -13 -10 -14 4 -9 9 3 16 1 16
-5 0 -6 -5 -11 -11 -11 -8 0 -8 -5 1 -15 10 -12 10 -15 -1 -15 -11 0 -11 -2 1
-10 13 -9 13 -10 0 -10 -13 0 -13 -1 0 -10 13 -9 13 -10 0 -10 -9 0 -11 -3 -5
-8 6 -4 10 -19 10 -35 1 -20 -3 -26 -13 -22 -11 4 -12 2 -4 -7 13 -16 20 -118
8 -118 -5 0 -4 -6 1 -12 5 -7 7 -24 3 -38 -4 -14 -3 -35 1 -47 5 -13 5 -23 1
-23 -4 0 -5 -29 -2 -66 3 -36 2 -70 -2 -77 -4 -6 -2 -15 5 -19 9 -6 8 -8 -3
-8 -13 0 -13 -1 0 -10 10 -6 11 -10 3 -10 -9 0 -10 -7 -3 -25 5 -14 6 -25 2
-25 -4 0 -5 -27 -2 -60 5 -52 4 -60 -10 -55 -12 5 -13 4 -2 -6 6 -7 12 -26 12
-42 0 -19 -4 -26 -12 -22 -7 4 -5 0 5 -8 9 -8 17 -17 17 -20 0 -4 -8 -4 -17
-1 -16 5 -16 4 0 -6 18 -11 18 -12 0 -26 -10 -8 -12 -13 -4 -12 16 4 22 -80 6
-86 -5 -3 -4 -5 4 -5 11 -1 11 -4 1 -16 -10 -12 -10 -15 1 -15 8 0 5 -6 -7
-15 -11 -9 -13 -13 -4 -10 12 4 15 -4 15 -35 0 -30 -3 -39 -14 -35 -10 4 -11
2 -3 -7 10 -14 21 -118 12 -118 -4 0 -12 6 -20 13 -8 7 -8 4 2 -8 16 -20 30
-105 17 -105 -4 0 -3 -16 1 -35 7 -29 5 -35 -9 -36 -14 0 -14 -1 1 -7 16 -6
16 -10 4 -34 -8 -14 -10 -30 -6 -35 27 -28 -83 -190 -122 -179 -10 2 -16 1
-13 -4 3 -4 -3 -14 -12 -21 -14 -12 -16 -12 -9 1 6 12 5 12 -6 -1 -25 -29
-258 -99 -258 -77 0 5 -5 6 -11 2 -10 -6 -44 -12 -99 -17 -11 -1 -14 -12 -11
-44 1 -24 6 -43 10 -44 3 0 148 -2 321 -2 173 -1 321 -6 329 -11 9 -6 12 -5 8
0 -3 6 171 10 455 9 269 0 462 4 466 9 3 5 6 26 7 46 l2 37 -61 3 c-100 4
-106 5 -106 10 0 3 -20 6 -45 8 -24 1 -56 9 -71 17 -15 8 -31 12 -36 9 -4 -3
-8 0 -8 5 0 6 -6 10 -12 8 -7 -1 -12 3 -11 9 1 7 -6 10 -17 7 -13 -4 -20 0
-20 10 0 8 -8 14 -17 13 -10 0 -17 5 -15 12 1 8 -2 11 -8 7 -7 -4 -14 2 -17
14 -3 12 -9 21 -13 21 -8 0 -45 72 -56 110 -12 39 -13 51 -4 45 5 -3 12 -1 15
5 4 6 1 9 -7 8 -9 -2 -13 11 -15 42 -2 52 -3 168 -2 190 0 8 0 39 -2 69 -1 36
3 56 12 62 10 6 11 9 2 9 -9 0 -13 18 -13 55 0 37 4 55 13 55 9 0 9 2 0 8 -10
6 -19 105 -13 137 1 6 2 13 2 16 -2 14 -2 95 -2 291 0 114 -1 213 -2 220 -2 6
4 12 12 13 8 0 15 8 16 18 1 11 0 12 -3 3 -2 -8 -11 -12 -19 -9 -7 3 -11 10
-7 16 4 6 7 36 7 66 l1 56 35 2 c19 1 41 -4 49 -10 12 -9 13 -9 7 1 -6 9 -1
11 16 8 53 -10 78 -19 78 -28 0 -5 4 -7 9 -3 11 6 61 -15 61 -27 0 -4 9 -8 19
-8 10 0 21 -7 25 -15 3 -8 12 -15 21 -15 8 0 15 -4 15 -10 0 -5 7 -10 16 -10
10 0 14 -5 10 -16 -3 -8 -2 -12 4 -9 13 8 72 -34 65 -46 -4 -5 1 -6 9 -3 11 4
16 0 16 -12 0 -9 3 -14 7 -11 10 10 74 -63 66 -76 -3 -6 -1 -7 5 -3 10 6 62
-41 62 -56 0 -5 7 -8 16 -8 8 0 12 -4 9 -10 -3 -5 1 -10 9 -10 9 0 16 -4 16
-10 0 -5 9 -18 21 -29 13 -11 18 -24 14 -32 -5 -8 -4 -10 3 -5 7 4 12 1 12 -8
0 -9 3 -15 8 -14 4 2 9 -1 12 -7 5 -11 36 -47 88 -102 17 -19 32 -39 32 -44 0
-5 5 -9 11 -9 5 0 7 -4 4 -10 -3 -5 0 -10 8 -10 7 0 20 -11 27 -25 7 -14 17
-25 22 -25 4 0 8 -7 8 -16 0 -8 5 -12 10 -9 6 3 10 0 10 -7 0 -7 16 -26 35
-43 19 -16 35 -34 35 -40 0 -6 9 -16 20 -23 12 -7 18 -17 15 -22 -3 -6 -1 -10
4 -10 16 0 51 -38 51 -56 0 -9 -5 -12 -12 -8 -7 4 -8 3 -4 -5 6 -9 11 -9 22 0
8 6 14 8 14 3 0 -5 16 -27 35 -48 19 -21 32 -43 28 -49 -3 -6 -1 -7 6 -3 6 4
14 0 18 -11 4 -10 12 -23 17 -29 6 -6 25 -28 41 -48 17 -21 38 -47 48 -59 19
-23 23 -42 5 -31 -7 4 -8 3 -4 -5 4 -6 11 -9 16 -6 10 6 41 -40 43 -65 1 -10
5 -18 9 -17 5 1 16 -11 26 -26 15 -24 15 -29 2 -38 -13 -9 -12 -10 2 -5 14 4
22 -4 33 -31 25 -58 7 -102 -60 -148 -31 -22 -60 -35 -69 -32 -9 4 -16 2 -16
-3 0 -9 -96 -24 -160 -25 -43 0 -72 -27 -69 -63 2 -15 6 -31 10 -37 4 -6 64
-10 148 -9 99 1 138 -2 134 -10 -5 -8 -3 -8 8 0 22 16 235 13 231 -4 -1 -8 2
-11 8 -7 6 3 8 10 6 14 -3 4 8 8 25 9 20 0 27 -3 22 -11 -5 -9 -3 -9 8 -1 21
15 95 12 91 -4 -1 -8 2 -11 8 -7 6 3 8 10 6 14 -3 4 20 7 52 6 40 -1 56 -5 54
-14 -1 -7 2 -10 8 -6 6 3 8 10 6 14 -3 4 80 7 184 7 117 0 186 -4 183 -10 -4
-5 -1 -6 8 0 22 14 480 14 472 0 -4 -6 1 -5 10 2 9 8 26 13 39 12 44 -4 48 -1
48 40 0 44 14 38 -140 60 -41 6 -82 14 -90 17 -8 3 -24 7 -35 9 -11 1 -32 5
-47 8 -16 3 -40 9 -55 12 -15 3 -30 10 -34 16 -4 7 -9 7 -13 0 -4 -7 -14 -6
-30 1 -13 7 -22 16 -19 21 4 5 1 6 -5 2 -18 -11 -169 67 -202 103 -8 10 -23
20 -32 24 -10 3 -18 11 -18 17 0 6 6 8 13 4 7 -4 8 -3 4 2 -5 5 -16 9 -25 9
-9 0 -16 6 -14 13 1 8 -1 11 -6 8 -5 -3 -19 4 -31 16 -19 17 -20 22 -9 30 10
8 9 9 -4 4 -20 -6 -62 40 -51 57 3 5 1 7 -4 4 -13 -8 -46 39 -38 53 3 5 0 12
-6 16 -8 5 -10 3 -4 -7 4 -8 -1 -6 -11 4 -17 15 -17 19 -4 28 13 9 13 10 -2 6
-11 -4 -25 6 -42 28 -14 18 -26 38 -26 43 0 4 -11 19 -25 32 -20 19 -23 26
-12 39 10 12 9 13 -1 7 -15 -9 -55 31 -46 45 3 5 -3 9 -13 9 -15 0 -16 2 -3
10 13 8 13 10 -2 10 -19 0 -41 33 -30 45 4 3 1 5 -6 3 -8 -2 -22 12 -31 29
-10 18 -21 30 -25 26 -3 -3 -6 -1 -6 5 0 6 -11 23 -26 37 -14 14 -22 30 -18
37 4 6 3 8 -3 5 -5 -3 -17 3 -26 14 -9 10 -14 19 -11 19 2 0 -7 12 -21 27 -30
33 -31 39 -7 52 9 6 12 11 5 11 -6 0 -15 -4 -18 -10 -3 -5 -11 -10 -16 -10 -6
0 -8 4 -5 9 3 5 -1 12 -10 15 -8 3 -12 10 -9 16 3 5 -1 10 -9 10 -9 0 -16 4
-16 8 0 4 -15 24 -32 43 -73 79 -81 91 -67 101 11 8 10 9 -3 4 -19 -6 -62 40
-52 55 3 5 1 8 -5 7 -14 -4 -162 152 -155 163 3 5 -1 9 -8 9 -15 0 -54 41 -50
53 1 4 -3 7 -10 7 -14 0 -139 125 -133 134 3 3 2 4 -2 1 -8 -6 -73 54 -73 68
0 4 5 5 12 1 7 -4 8 -3 4 4 -4 6 -12 9 -19 6 -17 -6 -89 55 -80 69 3 6 1 7 -5
3 -6 -4 -17 2 -24 14 -7 11 -19 20 -26 20 -9 0 -12 6 -8 16 3 8 2 13 -3 10 -5
-3 -20 9 -35 26 -19 24 -23 34 -13 40 6 4 8 8 3 8 -6 0 -1 9 10 19 10 11 33
36 49 56 71 87 133 143 145 131 8 -8 10 -7 5 6 -5 12 8 35 42 75 67 80 70 83
78 75 5 -4 5 -2 2 4 -8 14 26 47 38 37 4 -5 5 -2 1 5 -5 8 5 27 24 50 45 54
46 56 64 90 9 18 19 32 22 32 3 0 2 -5 -2 -12 -5 -7 -3 -8 5 -4 7 5 10 10 7
13 -10 10 15 44 26 37 6 -4 8 -3 5 3 -4 6 4 22 18 37 13 14 21 26 18 26 -5 0
44 70 57 80 4 3 10 14 14 25 6 16 9 17 16 5 7 -11 9 -9 7 10 -2 28 45 104 58
92 5 -4 5 -2 1 5 -8 15 87 166 98 156 4 -4 4 0 1 8 -3 9 4 26 18 41 13 13 22
29 20 34 -2 6 6 20 17 32 11 11 20 26 20 32 0 6 11 8 25 6 15 -3 23 -1 20 5
-4 5 -11 7 -16 4 -16 -11 -10 12 13 41 29 39 88 105 88 100 0 -3 17 11 37 30
39 37 153 110 166 106 4 -1 7 3 7 9 0 6 9 9 19 6 14 -3 18 -1 14 10 -3 7 -2
13 3 11 5 -1 19 3 32 10 12 7 33 10 45 7 15 -4 18 -3 9 3 -10 7 -4 12 25 18
21 4 43 8 48 9 6 0 15 3 20 6 6 4 19 5 29 3 11 -1 27 1 37 7 12 6 19 5 22 -4
4 -9 6 -9 6 1 1 7 6 10 11 7 6 -3 10 -3 10 2 0 4 33 8 73 9 39 1 90 3 112 5
39 4 40 6 46 47 3 27 1 46 -6 52 -7 6 -178 10 -426 11 -297 1 -418 4 -428 12
-11 9 -13 9 -8 0 11 -17 -191 -17 -212 0 -11 9 -13 9 -8 0 6 -9 -50 -12 -228
-12 -271 -1 -277 -3 -251 -78 8 -24 18 -25 179 -27 15 -1 27 -5 27 -9 0 -5 6
-7 14 -4 8 3 20 -1 27 -9 6 -8 17 -13 23 -12 15 4 90 -41 82 -49 -3 -3 1 -11
9 -17 30 -22 40 -161 14 -207 -7 -13 -14 -33 -16 -43 -4 -23 -63 -130 -75
-134 -4 -2 -8 -10 -8 -18 0 -9 -5 -12 -12 -8 -7 4 -8 3 -4 -5 7 -10 -29 -72
-46 -79 -5 -2 -6 -8 -2 -13 3 -5 0 -9 -5 -9 -6 0 -11 -6 -11 -13 0 -7 -8 -22
-18 -33 -18 -19 -87 -124 -181 -271 -29 -46 -57 -83 -63 -83 -5 0 -6 -4 -3
-10 3 -5 2 -10 -2 -10 -5 0 -17 -14 -27 -30 -9 -17 -22 -27 -28 -24 -6 4 -8 3
-5 -3 9 -14 -31 -75 -45 -67 -7 4 -8 3 -4 -4 4 -7 -4 -23 -18 -37 -14 -14 -23
-25 -20 -25 5 0 -35 -45 -113 -128 -24 -24 -43 -48 -43 -53 0 -5 -5 -9 -10 -9
-6 0 -21 -11 -34 -25 -13 -13 -26 -22 -29 -18 -4 3 -7 -1 -7 -10 0 -9 -4 -17
-8 -17 -5 0 -18 -9 -30 -21 -12 -11 -27 -17 -32 -14 -5 3 -8 0 -6 -7 3 -7 -11
-26 -31 -42 -28 -24 -36 -27 -44 -15 -8 12 -10 12 -8 -1 4 -39 -1 -43 -23 -24
-13 11 -18 13 -11 3 14 -17 0 -39 -24 -39 -7 0 -13 -4 -13 -8 0 -10 -107 -59
-147 -67 -22 -4 -33 -3 -33 5 0 6 -5 8 -12 4 -10 -6 -10 -4 0 8 10 13 10 18 1
24 -8 5 -9 3 -4 -6 5 -8 4 -11 -2 -7 -15 9 -22 67 -9 67 7 0 8 3 1 8 -16 11
-18 61 -3 79 7 9 8 14 2 10 -7 -4 -14 3 -17 18 -5 30 13 43 55 40 15 -1 25 1
23 5 -3 5 -21 6 -40 4 l-35 -3 1 174 c1 95 -1 178 -4 183 -4 4 0 21 8 36 8 14
10 24 6 21 -5 -3 -11 20 -13 51 -2 42 1 58 12 65 10 5 11 8 3 9 -9 0 -13 18
-13 55 0 37 4 55 13 55 9 0 9 2 0 8 -17 11 -20 142 -3 152 8 5 8 9 2 11 -11 4
-12 16 -12 128 0 30 -3 57 -5 59 -3 3 0 11 6 19 8 9 8 13 1 13 -6 0 -9 6 -6
14 3 7 7 44 8 82 4 80 13 128 27 132 5 2 7 8 3 13 -3 5 2 9 11 9 9 0 13 5 10
11 -7 11 52 74 100 105 24 15 28 16 23 3 -4 -9 -1 -16 7 -16 7 0 10 8 7 20 -3
13 -1 18 6 13 6 -3 14 -1 17 5 4 5 14 8 22 5 8 -3 11 -1 8 4 -6 9 18 14 67 14
9 0 14 4 11 9 -3 5 3 8 13 7 11 -1 21 -1 24 0 3 1 32 3 65 4 92 4 105 10 100
52 -1 19 -5 37 -8 40 -2 3 -213 5 -467 5 -354 -1 -467 2 -479 12 -12 10 -13 9
-7 -1z"/>
<path d="M9515 11800 c-3 -5 -1 -10 4 -10 6 0 11 5 11 10 0 6 -2 10 -4 10 -3
0 -8 -4 -11 -10z"/>
<path d="M14493 11785 c0 -8 4 -12 9 -9 5 3 6 10 3 15 -9 13 -12 11 -12 -6z"/>
<path d="M8615 11751 c-3 -5 -2 -12 3 -15 5 -3 9 1 9 9 0 17 -3 19 -12 6z"/>
<path d="M10496 11738 c3 -5 10 -6 15 -3 13 9 11 12 -6 12 -8 0 -12 -4 -9 -9z"/>
<path d="M14533 11735 c0 -8 4 -12 9 -9 5 3 6 10 3 15 -9 13 -12 11 -12 -6z"/>
<path d="M13510 11736 c0 -2 8 -10 18 -17 15 -13 16 -12 3 4 -13 16 -21 21
-21 13z"/>
<path d="M8590 11699 c0 -5 5 -7 10 -4 6 3 10 8 10 11 0 2 -4 4 -10 4 -5 0
-10 -5 -10 -11z"/>
<path d="M10430 11705 c0 -7 30 -13 34 -7 3 4 -4 9 -15 9 -10 1 -19 0 -19 -2z"/>
<path d="M10496 11702 c-3 -4 4 -9 15 -9 23 -2 25 3 4 10 -8 4 -16 3 -19 -1z"/>
<path d="M14536 11702 c-3 -4 4 -9 15 -9 23 -2 25 3 4 10 -8 4 -16 3 -19 -1z"/>
<path d="M5033 11686 c0 -15 22 -15 34 0 4 5 4 6 -1 2 -5 -4 -14 -3 -21 2 -8
7 -12 5 -12 -4z"/>
<path d="M6884 11678 c-12 -14 -13 -18 -3 -10 9 6 18 10 21 7 2 -3 5 2 5 10 0
19 0 19 -23 -7z"/>
<path d="M7709 11683 c-13 -16 -12 -17 4 -4 16 13 21 21 13 21 -2 0 -10 -8
-17 -17z"/>
<path d="M5130 11679 c0 -5 5 -7 10 -4 6 3 10 8 10 11 0 2 -4 4 -10 4 -5 0
-10 -5 -10 -11z"/>
<path d="M9319 11673 c-13 -16 -12 -17 4 -4 16 13 21 21 13 21 -2 0 -10 -8
-17 -17z"/>
<path d="M13456 11678 c3 -5 10 -6 15 -3 13 9 11 12 -6 12 -8 0 -12 -4 -9 -9z"/>
<path d="M4360 11660 c-12 -7 -10 -9 7 -7 12 0 19 5 17 9 -6 10 -6 10 -24 -2z"/>
<path d="M5215 11660 c3 -5 8 -10 11 -10 2 0 4 5 4 10 0 6 -5 10 -11 10 -5 0
-7 -4 -4 -10z"/>
<path d="M6696 11662 c-3 -5 1 -9 9 -9 8 0 12 4 9 9 -3 4 -7 8 -9 8 -2 0 -6
-4 -9 -8z"/>
<path d="M6735 11660 c3 -5 8 -10 11 -10 2 0 4 5 4 10 0 6 -5 10 -11 10 -5 0
-7 -4 -4 -10z"/>
<path d="M6770 11659 c0 -5 5 -7 10 -4 6 3 10 8 10 11 0 2 -4 4 -10 4 -5 0
-10 -5 -10 -11z"/>
<path d="M6830 11666 c0 -2 7 -7 16 -10 8 -3 12 -2 9 4 -6 10 -25 14 -25 6z"/>
<path d="M8595 11659 c-3 -4 2 -6 10 -5 21 3 28 13 10 13 -9 0 -18 -4 -20 -8z"/>
<path d="M10446 11658 c3 -5 10 -6 15 -3 13 9 11 12 -6 12 -8 0 -12 -4 -9 -9z"/>
<path d="M13395 11659 c-3 -4 2 -6 10 -5 21 3 28 13 10 13 -9 0 -18 -4 -20 -8z"/>
<path d="M15110 11660 c0 -5 5 -10 11 -10 5 0 7 5 4 10 -3 6 -8 10 -11 10 -2
0 -4 -4 -4 -10z"/>
<path d="M14549 11643 c-13 -16 -12 -17 4 -4 9 7 17 15 17 17 0 8 -8 3 -21
-13z"/>
<path d="M4436 11638 c3 -5 10 -6 15 -3 13 9 11 12 -6 12 -8 0 -12 -4 -9 -9z"/>
<path d="M10516 11642 c-3 -5 1 -9 9 -9 8 0 12 4 9 9 -3 4 -7 8 -9 8 -2 0 -6
-4 -9 -8z"/>
<path d="M5073 11623 c4 -3 1 -13 -6 -22 -11 -14 -10 -14 5 -2 16 12 16 31 1
31 -4 0 -3 -3 0 -7z"/>
<path d="M6730 11620 c0 -5 5 -10 11 -10 5 0 7 5 4 10 -3 6 -8 10 -11 10 -2 0
-4 -4 -4 -10z"/>
<path d="M6840 11620 c-9 -6 -10 -10 -3 -10 6 0 15 5 18 10 8 12 4 12 -15 0z"/>
<path d="M8711 11613 c7 -12 15 -20 18 -17 3 2 -3 12 -13 22 -17 16 -18 16 -5
-5z"/>
<path d="M9355 11620 c3 -5 8 -10 11 -10 2 0 4 5 4 10 0 6 -5 10 -11 10 -5 0
-7 -4 -4 -10z"/>
<path d="M14496 11622 c-3 -4 4 -9 15 -9 23 -2 25 3 4 10 -8 4 -16 3 -19 -1z"/>
<path d="M4386 11598 c3 -5 10 -6 15 -3 13 9 11 12 -6 12 -8 0 -12 -4 -9 -9z"/>
<path d="M4436 11602 c-3 -5 1 -9 9 -9 8 0 12 4 9 9 -3 4 -7 8 -9 8 -2 0 -6
-4 -9 -8z"/>
<path d="M12555 11601 c-3 -5 -2 -12 3 -15 5 -3 9 1 9 9 0 17 -3 19 -12 6z"/>
<path d="M5235 11581 c-3 -5 -2 -12 3 -15 5 -3 9 1 9 9 0 17 -3 19 -12 6z"/>
<path d="M7490 11580 c0 -5 5 -10 11 -10 5 0 7 5 4 10 -3 6 -8 10 -11 10 -2 0
-4 -4 -4 -10z"/>
<path d="M7535 11579 c-3 -4 2 -6 10 -5 21 3 28 13 10 13 -9 0 -18 -4 -20 -8z"/>
<path d="M8595 11579 c-3 -4 2 -6 10 -5 21 3 28 13 10 13 -9 0 -18 -4 -20 -8z"/>
<path d="M9376 11582 c-3 -4 4 -9 15 -9 23 -2 25 3 4 10 -8 4 -16 3 -19 -1z"/>
<path d="M10975 11579 c-3 -4 2 -6 10 -5 21 3 28 13 10 13 -9 0 -18 -4 -20 -8z"/>
<path d="M12715 11581 c-3 -5 -2 -12 3 -15 5 -3 9 1 9 9 0 17 -3 19 -12 6z"/>
<path d="M15016 11582 c-3 -5 1 -9 9 -9 8 0 12 4 9 9 -3 4 -7 8 -9 8 -2 0 -6
-4 -9 -8z"/>
<path d="M6777 11555 c-4 -8 -3 -16 1 -19 4 -3 9 4 9 15 2 23 -3 25 -10 4z"/>
<path d="M10493 11551 c0 -11 5 -18 9 -15 4 3 5 11 1 19 -7 21 -12 19 -10 -4z"/>
<path d="M15055 11560 c3 -5 8 -10 11 -10 2 0 4 5 4 10 0 6 -5 10 -11 10 -5 0
-7 -4 -4 -10z"/>
<path d="M5175 11539 c-3 -4 2 -6 10 -5 21 3 28 13 10 13 -9 0 -18 -4 -20 -8z"/>
<path d="M7490 11540 c0 -5 5 -10 11 -10 5 0 7 5 4 10 -3 6 -8 10 -11 10 -2 0
-4 -4 -4 -10z"/>
<path d="M9326 11538 c3 -5 10 -6 15 -3 13 9 11 12 -6 12 -8 0 -12 -4 -9 -9z"/>
<path d="M13370 11540 c0 -5 5 -10 11 -10 5 0 7 5 4 10 -3 6 -8 10 -11 10 -2
0 -4 -4 -4 -10z"/>
<path d="M5074 11526 c1 -8 5 -18 8 -22 4 -3 5 1 4 10 -1 8 -5 18 -8 22 -4 3
-5 -1 -4 -10z"/>
<path d="M5109 11523 c-13 -16 -12 -17 4 -4 16 13 21 21 13 21 -2 0 -10 -8
-17 -17z"/>
<path d="M6295 11529 c-4 -6 -5 -12 -2 -15 2 -3 7 2 10 11 7 17 1 20 -8 4z"/>
<path d="M8509 11523 c-13 -16 -12 -17 4 -4 9 7 17 15 17 17 0 8 -8 3 -21 -13z"/>
<path d="M10950 11536 c0 -2 8 -10 18 -17 15 -13 16 -12 3 4 -13 16 -21 21
-21 13z"/>
<path d="M5039 11513 c-13 -16 -12 -17 4 -4 16 13 21 21 13 21 -2 0 -10 -8
-17 -17z"/>
<path d="M14986 11518 c3 -5 10 -6 15 -3 13 9 11 12 -6 12 -8 0 -12 -4 -9 -9z"/>
<path d="M13373 11505 c0 -8 4 -12 9 -9 5 3 6 10 3 15 -9 13 -12 11 -12 -6z"/>
<path d="M7465 11500 c-3 -6 1 -7 9 -4 18 7 21 14 7 14 -6 0 -13 -4 -16 -10z"/>
<path d="M8606 11498 c3 -5 10 -6 15 -3 13 9 11 12 -6 12 -8 0 -12 -4 -9 -9z"/>
<path d="M9334 11502 c4 -3 14 -7 22 -8 9 -1 13 0 10 4 -4 3 -14 7 -22 8 -9 1
-13 0 -10 -4z"/>
<path d="M12653 11495 c0 -8 4 -12 9 -9 5 3 6 10 3 15 -9 13 -12 11 -12 -6z"/>
<path d="M12695 11500 c-3 -5 -1 -10 4 -10 6 0 11 5 11 10 0 6 -2 10 -4 10 -3
0 -8 -4 -11 -10z"/>
<path d="M14939 11508 c-5 -18 -6 -38 -1 -34 7 8 12 36 6 36 -2 0 -4 -1 -5 -2z"/>
<path d="M8714 11486 c1 -8 5 -18 8 -22 4 -3 5 1 4 10 -1 8 -5 18 -8 22 -4 3
-5 -1 -4 -10z"/>
<path d="M10910 11496 c0 -2 8 -10 18 -17 15 -13 16 -12 3 4 -13 16 -21 21
-21 13z"/>
<path d="M5230 11486 c0 -2 7 -7 16 -10 8 -3 12 -2 9 4 -6 10 -25 14 -25 6z"/>
<path d="M7507 11479 c7 -7 15 -10 18 -7 3 3 -2 9 -12 12 -14 6 -15 5 -6 -5z"/>
<path d="M12730 11481 c0 -6 4 -13 10 -16 6 -3 7 1 4 9 -7 18 -14 21 -14 7z"/>
<path d="M15005 11480 c-3 -6 1 -7 9 -4 18 7 21 14 7 14 -6 0 -13 -4 -16 -10z"/>
<path d="M13395 11471 c-3 -5 -2 -12 3 -15 5 -3 9 1 9 9 0 17 -3 19 -12 6z"/>
<path d="M6810 11459 c0 -5 5 -7 10 -4 6 3 10 8 10 11 0 2 -4 4 -10 4 -5 0
-10 -5 -10 -11z"/>
<path d="M12696 11462 c-3 -5 1 -9 9 -9 8 0 12 4 9 9 -3 4 -7 8 -9 8 -2 0 -6
-4 -9 -8z"/>
<path d="M14395 11460 c-3 -5 -1 -10 4 -10 6 0 11 5 11 10 0 6 -2 10 -4 10 -3
0 -8 -4 -11 -10z"/>
<path d="M14490 11460 c0 -5 5 -10 11 -10 5 0 7 5 4 10 -3 6 -8 10 -11 10 -2
0 -4 -4 -4 -10z"/>
<path d="M5355 11440 c3 -5 8 -10 11 -10 2 0 4 5 4 10 0 6 -5 10 -11 10 -5 0
-7 -4 -4 -10z"/>
<path d="M12655 11440 c-3 -5 -1 -10 4 -10 6 0 11 5 11 10 0 6 -2 10 -4 10 -3
0 -8 -4 -11 -10z"/>
<path d="M4414 11422 c4 -3 14 -7 22 -8 9 -1 13 0 10 4 -4 3 -14 7 -22 8 -9 1
-13 0 -10 -4z"/>
<path d="M5033 11415 c0 -8 4 -12 9 -9 5 3 6 10 3 15 -9 13 -12 11 -12 -6z"/>
<path d="M6816 11418 c3 -4 11 -5 19 -1 21 7 19 12 -4 10 -11 0 -18 -5 -15 -9z"/>
<path d="M9333 11409 c-2 -23 3 -25 10 -4 4 8 3 16 -1 19 -4 3 -9 -4 -9 -15z"/>
<path d="M10856 11422 c-3 -5 1 -9 9 -9 8 0 12 4 9 9 -3 4 -7 8 -9 8 -2 0 -6
-4 -9 -8z"/>
<path d="M14434 11422 c4 -3 14 -7 22 -8 9 -1 13 0 10 4 -4 3 -14 7 -22 8 -9
1 -13 0 -10 -4z"/>
<path d="M14915 11420 c-3 -5 -1 -10 4 -10 6 0 11 5 11 10 0 6 -2 10 -4 10 -3
0 -8 -4 -11 -10z"/>
<path d="M9430 11406 c0 -2 7 -7 16 -10 8 -3 12 -2 9 4 -6 10 -25 14 -25 6z"/>
<path d="M10906 11402 c-3 -5 1 -9 9 -9 8 0 12 4 9 9 -3 4 -7 8 -9 8 -2 0 -6
-4 -9 -8z"/>
<path d="M13316 11393 c-6 -14 -5 -15 5 -6 7 7 10 15 7 18 -3 3 -9 -2 -12 -12z"/>
<path d="M13355 11400 c3 -5 8 -10 11 -10 2 0 4 5 4 10 0 6 -5 10 -11 10 -5 0
-7 -4 -4 -10z"/>
<path d="M10813 11385 c0 -8 4 -12 9 -9 5 3 6 10 3 15 -9 13 -12 11 -12 -6z"/>
<path d="M13395 11391 c-3 -5 -2 -12 3 -15 5 -3 9 1 9 9 0 17 -3 19 -12 6z"/>
<path d="M4415 11379 c-3 -4 2 -6 10 -5 21 3 28 13 10 13 -9 0 -18 -4 -20 -8z"/>
<path d="M14856 11378 c3 -4 11 -5 19 -1 21 7 19 12 -4 10 -11 0 -18 -5 -15
-9z"/>
<path d="M5235 11361 c-3 -5 -2 -12 3 -15 5 -3 9 1 9 9 0 17 -3 19 -12 6z"/>
<path d="M9340 11360 c-9 -6 -10 -10 -3 -10 6 0 15 5 18 10 8 12 4 12 -15 0z"/>
<path d="M4394 11342 c4 -3 14 -7 22 -8 9 -1 13 0 10 4 -4 3 -14 7 -22 8 -9 1
-13 0 -10 -4z"/>
<path d="M8695 11340 c3 -5 8 -10 11 -10 2 0 4 5 4 10 0 6 -5 10 -11 10 -5 0
-7 -4 -4 -10z"/>
<path d="M12695 11340 c3 -5 8 -10 11 -10 2 0 4 5 4 10 0 6 -5 10 -11 10 -5 0
-7 -4 -4 -10z"/>
<path d="M4273 11325 c0 -8 4 -12 9 -9 5 3 6 10 3 15 -9 13 -12 11 -12 -6z"/>
<path d="M8659 11328 c-5 -18 -6 -38 -1 -34 7 8 12 36 6 36 -2 0 -4 -1 -5 -2z"/>
<path d="M13507 11319 c7 -7 15 -10 18 -7 3 3 -2 9 -12 12 -14 6 -15 5 -6 -5z"/>
<path d="M12673 11305 c0 -8 4 -12 9 -9 5 3 6 10 3 15 -9 13 -12 11 -12 -6z"/>
<path d="M5055 11300 c3 -5 8 -10 11 -10 2 0 4 5 4 10 0 6 -5 10 -11 10 -5 0
-7 -4 -4 -10z"/>
<path d="M6853 11295 c0 -8 4 -12 9 -9 5 3 6 10 3 15 -9 13 -12 11 -12 -6z"/>
<path d="M7495 11300 c-3 -5 -1 -10 4 -10 6 0 11 5 11 10 0 6 -2 10 -4 10 -3
0 -8 -4 -11 -10z"/>
<path d="M10375 11300 c3 -5 8 -10 11 -10 2 0 4 5 4 10 0 6 -5 10 -11 10 -5 0
-7 -4 -4 -10z"/>
<path d="M13335 11300 c3 -5 8 -10 11 -10 2 0 4 5 4 10 0 6 -5 10 -11 10 -5 0
-7 -4 -4 -10z"/>
<path d="M14390 11299 c0 -5 5 -7 10 -4 6 3 10 8 10 11 0 2 -4 4 -10 4 -5 0
-10 -5 -10 -11z"/>
<path d="M4430 11278 c0 -4 4 -8 9 -8 6 0 12 4 15 8 3 5 -1 9 -9 9 -8 0 -15
-4 -15 -9z"/>
<path d="M6856 11262 c-3 -5 1 -9 9 -9 8 0 12 4 9 9 -3 4 -7 8 -9 8 -2 0 -6
-4 -9 -8z"/>
<path d="M12673 11255 c0 -8 4 -12 9 -9 5 3 6 10 3 15 -9 13 -12 11 -12 -6z"/>
<path d="M14356 11238 c3 -5 10 -6 15 -3 13 9 11 12 -6 12 -8 0 -12 -4 -9 -9z"/>
<path d="M4406 11222 c-3 -5 1 -9 9 -9 8 0 12 4 9 9 -3 4 -7 8 -9 8 -2 0 -6
-4 -9 -8z"/>
<path d="M13375 11191 c-3 -5 -2 -12 3 -15 5 -3 9 1 9 9 0 17 -3 19 -12 6z"/>
<path d="M4430 11180 c0 -5 5 -10 11 -10 5 0 7 5 4 10 -3 6 -8 10 -11 10 -2 0
-4 -4 -4 -10z"/>
<path d="M5055 11180 c3 -5 8 -10 11 -10 2 0 4 5 4 10 0 6 -5 10 -11 10 -5 0
-7 -4 -4 -10z"/>
<path d="M6859 11188 c-5 -18 -6 -38 -1 -34 7 8 12 36 6 36 -2 0 -4 -1 -5 -2z"/>
<path d="M7470 11185 c0 -7 30 -13 34 -7 3 4 -4 9 -15 9 -10 1 -19 0 -19 -2z"/>
<path d="M5110 11161 c0 -6 4 -13 10 -16 6 -3 7 1 4 9 -7 18 -14 21 -14 7z"/>
<path d="M12720 11160 c-9 -6 -10 -10 -3 -10 6 0 15 5 18 10 8 12 4 12 -15 0z"/>
<path d="M6895 11140 c3 -5 8 -10 11 -10 2 0 4 5 4 10 0 6 -5 10 -11 10 -5 0
-7 -4 -4 -10z"/>
<path d="M4390 11136 c0 -2 8 -10 18 -17 15 -13 16 -12 3 4 -13 16 -21 21 -21
13z"/>
<path d="M8680 11120 c-9 -6 -10 -10 -3 -10 6 0 15 5 18 10 8 12 4 12 -15 0z"/>
<path d="M5046 11102 c-3 -5 1 -9 9 -9 8 0 12 4 9 9 -3 4 -7 8 -9 8 -2 0 -6
-4 -9 -8z"/>
<path d="M5096 11098 c3 -5 10 -6 15 -3 13 9 11 12 -6 12 -8 0 -12 -4 -9 -9z"/>
<path d="M13330 11100 c0 -5 5 -10 11 -10 5 0 7 5 4 10 -3 6 -8 10 -11 10 -2
0 -4 -4 -4 -10z"/>
<path d="M6866 11078 c3 -5 10 -6 15 -3 13 9 11 12 -6 12 -8 0 -12 -4 -9 -9z"/>
<path d="M8666 11078 c3 -5 10 -6 15 -3 13 9 11 12 -6 12 -8 0 -12 -4 -9 -9z"/>
<path d="M12694 11076 c1 -8 5 -18 8 -22 4 -3 5 1 4 10 -1 8 -5 18 -8 22 -4 3
-5 -1 -4 -10z"/>
<path d="M6833 11065 c0 -8 4 -12 9 -9 5 3 6 10 3 15 -9 13 -12 11 -12 -6z"/>
<path d="M4455 11060 c3 -5 8 -10 11 -10 2 0 4 5 4 10 0 6 -5 10 -11 10 -5 0
-7 -4 -4 -10z"/>
<path d="M7475 11060 c-3 -5 -1 -10 4 -10 6 0 11 5 11 10 0 6 -2 10 -4 10 -3
0 -8 -4 -11 -10z"/>
<path d="M8714 11049 c-3 -6 -2 -15 3 -20 5 -5 9 -1 9 11 0 23 -2 24 -12 9z"/>
<path d="M10599 11033 c-13 -16 -12 -17 4 -4 9 7 17 15 17 17 0 8 -8 3 -21
-13z"/>
<path d="M4455 11020 c-3 -5 -1 -10 4 -10 6 0 11 5 11 10 0 6 -2 10 -4 10 -3
0 -8 -4 -11 -10z"/>
<path d="M6846 11018 c3 -5 10 -6 15 -3 13 9 11 12 -6 12 -8 0 -12 -4 -9 -9z"/>
<path d="M7494 11022 c4 -3 14 -7 22 -8 9 -1 13 0 10 4 -4 3 -14 7 -22 8 -9 1
-13 0 -10 -4z"/>
<path d="M8656 11022 c-2 -4 -1 -14 4 -22 7 -11 9 -9 7 8 -1 24 -3 26 -11 14z"/>
<path d="M9295 11020 c-3 -5 -1 -10 4 -10 6 0 11 5 11 10 0 6 -2 10 -4 10 -3
0 -8 -4 -11 -10z"/>
<path d="M9346 10998 c3 -5 10 -6 15 -3 13 9 11 12 -6 12 -8 0 -12 -4 -9 -9z"/>
<path d="M5046 10978 c3 -5 10 -6 15 -3 13 9 11 12 -6 12 -8 0 -12 -4 -9 -9z"/>
<path d="M8480 10980 c-9 -6 -10 -10 -3 -10 6 0 15 5 18 10 8 12 4 12 -15 0z"/>
<path d="M12695 10979 c-3 -4 2 -6 10 -5 21 3 28 13 10 13 -9 0 -18 -4 -20 -8z"/>
<path d="M13376 10978 c3 -4 11 -5 19 -1 21 7 19 12 -4 10 -11 0 -18 -5 -15
-9z"/>
<path d="M6876 10967 c3 -10 9 -15 12 -12 3 3 0 11 -7 18 -10 9 -11 8 -5 -6z"/>
<path d="M4399 10953 c-13 -16 -12 -17 4 -4 16 13 21 21 13 21 -2 0 -10 -8
-17 -17z"/>
<path d="M8670 10966 c0 -2 7 -7 16 -10 8 -3 12 -2 9 4 -6 10 -25 14 -25 6z"/>
<path d="M8653 10945 c0 -8 4 -12 9 -9 5 3 6 10 3 15 -9 13 -12 11 -12 -6z"/>
<path d="M6834 10942 c4 -3 14 -7 22 -8 9 -1 13 0 10 4 -4 3 -14 7 -22 8 -9 1
-13 0 -10 -4z"/>
<path d="M12686 10938 c3 -5 10 -6 15 -3 13 9 11 12 -6 12 -8 0 -12 -4 -9 -9z"/>
<path d="M6880 10920 c-9 -6 -10 -10 -3 -10 6 0 15 5 18 10 8 12 4 12 -15 0z"/>
<path d="M10665 10920 c-3 -6 1 -7 9 -4 18 7 21 14 7 14 -6 0 -13 -4 -16 -10z"/>
<path d="M4430 10899 c0 -5 5 -7 10 -4 6 3 10 8 10 11 0 2 -4 4 -10 4 -5 0
-10 -5 -10 -11z"/>
<path d="M13309 10883 c-13 -16 -12 -17 4 -4 9 7 17 15 17 17 0 8 -8 3 -21
-13z"/>
<path d="M6806 10878 c3 -5 10 -6 15 -3 13 9 11 12 -6 12 -8 0 -12 -4 -9 -9z"/>
<path d="M9436 10882 c-3 -5 1 -9 9 -9 8 0 12 4 9 9 -3 4 -7 8 -9 8 -2 0 -6
-4 -9 -8z"/>
<path d="M6856 10867 c3 -10 9 -15 12 -12 3 3 0 11 -7 18 -10 9 -11 8 -5 -6z"/>
<path d="M7496 10858 c3 -5 10 -6 15 -3 13 9 11 12 -6 12 -8 0 -12 -4 -9 -9z"/>
<path d="M8646 10862 c-3 -5 1 -9 9 -9 8 0 12 4 9 9 -3 4 -7 8 -9 8 -2 0 -6
-4 -9 -8z"/>
<path d="M8696 10862 c-3 -5 1 -9 9 -9 8 0 12 4 9 9 -3 4 -7 8 -9 8 -2 0 -6
-4 -9 -8z"/>
<path d="M14510 10861 c0 -6 4 -13 10 -16 6 -3 7 1 4 9 -7 18 -14 21 -14 7z"/>
<path d="M9834 10840 c0 -13 4 -16 10 -10 7 7 7 13 0 20 -6 6 -10 3 -10 -10z"/>
<path d="M5033 10835 c0 -8 4 -12 9 -9 5 3 6 10 3 15 -9 13 -12 11 -12 -6z"/>
<path d="M13440 10835 c-7 -9 -11 -17 -9 -20 3 -2 10 5 17 15 14 24 10 26 -8
5z"/>
<path d="M6854 10816 c1 -8 5 -18 8 -22 4 -3 5 1 4 10 -1 8 -5 18 -8 22 -4 3
-5 -1 -4 -10z"/>
<path d="M9333 10815 c0 -8 4 -12 9 -9 5 3 6 10 3 15 -9 13 -12 11 -12 -6z"/>
<path d="M8556 10802 c-3 -5 1 -9 9 -9 8 0 12 4 9 9 -3 4 -7 8 -9 8 -2 0 -6
-4 -9 -8z"/>
<path d="M12695 10791 c-3 -5 -2 -12 3 -15 5 -3 9 1 9 9 0 17 -3 19 -12 6z"/>
<path d="M7499 10788 c-5 -18 -6 -38 -1 -34 7 8 12 36 6 36 -2 0 -4 -1 -5 -2z"/>
<path d="M12735 10780 c-3 -5 -1 -10 4 -10 6 0 11 5 11 10 0 6 -2 10 -4 10 -3
0 -8 -4 -11 -10z"/>
<path d="M13330 10780 c0 -5 5 -10 11 -10 5 0 7 5 4 10 -3 6 -8 10 -11 10 -2
0 -4 -4 -4 -10z"/>
<path d="M9276 10767 c3 -10 9 -15 12 -12 3 3 0 11 -7 18 -10 9 -11 8 -5 -6z"/>
<path d="M9315 10760 c-3 -5 -1 -10 4 -10 6 0 11 5 11 10 0 6 -2 10 -4 10 -3
0 -8 -4 -11 -10z"/>
<path d="M9355 10751 c-3 -5 -2 -12 3 -15 5 -3 9 1 9 9 0 17 -3 19 -12 6z"/>
<path d="M4390 10745 c0 -7 30 -13 34 -7 3 4 -4 9 -15 9 -10 1 -19 0 -19 -2z"/>
<path d="M4455 10740 c3 -5 8 -10 11 -10 2 0 4 5 4 10 0 6 -5 10 -11 10 -5 0
-7 -4 -4 -10z"/>
<path d="M12730 10739 c0 -5 5 -7 10 -4 6 3 10 8 10 11 0 2 -4 4 -10 4 -5 0
-10 -5 -10 -11z"/>
<path d="M13330 10740 c0 -5 5 -10 11 -10 5 0 7 5 4 10 -3 6 -8 10 -11 10 -2
0 -4 -4 -4 -10z"/>
<path d="M6869 10723 c-13 -16 -12 -17 4 -4 9 7 17 15 17 17 0 8 -8 3 -21 -13z"/>
<path d="M9270 10736 c0 -2 8 -10 18 -17 15 -13 16 -12 3 4 -13 16 -21 21 -21
13z"/>
<path d="M12520 10726 c0 -2 8 -10 18 -17 15 -13 16 -12 3 4 -13 16 -21 21
-21 13z"/>
<path d="M7475 10700 c3 -5 8 -10 11 -10 2 0 4 5 4 10 0 6 -5 10 -11 10 -5 0
-7 -4 -4 -10z"/>
<path d="M7665 10700 c-3 -6 1 -7 9 -4 18 7 21 14 7 14 -6 0 -13 -4 -16 -10z"/>
<path d="M12690 10699 c0 -5 5 -7 10 -4 6 3 10 8 10 11 0 2 -4 4 -10 4 -5 0
-10 -5 -10 -11z"/>
<path d="M7555 10680 c3 -5 8 -10 11 -10 2 0 4 5 4 10 0 6 -5 10 -11 10 -5 0
-7 -4 -4 -10z"/>
<path d="M9334 10676 c1 -8 5 -18 8 -22 4 -3 5 1 4 10 -1 8 -5 18 -8 22 -4 3
-5 -1 -4 -10z"/>
<path d="M10395 10681 c-3 -5 -2 -12 3 -15 5 -3 9 1 9 9 0 17 -3 19 -12 6z"/>
<path d="M13415 10671 c-3 -5 -2 -12 3 -15 5 -3 9 1 9 9 0 17 -3 19 -12 6z"/>
<path d="M8670 10659 c0 -5 5 -7 10 -4 6 3 10 8 10 11 0 2 -4 4 -10 4 -5 0
-10 -5 -10 -11z"/>
<path d="M5355 10640 c3 -5 8 -10 11 -10 2 0 4 5 4 10 0 6 -5 10 -11 10 -5 0
-7 -4 -4 -10z"/>
<path d="M6854 10636 c1 -8 5 -18 8 -22 4 -3 5 1 4 10 -1 8 -5 18 -8 22 -4 3
-5 -1 -4 -10z"/>
<path d="M9826 10642 c-3 -5 1 -9 9 -9 8 0 12 4 9 9 -3 4 -7 8 -9 8 -2 0 -6
-4 -9 -8z"/>
<path d="M12670 10640 c0 -5 5 -10 11 -10 5 0 7 5 4 10 -3 6 -8 10 -11 10 -2
0 -4 -4 -4 -10z"/>
<path d="M12715 10640 c3 -5 8 -10 11 -10 2 0 4 5 4 10 0 6 -5 10 -11 10 -5 0
-7 -4 -4 -10z"/>
<path d="M6715 10629 c-4 -6 -5 -12 -2 -15 2 -3 7 2 10 11 7 17 1 20 -8 4z"/>
<path d="M9375 10631 c-3 -5 -2 -12 3 -15 5 -3 9 1 9 9 0 17 -3 19 -12 6z"/>
<path d="M7474 10622 c4 -3 14 -7 22 -8 9 -1 13 0 10 4 -4 3 -14 7 -22 8 -9 1
-13 0 -10 -4z"/>
<path d="M13354 10609 c-3 -6 -2 -15 3 -20 5 -5 9 -1 9 11 0 23 -2 24 -12 9z"/>
<path d="M5080 10600 c8 -5 20 -10 25 -10 6 0 3 5 -5 10 -8 5 -19 10 -25 10
-5 0 -3 -5 5 -10z"/>
<path d="M7620 10606 c0 -2 8 -10 18 -17 15 -13 16 -12 3 4 -13 16 -21 21 -21
13z"/>
<path d="M12696 10602 c-2 -4 -1 -14 4 -22 7 -11 9 -9 7 8 -1 24 -3 26 -11 14z"/>
<path d="M13315 10600 c-3 -5 -1 -10 4 -10 6 0 11 5 11 10 0 6 -2 10 -4 10 -3
0 -8 -4 -11 -10z"/>
<path d="M13435 10600 c-3 -5 -1 -10 4 -10 6 0 11 5 11 10 0 6 -2 10 -4 10 -3
0 -8 -4 -11 -10z"/>
<path d="M6853 10575 c0 -8 4 -12 9 -9 5 3 6 10 3 15 -9 13 -12 11 -12 -6z"/>
<path d="M9394 10582 c4 -3 14 -7 22 -8 9 -1 13 0 10 4 -4 3 -14 7 -22 8 -9 1
-13 0 -10 -4z"/>
<path d="M7493 10545 c0 -8 4 -12 9 -9 5 3 6 10 3 15 -9 13 -12 11 -12 -6z"/>
<path d="M9415 10551 c-3 -5 -2 -12 3 -15 5 -3 9 1 9 9 0 17 -3 19 -12 6z"/>
<path d="M9815 10551 c-3 -5 -2 -12 3 -15 5 -3 9 1 9 9 0 17 -3 19 -12 6z"/>
<path d="M4455 10540 c-3 -5 -1 -10 4 -10 6 0 11 5 11 10 0 6 -2 10 -4 10 -3
0 -8 -4 -11 -10z"/>
<path d="M9476 10533 c-6 -14 -5 -15 5 -6 7 7 10 15 7 18 -3 3 -9 -2 -12 -12z"/>
<path d="M14250 10545 c0 -5 5 -17 10 -25 5 -8 10 -10 10 -5 0 6 -5 17 -10 25
-5 8 -10 11 -10 5z"/>
<path d="M9617 10515 c-4 -8 -3 -16 1 -19 4 -3 9 4 9 15 2 23 -3 25 -10 4z"/>
<path d="M13360 10515 c-7 -8 -9 -15 -5 -15 4 0 2 -6 -4 -13 -8 -10 -7 -14 3
-14 8 0 13 7 11 16 -1 9 2 22 8 29 14 17 2 15 -13 -3z"/>
<path d="M13775 10520 c3 -5 8 -10 11 -10 2 0 4 5 4 10 0 6 -5 10 -11 10 -5 0
-7 -4 -4 -10z"/>
<path d="M5046 10498 c3 -5 10 -6 15 -3 13 9 11 12 -6 12 -8 0 -12 -4 -9 -9z"/>
<path d="M6830 10505 c0 -7 30 -13 34 -7 3 4 -4 9 -15 9 -10 1 -19 0 -19 -2z"/>
<path d="M8670 10499 c0 -5 5 -7 10 -4 6 3 10 8 10 11 0 2 -4 4 -10 4 -5 0
-10 -5 -10 -11z"/>
<path d="M9279 10493 c-13 -16 -12 -17 4 -4 16 13 21 21 13 21 -2 0 -10 -8
-17 -17z"/>
<path d="M9715 10499 c-3 -4 2 -6 10 -5 21 3 28 13 10 13 -9 0 -18 -4 -20 -8z"/>
<path d="M13306 10498 c3 -4 9 -8 15 -8 5 0 9 4 9 8 0 5 -7 9 -15 9 -8 0 -12
-4 -9 -9z"/>
<path d="M13490 10499 c0 -5 5 -7 10 -4 6 3 10 8 10 11 0 2 -4 4 -10 4 -5 0
-10 -5 -10 -11z"/>
<path d="M13555 10499 c-3 -4 2 -6 10 -5 21 3 28 13 10 13 -9 0 -18 -4 -20 -8z"/>
<path d="M13816 10498 c3 -5 10 -6 15 -3 13 9 11 12 -6 12 -8 0 -12 -4 -9 -9z"/>
<path d="M9313 10485 c0 -8 4 -15 9 -15 4 0 8 4 8 9 0 6 -4 12 -8 15 -5 3 -9
-1 -9 -9z"/>
<path d="M12675 10491 c-3 -5 -2 -12 3 -15 5 -3 9 1 9 9 0 17 -3 19 -12 6z"/>
<path d="M4399 10473 c-13 -16 -12 -17 4 -4 9 7 17 15 17 17 0 8 -8 3 -21 -13z"/>
<path d="M13649 10477 c6 -8 7 -18 3 -22 -4 -5 -1 -5 6 -1 10 6 10 11 1 22 -6
8 -14 14 -16 14 -3 0 0 -6 6 -13z"/>
<path d="M7515 10470 c-4 -6 -12 -7 -18 -4 -7 4 -8 3 -4 -1 13 -15 34 -14 34
1 0 17 -4 18 -12 4z"/>
<path d="M6846 10458 c3 -5 10 -6 15 -3 13 9 11 12 -6 12 -8 0 -12 -4 -9 -9z"/>
<path d="M9275 10460 c-3 -5 -1 -10 4 -10 6 0 11 5 11 10 0 6 -2 10 -4 10 -3
0 -8 -4 -11 -10z"/>
<path d="M9450 10460 c0 -5 5 -10 11 -10 5 0 7 5 4 10 -3 6 -8 10 -11 10 -2 0
-4 -4 -4 -10z"/>
<path d="M9496 10458 c3 -5 10 -6 15 -3 13 9 11 12 -6 12 -8 0 -12 -4 -9 -9z"/>
<path d="M9653 10455 c0 -8 4 -12 9 -9 5 3 6 10 3 15 -9 13 -12 11 -12 -6z"/>
<path d="M9319 10458 c-5 -9 -5 -48 -1 -43 6 6 11 45 5 45 -2 0 -4 -1 -4 -2z"/>
<path d="M9555 10451 c-3 -5 -2 -12 3 -15 5 -3 9 1 9 9 0 17 -3 19 -12 6z"/>
<path d="M13330 10456 c0 -2 8 -10 18 -17 15 -13 16 -12 3 4 -13 16 -21 21
-21 13z"/>
<path d="M4430 10419 c0 -5 5 -7 10 -4 6 3 10 8 10 11 0 2 -4 4 -10 4 -5 0
-10 -5 -10 -11z"/>
<path d="M9345 10420 c-3 -6 1 -7 9 -4 18 7 21 14 7 14 -6 0 -13 -4 -16 -10z"/>
<path d="M9455 10420 c3 -5 8 -10 11 -10 2 0 4 5 4 10 0 6 -5 10 -11 10 -5 0
-7 -4 -4 -10z"/>
<path d="M9490 10419 c0 -5 5 -7 10 -4 6 3 10 8 10 11 0 2 -4 4 -10 4 -5 0
-10 -5 -10 -11z"/>
<path d="M9655 10420 c-3 -5 -1 -10 4 -10 6 0 11 5 11 10 0 6 -2 10 -4 10 -3
0 -8 -4 -11 -10z"/>
<path d="M9695 10420 c-3 -5 -1 -10 4 -10 6 0 11 5 11 10 0 6 -2 10 -4 10 -3
0 -8 -4 -11 -10z"/>
<path d="M12686 10422 c-3 -5 1 -9 9 -9 8 0 12 4 9 9 -3 4 -7 8 -9 8 -2 0 -6
-4 -9 -8z"/>
<path d="M14155 10419 c-3 -4 2 -6 10 -5 21 3 28 13 10 13 -9 0 -18 -4 -20 -8z"/>
<path d="M9286 10402 c-3 -5 1 -9 9 -9 8 0 12 4 9 9 -3 4 -7 8 -9 8 -2 0 -6
-4 -9 -8z"/>
<path d="M9553 10395 c0 -8 4 -12 9 -9 4 3 8 9 8 15 0 5 -4 9 -8 9 -5 0 -9 -7
-9 -15z"/>
<path d="M4413 10385 c0 -8 4 -12 9 -9 5 3 6 10 3 15 -9 13 -12 11 -12 -6z"/>
<path d="M12695 10391 c-3 -5 -2 -12 3 -15 5 -3 9 1 9 9 0 17 -3 19 -12 6z"/>
<path d="M6846 10378 c3 -5 10 -6 15 -3 13 9 11 12 -6 12 -8 0 -12 -4 -9 -9z"/>
<path d="M7499 10388 c-5 -18 -6 -38 -1 -34 7 8 12 36 6 36 -2 0 -4 -1 -5 -2z"/>
<path d="M13329 10363 c-13 -16 -12 -17 4 -4 9 7 17 15 17 17 0 8 -8 3 -21
-13z"/>
<path d="M13474 10366 c1 -8 5 -18 8 -22 4 -3 5 1 4 10 -1 8 -5 18 -8 22 -4 3
-5 -1 -4 -10z"/>
<path d="M5070 10366 c0 -2 7 -7 16 -10 8 -3 12 -2 9 4 -6 10 -25 14 -25 6z"/>
<path d="M8506 10362 c-3 -5 1 -9 9 -9 8 0 12 4 9 9 -3 4 -7 8 -9 8 -2 0 -6
-4 -9 -8z"/>
<path d="M9333 10355 c0 -8 4 -12 9 -9 4 3 8 9 8 15 0 5 -4 9 -8 9 -5 0 -9 -7
-9 -15z"/>
<path d="M9360 10365 c0 -2 6 -8 13 -14 10 -8 14 -7 14 2 0 8 -6 14 -14 14 -7
0 -13 -1 -13 -2z"/>
<path d="M9530 10361 c0 -6 4 -13 10 -16 6 -3 7 1 4 9 -7 18 -14 21 -14 7z"/>
<path d="M14179 10368 c-5 -18 -6 -38 -1 -34 7 8 12 36 6 36 -2 0 -4 -1 -5 -2z"/>
<path d="M8653 10345 c0 -8 4 -12 9 -9 5 3 6 10 3 15 -9 13 -12 11 -12 -6z"/>
<path d="M9430 10340 c0 -5 5 -10 10 -10 6 0 10 5 10 10 0 6 -4 10 -10 10 -5
0 -10 -4 -10 -10z"/>
<path d="M10055 10340 c-3 -5 -1 -10 4 -10 6 0 11 5 11 10 0 6 -2 10 -4 10 -3
0 -8 -4 -11 -10z"/>
<path d="M10090 10339 c0 -5 5 -7 10 -4 6 3 10 8 10 11 0 2 -4 4 -10 4 -5 0
-10 -5 -10 -11z"/>
<path d="M13345 10339 c-3 -4 2 -6 10 -5 21 3 28 13 10 13 -9 0 -18 -4 -20 -8z"/>
<path d="M13555 10341 c-3 -5 -2 -12 3 -15 5 -3 9 1 9 9 0 17 -3 19 -12 6z"/>
<path d="M6876 10327 c3 -10 9 -15 12 -12 3 3 0 11 -7 18 -10 9 -11 8 -5 -6z"/>
<path d="M14233 10325 c0 -8 4 -12 9 -9 5 3 6 10 3 15 -9 13 -12 11 -12 -6z"/>
<path d="M8707 10319 c7 -7 15 -10 18 -7 3 3 -2 9 -12 12 -14 6 -15 5 -6 -5z"/>
<path d="M9475 10320 c3 -5 8 -10 11 -10 2 0 4 5 4 10 0 6 -5 10 -11 10 -5 0
-7 -4 -4 -10z"/>
<path d="M9505 10319 c-3 -4 2 -6 10 -5 21 3 28 13 10 13 -9 0 -18 -4 -20 -8z"/>
<path d="M12689 10317 c6 -8 7 -18 3 -22 -4 -5 -1 -5 6 -1 10 6 10 11 1 22 -6
8 -14 14 -16 14 -3 0 0 -6 6 -13z"/>
<path d="M13613 10313 c0 -9 4 -10 14 -2 7 6 13 12 13 14 0 1 -6 2 -13 2 -8 0
-14 -6 -14 -14z"/>
<path d="M14391 10307 c-13 -21 -12 -21 5 -5 10 10 16 20 13 22 -3 3 -11 -5
-18 -17z"/>
<path d="M4415 10311 c-3 -5 -2 -12 3 -15 5 -3 9 1 9 9 0 17 -3 19 -12 6z"/>
<path d="M13309 10303 c-13 -16 -12 -17 3 -5 9 8 23 10 29 6 8 -4 9 -3 5 4
-10 17 -21 15 -37 -5z"/>
<path d="M8656 10302 c-2 -4 -1 -14 4 -22 7 -11 9 -9 7 8 -1 24 -3 26 -11 14z"/>
<path d="M9550 10300 c0 -4 7 -7 15 -6 23 3 26 12 5 13 -11 1 -20 -2 -20 -7z"/>
<path d="M10095 10300 c-3 -5 -1 -10 4 -10 6 0 11 5 11 10 0 6 -2 10 -4 10 -3
0 -8 -4 -11 -10z"/>
<path d="M14174 10296 c1 -8 5 -18 8 -22 4 -3 5 1 4 10 -1 8 -5 18 -8 22 -4 3
-5 -1 -4 -10z"/>
<path d="M9373 10285 c0 -8 3 -13 5 -10 3 3 12 -1 21 -7 10 -8 9 -4 -3 10 -23
26 -23 26 -23 7z"/>
<path d="M13450 10296 c0 -2 8 -10 18 -17 15 -13 16 -12 3 4 -13 16 -21 21
-21 13z"/>
<path d="M6880 10280 c-9 -6 -10 -10 -3 -10 6 0 15 5 18 10 8 12 4 12 -15 0z"/>
<path d="M9291 10287 c2 -1 15 -11 29 -22 l25 -20 -19 23 c-11 12 -24 22 -29
22 -6 0 -8 -1 -6 -3z"/>
<path d="M9430 10255 c5 -7 6 -16 2 -21 -4 -5 -3 -5 2 -1 15 12 15 34 0 34 -9
0 -11 -4 -4 -12z"/>
<path d="M9956 10262 c-3 -5 1 -9 9 -9 8 0 12 4 9 9 -3 4 -7 8 -9 8 -2 0 -6
-4 -9 -8z"/>
<path d="M12697 10255 c-4 -8 -3 -16 1 -19 4 -3 9 4 9 15 2 23 -3 25 -10 4z"/>
<path d="M13426 10258 c3 -4 9 -8 15 -8 5 0 9 4 9 8 0 5 -7 9 -15 9 -8 0 -12
-4 -9 -9z"/>
<path d="M13999 10253 c-13 -16 -12 -17 4 -4 16 13 21 21 13 21 -2 0 -10 -8
-17 -17z"/>
<path d="M14230 10261 c0 -6 4 -13 10 -16 6 -3 7 1 4 9 -7 18 -14 21 -14 7z"/>
<path d="M9374 10246 c1 -8 5 -18 8 -22 4 -3 5 1 4 10 -1 8 -5 18 -8 22 -4 3
-5 -1 -4 -10z"/>
<path d="M10035 10251 c-3 -5 -2 -12 3 -15 5 -3 9 1 9 9 0 17 -3 19 -12 6z"/>
<path d="M13374 10246 c1 -8 5 -18 8 -22 4 -3 5 1 4 10 -1 8 -5 18 -8 22 -4 3
-5 -1 -4 -10z"/>
<path d="M13490 10257 c0 -2 6 -10 14 -16 11 -9 16 -9 22 1 4 7 4 10 -1 6 -4
-4 -14 -3 -22 3 -7 6 -13 9 -13 6z"/>
<path d="M14030 10256 c0 -2 8 -10 18 -17 15 -13 16 -12 3 4 -13 16 -21 21
-21 13z"/>
<path d="M5033 10235 c0 -8 4 -12 9 -9 5 3 6 10 3 15 -9 13 -12 11 -12 -6z"/>
<path d="M6857 10235 c-4 -8 -3 -16 1 -19 4 -3 9 4 9 15 2 23 -3 25 -10 4z"/>
<path d="M8670 10246 c0 -2 7 -7 16 -10 8 -3 12 -2 9 4 -6 10 -25 14 -25 6z"/>
<path d="M10174 10235 c3 -23 12 -26 13 -5 1 11 -2 20 -7 20 -4 0 -7 -7 -6
-15z"/>
<path d="M10226 10238 c3 -5 10 -6 15 -3 13 9 11 12 -6 12 -8 0 -12 -4 -9 -9z"/>
<path d="M13348 10232 c-3 -11 0 -19 7 -19 7 0 10 8 7 19 -2 10 -6 18 -7 18
-1 0 -5 -8 -7 -18z"/>
<path d="M13406 10237 c3 -10 9 -15 12 -12 3 3 0 11 -7 18 -10 9 -11 8 -5 -6z"/>
<path d="M14193 10235 c0 -8 4 -12 9 -9 5 3 6 10 3 15 -9 13 -12 11 -12 -6z"/>
<path d="M8653 10225 c0 -8 4 -12 9 -9 5 3 6 10 3 15 -9 13 -12 11 -12 -6z"/>
<path d="M7486 10222 c-3 -5 1 -9 9 -9 8 0 12 4 9 9 -3 4 -7 8 -9 8 -2 0 -6
-4 -9 -8z"/>
<path d="M9990 10216 c7 -7 13 -7 20 0 6 6 3 10 -10 10 -13 0 -16 -4 -10 -10z"/>
<path d="M13310 10223 c0 -6 8 -17 18 -24 16 -13 16 -13 2 6 -8 11 -16 22 -17
24 -2 2 -3 0 -3 -6z"/>
<path d="M9415 10210 c-3 -6 -18 -8 -32 -6 -14 3 -22 2 -19 -2 14 -13 63 -10
63 4 0 17 -4 18 -12 4z"/>
<path d="M10033 10205 c0 -8 4 -12 9 -9 5 3 6 10 3 15 -9 13 -12 11 -12 -6z"/>
<path d="M14110 10216 c0 -2 8 -10 18 -17 15 -13 16 -12 3 4 -13 16 -21 21
-21 13z"/>
<path d="M4390 10206 c0 -2 7 -7 16 -10 8 -3 12 -2 9 4 -6 10 -25 14 -25 6z"/>
<path d="M12715 10200 c3 -5 8 -10 11 -10 2 0 4 5 4 10 0 6 -5 10 -11 10 -5 0
-7 -4 -4 -10z"/>
<path d="M13430 10205 c0 -7 30 -13 34 -7 3 4 -4 9 -15 9 -10 1 -19 0 -19 -2z"/>
<path d="M14005 10199 c-3 -4 2 -6 10 -5 21 3 28 13 10 13 -9 0 -18 -4 -20 -8z"/>
<path d="M14213 10189 c-2 -23 3 -25 10 -4 4 8 3 16 -1 19 -4 3 -9 -4 -9 -15z"/>
<path d="M9315 10190 c-4 -6 -12 -7 -18 -4 -7 4 -9 3 -4 -1 13 -15 46 -13 40
2 -6 16 -10 16 -18 3z"/>
<path d="M9996 10187 c3 -10 9 -15 12 -12 3 3 0 11 -7 18 -10 9 -11 8 -5 -6z"/>
<path d="M4450 10179 c0 -5 5 -7 10 -4 6 3 10 8 10 11 0 2 -4 4 -10 4 -5 0
-10 -5 -10 -11z"/>
<path d="M6854 10176 c1 -8 5 -18 8 -22 4 -3 5 1 4 10 -1 8 -5 18 -8 22 -4 3
-5 -1 -4 -10z"/>
<path d="M12675 10179 c-3 -4 2 -6 10 -5 21 3 28 13 10 13 -9 0 -18 -4 -20 -8z"/>
<path d="M10053 10165 c0 -8 4 -15 9 -15 4 0 8 4 8 9 0 6 -4 12 -8 15 -5 3 -9
-1 -9 -9z"/>
<path d="M10114 10166 c1 -8 5 -18 8 -22 4 -3 5 1 4 10 -1 8 -5 18 -8 22 -4 3
-5 -1 -4 -10z"/>
<path d="M14160 10160 c-9 -6 -10 -10 -3 -10 6 0 15 5 18 10 8 12 4 12 -15 0z"/>
<path d="M4450 10140 c0 -5 5 -10 11 -10 5 0 7 5 4 10 -3 6 -8 10 -11 10 -2 0
-4 -4 -4 -10z"/>
<path d="M5046 10142 c-3 -5 1 -9 9 -9 8 0 12 4 9 9 -3 4 -7 8 -9 8 -2 0 -6
-4 -9 -8z"/>
<path d="M6795 10141 c-3 -5 -2 -12 3 -15 5 -3 9 1 9 9 0 17 -3 19 -12 6z"/>
<path d="M7474 10142 c4 -3 14 -7 22 -8 9 -1 13 0 10 4 -4 3 -14 7 -22 8 -9 1
-13 0 -10 -4z"/>
<path d="M8635 10139 c-3 -4 2 -6 10 -5 21 3 28 13 10 13 -9 0 -18 -4 -20 -8z"/>
<path d="M10170 10139 c0 -5 5 -7 10 -4 6 3 10 8 10 11 0 2 -4 4 -10 4 -5 0
-10 -5 -10 -11z"/>
<path d="M4396 10118 c3 -5 10 -6 15 -3 13 9 11 12 -6 12 -8 0 -12 -4 -9 -9z"/>
<path d="M10233 10115 c0 -8 4 -12 9 -9 5 3 6 10 3 15 -9 13 -12 11 -12 -6z"/>
<path d="M14110 10098 c0 -4 4 -8 9 -8 6 0 12 4 15 8 3 5 -1 9 -9 9 -8 0 -15
-4 -15 -9z"/>
<path d="M10095 10091 c-3 -5 -2 -12 3 -15 5 -3 9 1 9 9 0 17 -3 19 -12 6z"/>
<path d="M5064 10082 c4 -3 14 -7 22 -8 9 -1 13 0 10 4 -4 3 -14 7 -22 8 -9 1
-13 0 -10 -4z"/>
<path d="M8665 10079 c-3 -4 2 -6 10 -5 21 3 28 13 10 13 -9 0 -18 -4 -20 -8z"/>
<path d="M10239 10073 c-13 -16 -12 -17 4 -4 9 7 17 15 17 17 0 8 -8 3 -21
-13z"/>
<path d="M7496 10058 c3 -5 10 -6 15 -3 13 9 11 12 -6 12 -8 0 -12 -4 -9 -9z"/>
<path d="M7516 10033 c-6 -14 -5 -15 5 -6 7 7 10 15 7 18 -3 3 -9 -2 -12 -12z"/>
<path d="M4415 10021 c-3 -5 -2 -12 3 -15 5 -3 9 1 9 9 0 17 -3 19 -12 6z"/>
<path d="M10255 10020 c-3 -5 -1 -10 4 -10 6 0 11 5 11 10 0 6 -2 10 -4 10 -3
0 -8 -4 -11 -10z"/>
<path d="M12696 10018 c3 -5 10 -6 15 -3 13 9 11 12 -6 12 -8 0 -12 -4 -9 -9z"/>
<path d="M6854 9996 c1 -8 5 -18 8 -22 4 -3 5 1 4 10 -1 8 -5 18 -8 22 -4 3
-5 -1 -4 -10z"/>
<path d="M6715 9989 c-4 -6 -5 -12 -2 -15 2 -3 7 2 10 11 7 17 1 20 -8 4z"/>
<path d="M10295 9991 c-3 -5 -2 -12 3 -15 5 -3 9 1 9 9 0 17 -3 19 -12 6z"/>
<path d="M12680 9980 c-12 -7 -10 -9 7 -7 12 0 19 5 17 9 -6 10 -6 10 -24 -2z"/>
<path d="M13307 9946 c-4 -10 -1 -13 8 -9 8 3 12 9 9 14 -7 12 -11 11 -17 -5z"/>
<path d="M6853 9935 c0 -8 4 -12 9 -9 5 3 6 10 3 15 -9 13 -12 11 -12 -6z"/>
<path d="M8690 9939 c0 -5 5 -7 10 -4 6 3 10 8 10 11 0 2 -4 4 -10 4 -5 0 -10
-5 -10 -11z"/>
<path d="M14330 9939 c0 -5 5 -7 10 -4 6 3 10 8 10 11 0 2 -4 4 -10 4 -5 0
-10 -5 -10 -11z"/>
<path d="M9291 9924 c0 -11 3 -14 6 -6 3 7 2 16 -1 19 -3 4 -6 -2 -5 -13z"/>
<path d="M9334 9920 c0 -13 4 -16 10 -10 7 7 7 13 0 20 -6 6 -10 3 -10 -10z"/>
<path d="M14470 9936 c0 -2 8 -10 18 -17 15 -13 16 -12 3 4 -13 16 -21 21 -21
13z"/>
<path d="M4409 9917 c6 -8 7 -18 3 -22 -4 -5 -1 -5 6 -1 10 6 10 11 1 22 -6 8
-14 14 -16 14 -3 0 0 -6 6 -13z"/>
<path d="M12710 9926 c0 -2 7 -7 16 -10 8 -3 12 -2 9 4 -6 10 -25 14 -25 6z"/>
<path d="M13317 9911 c-10 -14 -10 -14 4 -4 9 7 18 10 21 7 3 -3 8 -1 12 4 9
16 -24 9 -37 -7z"/>
<path d="M13390 9920 c0 -5 5 -10 10 -10 6 0 10 5 10 10 0 6 -4 10 -10 10 -5
0 -10 -4 -10 -10z"/>
<path d="M14420 9926 c0 -2 8 -10 18 -17 15 -13 16 -12 3 4 -13 16 -21 21 -21
13z"/>
<path d="M12696 9907 c3 -10 9 -15 12 -12 3 3 0 11 -7 18 -10 9 -11 8 -5 -6z"/>
<path d="M13510 9916 c0 -2 8 -10 18 -17 15 -13 16 -12 3 4 -13 16 -21 21 -21
13z"/>
<path d="M7495 9900 c-3 -5 -1 -10 4 -10 6 0 11 5 11 10 0 6 -2 10 -4 10 -3 0
-8 -4 -11 -10z"/>
<path d="M9473 9887 c-1 -11 -1 -18 0 -16 2 2 8 11 15 20 9 12 9 16 -1 16 -7
0 -14 -9 -14 -20z"/>
<path d="M9293 9883 c1 -17 4 -19 14 -11 15 12 18 22 4 14 -5 -4 -11 0 -14 6
-3 7 -4 3 -4 -9z"/>
<path d="M13376 9887 c3 -10 9 -15 12 -12 3 3 0 11 -7 18 -10 9 -11 8 -5 -6z"/>
<path d="M13409 9883 c-13 -16 -12 -17 4 -4 16 13 21 21 13 21 -2 0 -10 -8
-17 -17z"/>
<path d="M5080 9880 c8 -5 20 -10 25 -10 6 0 3 5 -5 10 -8 5 -19 10 -25 10 -5
0 -3 -5 5 -10z"/>
<path d="M7620 9886 c0 -2 8 -10 18 -17 15 -13 16 -12 3 4 -13 16 -21 21 -21
13z"/>
<path d="M9520 9886 c0 -2 8 -10 18 -17 15 -13 16 -12 3 4 -13 16 -21 21 -21
13z"/>
<path d="M13473 9873 c0 -11 7 -20 14 -20 10 0 10 4 1 16 -7 9 -13 18 -15 20
-1 2 -1 -5 0 -16z"/>
<path d="M13560 9886 c0 -2 8 -10 18 -17 15 -13 16 -12 3 4 -13 16 -21 21 -21
13z"/>
<path d="M14414 9876 c1 -8 5 -18 8 -22 4 -3 5 1 4 10 -1 8 -5 18 -8 22 -4 3
-5 -1 -4 -10z"/>
<path d="M14560 9880 c-9 -6 -10 -10 -3 -10 6 0 15 5 18 10 8 12 4 12 -15 0z"/>
<path d="M6830 9865 c0 -7 30 -13 34 -7 3 4 -4 9 -15 9 -10 1 -19 0 -19 -2z"/>
<path d="M12693 9863 c4 -3 1 -13 -6 -22 -11 -14 -10 -14 5 -2 16 12 16 31 1
31 -4 0 -3 -3 0 -7z"/>
<path d="M13520 9860 c-9 -6 -10 -10 -3 -10 6 0 15 5 18 10 8 12 4 12 -15 0z"/>
<path d="M14375 9860 c3 -5 8 -10 11 -10 2 0 4 5 4 10 0 6 -5 10 -11 10 -5 0
-7 -4 -4 -10z"/>
<path d="M9334 9846 c1 -8 5 -18 8 -22 4 -3 5 1 4 10 -1 8 -5 18 -8 22 -4 3
-5 -1 -4 -10z"/>
<path d="M13330 9846 c0 -8 4 -17 9 -20 5 -4 7 3 4 14 -6 23 -13 26 -13 6z"/>
<path d="M5035 9840 c-3 -5 -1 -10 4 -10 6 0 11 5 11 10 0 6 -2 10 -4 10 -3 0
-8 -4 -11 -10z"/>
<path d="M8710 9840 c0 -5 5 -10 11 -10 5 0 7 5 4 10 -3 6 -8 10 -11 10 -2 0
-4 -4 -4 -10z"/>
<path d="M9494 9842 c4 -3 14 -7 22 -8 9 -1 13 0 10 4 -4 3 -14 7 -22 8 -9 1
-13 0 -10 -4z"/>
<path d="M10414 9836 c1 -8 5 -18 8 -22 4 -3 5 1 4 10 -1 8 -5 18 -8 22 -4 3
-5 -1 -4 -10z"/>
<path d="M13540 9840 c-9 -6 -10 -10 -3 -10 6 0 15 5 18 10 8 12 4 12 -15 0z"/>
<path d="M4415 9831 c-3 -5 -2 -12 3 -15 5 -3 9 1 9 9 0 17 -3 19 -12 6z"/>
<path d="M6846 9818 c3 -5 10 -6 15 -3 13 9 11 12 -6 12 -8 0 -12 -4 -9 -9z"/>
<path d="M9314 9813 c16 -20 36 -23 36 -6 0 4 -3 3 -7 0 -3 -4 -16 1 -27 10
-21 18 -21 18 -2 -4z"/>
<path d="M9550 9822 c0 -5 7 -9 15 -9 8 0 12 4 9 9 -3 4 -9 8 -15 8 -5 0 -9
-4 -9 -8z"/>
<path d="M9596 9818 c3 -5 10 -6 15 -3 13 9 11 12 -6 12 -8 0 -12 -4 -9 -9z"/>
<path d="M13483 9818 c-11 -19 -12 -37 -3 -43 5 -3 7 3 5 12 -1 10 2 24 8 31
5 6 7 12 4 12 -3 0 -9 -6 -14 -12z"/>
<path d="M14410 9820 c0 -5 5 -10 11 -10 5 0 7 5 4 10 -3 6 -8 10 -11 10 -2 0
-4 -4 -4 -10z"/>
<path d="M9374 9809 c-3 -6 -2 -15 3 -20 5 -5 9 -1 9 11 0 23 -2 24 -12 9z"/>
<path d="M13513 9805 c0 -8 4 -12 9 -9 5 3 6 10 3 15 -9 13 -12 11 -12 -6z"/>
<path d="M5025 9800 c-3 -6 1 -7 9 -4 18 7 21 14 7 14 -6 0 -13 -4 -16 -10z"/>
<path d="M5080 9800 c-8 -5 -10 -10 -5 -10 6 0 17 5 25 10 8 5 11 10 5 10 -5
0 -17 -5 -25 -10z"/>
<path d="M8506 9798 c3 -5 10 -6 15 -3 13 9 11 12 -6 12 -8 0 -12 -4 -9 -9z"/>
<path d="M8655 9800 c3 -5 8 -10 11 -10 2 0 4 5 4 10 0 6 -5 10 -11 10 -5 0
-7 -4 -4 -10z"/>
<path d="M9639 9803 c0 -5 -2 -16 -4 -26 -2 -11 -1 -16 3 -13 8 8 14 46 7 46
-3 0 -5 -3 -6 -7z"/>
<path d="M13320 9805 c0 -2 6 -8 13 -14 10 -8 14 -7 14 2 0 8 -6 14 -14 14 -7
0 -13 -1 -13 -2z"/>
<path d="M9275 9781 c-3 -5 -2 -12 3 -15 5 -3 9 1 9 9 0 17 -3 19 -12 6z"/>
<path d="M10410 9780 c0 -5 5 -10 11 -10 5 0 7 5 4 10 -3 6 -8 10 -11 10 -2 0
-4 -4 -4 -10z"/>
<path d="M10446 9778 c3 -5 10 -6 15 -3 13 9 11 12 -6 12 -8 0 -12 -4 -9 -9z"/>
<path d="M12696 9782 c-2 -4 -1 -14 4 -22 7 -11 9 -9 7 8 -1 24 -3 26 -11 14z"/>
<path d="M13390 9776 c7 -7 13 -7 20 0 6 6 3 10 -10 10 -13 0 -16 -4 -10 -10z"/>
<path d="M13520 9780 c-9 -6 -10 -10 -3 -10 6 0 15 5 18 10 8 12 4 12 -15 0z"/>
<path d="M13319 9767 c8 -9 16 -15 19 -12 3 3 10 0 17 -5 8 -7 12 -5 12 4 0 8
-7 13 -16 11 -9 -1 -23 3 -31 9 -13 10 -13 9 -1 -7z"/>
<path d="M4387 9759 c7 -7 15 -10 18 -7 3 3 -2 9 -12 12 -14 6 -15 5 -6 -5z"/>
<path d="M12646 9762 c-3 -5 1 -9 9 -9 8 0 12 4 9 9 -3 4 -7 8 -9 8 -2 0 -6
-4 -9 -8z"/>
<path d="M6855 9751 c-3 -5 -2 -12 3 -15 5 -3 9 1 9 9 0 17 -3 19 -12 6z"/>
<path d="M5050 9739 c0 -5 5 -7 10 -4 6 3 10 8 10 11 0 2 -4 4 -10 4 -5 0 -10
-5 -10 -11z"/>
<path d="M7475 9740 c3 -5 8 -10 11 -10 2 0 4 5 4 10 0 6 -5 10 -11 10 -5 0
-7 -4 -4 -10z"/>
<path d="M9490 9739 c0 -5 5 -7 10 -4 6 3 10 8 10 11 0 2 -4 4 -10 4 -5 0 -10
-5 -10 -11z"/>
<path d="M13386 9742 c-3 -5 1 -9 9 -9 8 0 15 4 15 9 0 4 -4 8 -9 8 -6 0 -12
-4 -15 -8z"/>
<path d="M13345 9720 c10 -11 20 -20 23 -20 3 0 -3 9 -13 20 -10 11 -20 20
-23 20 -3 0 3 -9 13 -20z"/>
<path d="M7555 9720 c-3 -5 -1 -10 4 -10 6 0 11 5 11 10 0 6 -2 10 -4 10 -3 0
-8 -4 -11 -10z"/>
<path d="M8630 9726 c0 -2 7 -7 16 -10 8 -3 12 -2 9 4 -6 10 -25 14 -25 6z"/>
<path d="M9533 9711 c0 -11 5 -18 9 -15 4 3 5 11 1 19 -7 21 -12 19 -10 -4z"/>
<path d="M9577 9715 c-4 -8 -3 -16 1 -19 4 -3 9 4 9 15 2 23 -3 25 -10 4z"/>
<path d="M12710 9726 c0 -2 7 -7 16 -10 8 -3 12 -2 9 4 -6 10 -25 14 -25 6z"/>
<path d="M14505 9720 c-3 -6 1 -7 9 -4 18 7 21 14 7 14 -6 0 -13 -4 -16 -10z"/>
<path d="M5075 9700 c3 -5 8 -10 11 -10 2 0 4 5 4 10 0 6 -5 10 -11 10 -5 0
-7 -4 -4 -10z"/>
<path d="M8690 9699 c0 -5 5 -7 10 -4 6 3 10 8 10 11 0 2 -4 4 -10 4 -5 0 -10
-5 -10 -11z"/>
<path d="M9695 9700 c3 -5 8 -10 11 -10 2 0 4 5 4 10 0 6 -5 10 -11 10 -5 0
-7 -4 -4 -10z"/>
<path d="M12675 9699 c-3 -4 2 -6 10 -5 21 3 28 13 10 13 -9 0 -18 -4 -20 -8z"/>
<path d="M13615 9700 c-3 -5 -1 -10 4 -10 6 0 11 5 11 10 0 6 -2 10 -4 10 -3
0 -8 -4 -11 -10z"/>
<path d="M14574 9696 c1 -8 5 -18 8 -22 4 -3 5 1 4 10 -1 8 -5 18 -8 22 -4 3
-5 -1 -4 -10z"/>
<path d="M4430 9680 c0 -5 5 -10 11 -10 5 0 7 5 4 10 -3 6 -8 10 -11 10 -2 0
-4 -4 -4 -10z"/>
<path d="M8627 9679 c7 -7 15 -10 18 -7 3 3 -2 9 -12 12 -14 6 -15 5 -6 -5z"/>
<path d="M9493 9671 c0 -11 5 -18 9 -15 4 3 5 11 1 19 -7 21 -12 19 -10 -4z"/>
<path d="M13720 9680 c-9 -6 -10 -10 -3 -10 6 0 15 5 18 10 8 12 4 12 -15 0z"/>
<path d="M13755 9680 c-3 -5 -1 -10 4 -10 6 0 11 5 11 10 0 6 -2 10 -4 10 -3
0 -8 -4 -11 -10z"/>
<path d="M13790 9680 c0 -5 5 -10 11 -10 5 0 7 5 4 10 -3 6 -8 10 -11 10 -2 0
-4 -4 -4 -10z"/>
<path d="M5075 9660 c-3 -5 -1 -10 4 -10 6 0 11 5 11 10 0 6 -2 10 -4 10 -3 0
-8 -4 -11 -10z"/>
<path d="M7475 9659 c-3 -4 2 -6 10 -5 21 3 28 13 10 13 -9 0 -18 -4 -20 -8z"/>
<path d="M9594 9662 c4 -3 14 -7 22 -8 9 -1 13 0 10 4 -4 3 -14 7 -22 8 -9 1
-13 0 -10 -4z"/>
<path d="M10530 9660 c0 -5 5 -10 11 -10 5 0 7 5 4 10 -3 6 -8 10 -11 10 -2 0
-4 -4 -4 -10z"/>
<path d="M12730 9659 c0 -5 5 -7 10 -4 6 3 10 8 10 11 0 2 -4 4 -10 4 -5 0
-10 -5 -10 -11z"/>
<path d="M13534 9656 c1 -8 5 -18 8 -22 4 -3 5 1 4 10 -1 8 -5 18 -8 22 -4 3
-5 -1 -4 -10z"/>
<path d="M13606 9662 c-3 -5 1 -9 9 -9 8 0 12 4 9 9 -3 4 -7 8 -9 8 -2 0 -6
-4 -9 -8z"/>
<path d="M9433 9645 c0 -8 4 -15 9 -15 4 0 8 4 8 9 0 6 -4 12 -8 15 -5 3 -9
-1 -9 -9z"/>
<path d="M4415 9640 c-3 -5 -1 -10 4 -10 6 0 11 5 11 10 0 6 -2 10 -4 10 -3 0
-8 -4 -11 -10z"/>
<path d="M9320 9640 c-9 -6 -10 -10 -3 -10 6 0 15 5 18 10 8 12 4 12 -15 0z"/>
<path d="M9654 9636 c1 -8 5 -18 8 -22 4 -3 5 1 4 10 -1 8 -5 18 -8 22 -4 3
-5 -1 -4 -10z"/>
<path d="M9699 9648 c-5 -18 -6 -38 -1 -34 7 8 12 36 6 36 -2 0 -4 -1 -5 -2z"/>
<path d="M9815 9640 c3 -5 8 -10 11 -10 2 0 4 5 4 10 0 6 -5 10 -11 10 -5 0
-7 -4 -4 -10z"/>
<path d="M13650 9640 c0 -5 5 -10 11 -10 5 0 7 5 4 10 -3 6 -8 10 -11 10 -2 0
-4 -4 -4 -10z"/>
<path d="M13699 9648 c-5 -18 -6 -38 -1 -34 7 8 12 36 6 36 -2 0 -4 -1 -5 -2z"/>
<path d="M5056 9621 c-3 -5 2 -15 12 -22 15 -12 16 -12 5 2 -7 9 -10 19 -6 22
3 4 4 7 0 7 -3 0 -8 -4 -11 -9z"/>
<path d="M9593 9615 c0 -8 4 -12 9 -9 5 3 6 10 3 15 -9 13 -12 11 -12 -6z"/>
<path d="M10575 9620 c-3 -5 -1 -10 4 -10 6 0 11 5 11 10 0 6 -2 10 -4 10 -3
0 -8 -4 -11 -10z"/>
<path d="M12735 9620 c3 -5 8 -10 11 -10 2 0 4 5 4 10 0 6 -5 10 -11 10 -5 0
-7 -4 -4 -10z"/>
<path d="M13495 9621 c-3 -5 -2 -12 3 -15 5 -3 9 1 9 9 0 17 -3 19 -12 6z"/>
<path d="M14610 9619 c0 -5 5 -7 10 -4 6 3 10 8 10 11 0 2 -4 4 -10 4 -5 0
-10 -5 -10 -11z"/>
<path d="M9850 9616 c0 -2 8 -10 18 -17 15 -13 16 -12 3 4 -13 16 -21 21 -21
13z"/>
<path d="M5110 9596 c7 -7 13 -7 20 0 6 6 3 10 -10 10 -13 0 -16 -4 -10 -10z"/>
<path d="M7489 9597 c6 -8 7 -18 3 -22 -4 -5 -1 -5 6 -1 10 6 10 11 1 22 -6 8
-14 14 -16 14 -3 0 0 -6 6 -13z"/>
<path d="M9455 9600 c-3 -5 -1 -10 4 -10 6 0 11 5 11 10 0 6 -2 10 -4 10 -3 0
-8 -4 -11 -10z"/>
<path d="M9510 9600 c0 -5 5 -10 11 -10 5 0 7 5 4 10 -3 6 -8 10 -11 10 -2 0
-4 -4 -4 -10z"/>
<path d="M8656 9582 c-2 -4 -1 -14 4 -22 7 -11 9 -9 7 8 -1 24 -3 26 -11 14z"/>
<path d="M9330 9579 c0 -5 5 -7 10 -4 6 3 10 8 10 11 0 2 -4 4 -10 4 -5 0 -10
-5 -10 -11z"/>
<path d="M10610 9579 c0 -5 5 -7 10 -4 6 3 10 8 10 11 0 2 -4 4 -10 4 -5 0
-10 -5 -10 -11z"/>
<path d="M12730 9580 c0 -5 5 -10 11 -10 5 0 7 5 4 10 -3 6 -8 10 -11 10 -2 0
-4 -4 -4 -10z"/>
<path d="M13390 9585 c0 -7 30 -13 34 -7 3 4 -4 9 -15 9 -10 1 -19 0 -19 -2z"/>
<path d="M14650 9580 c0 -5 5 -10 11 -10 5 0 7 5 4 10 -3 6 -8 10 -11 10 -2 0
-4 -4 -4 -10z"/>
<path d="M13910 9576 c0 -2 8 -10 18 -17 15 -13 16 -12 3 4 -13 16 -21 21 -21
13z"/>
<path d="M4415 9560 c3 -5 8 -10 11 -10 2 0 4 5 4 10 0 6 -5 10 -11 10 -5 0
-7 -4 -4 -10z"/>
<path d="M9836 9562 c-3 -5 1 -9 9 -9 8 0 12 4 9 9 -3 4 -7 8 -9 8 -2 0 -6 -4
-9 -8z"/>
<path d="M10827 9559 c7 -7 15 -10 18 -7 3 3 -2 9 -12 12 -14 6 -15 5 -6 -5z"/>
<path d="M13870 9566 c0 -2 7 -7 16 -10 8 -3 12 -2 9 4 -6 10 -25 14 -25 6z"/>
<path d="M14747 9559 c7 -7 15 -10 18 -7 3 3 -2 9 -12 12 -14 6 -15 5 -6 -5z"/>
<path d="M12635 9551 c-3 -5 -2 -12 3 -15 5 -3 9 1 9 9 0 17 -3 19 -12 6z"/>
<path d="M6854 9538 c-4 -7 -3 -10 1 -5 5 4 18 -1 29 -10 21 -18 21 -18 2 5
-22 26 -23 26 -32 10z"/>
<path d="M9330 9539 c0 -5 5 -7 10 -4 6 3 10 8 10 11 0 2 -4 4 -10 4 -5 0 -10
-5 -10 -11z"/>
<path d="M9375 9539 c-3 -4 2 -6 10 -5 21 3 28 13 10 13 -9 0 -18 -4 -20 -8z"/>
<path d="M13394 9542 c4 -3 14 -7 22 -8 9 -1 13 0 10 4 -4 3 -14 7 -22 8 -9 1
-13 0 -10 -4z"/>
<path d="M13456 9542 c-3 -5 1 -9 9 -9 8 0 12 4 9 9 -3 4 -7 8 -9 8 -2 0 -6
-4 -9 -8z"/>
<path d="M4430 9519 c0 -5 5 -7 10 -4 6 3 10 8 10 11 0 2 -4 4 -10 4 -5 0 -10
-5 -10 -11z"/>
<path d="M8670 9526 c0 -2 7 -7 16 -10 8 -3 12 -2 9 4 -6 10 -25 14 -25 6z"/>
<path d="M13936 9518 c3 -5 10 -6 15 -3 13 9 11 12 -6 12 -8 0 -12 -4 -9 -9z"/>
<path d="M8653 9505 c0 -8 4 -12 9 -9 5 3 6 10 3 15 -9 13 -12 11 -12 -6z"/>
<path d="M7496 9502 c-3 -4 4 -9 15 -9 23 -2 25 3 4 10 -8 4 -16 3 -19 -1z"/>
<path d="M10694 9496 c1 -8 5 -18 8 -22 4 -3 5 1 4 10 -1 8 -5 18 -8 22 -4 3
-5 -1 -4 -10z"/>
<path d="M13896 9498 c3 -5 10 -6 15 -3 13 9 11 12 -6 12 -8 0 -12 -4 -9 -9z"/>
<path d="M14727 9499 c7 -7 15 -10 18 -7 3 3 -2 9 -12 12 -14 6 -15 5 -6 -5z"/>
<path d="M6873 9485 c0 -8 4 -12 9 -9 5 3 6 10 3 15 -9 13 -12 11 -12 -6z"/>
<path d="M12713 9487 c0 -8 6 -14 14 -14 9 0 10 4 2 14 -6 7 -12 13 -14 13 -1
0 -2 -6 -2 -13z"/>
<path d="M9273 9475 c0 -8 4 -12 9 -9 5 3 6 10 3 15 -9 13 -12 11 -12 -6z"/>
<path d="M13475 9480 c3 -5 8 -10 11 -10 2 0 4 5 4 10 0 6 -5 10 -11 10 -5 0
-7 -4 -4 -10z"/>
<path d="M10755 9471 c-3 -5 -2 -12 3 -15 5 -3 9 1 9 9 0 17 -3 19 -12 6z"/>
<path d="M9870 9465 c0 -7 30 -13 34 -7 3 4 -4 9 -15 9 -10 1 -19 0 -19 -2z"/>
<path d="M13395 9459 c-3 -4 2 -6 10 -5 21 3 28 13 10 13 -9 0 -18 -4 -20 -8z"/>
<path d="M5053 9431 c0 -11 5 -18 9 -15 4 3 5 11 1 19 -7 21 -12 19 -10 -4z"/>
<path d="M9270 9446 c0 -2 7 -7 16 -10 8 -3 12 -2 9 4 -6 10 -25 14 -25 6z"/>
<path d="M10715 9441 c-3 -5 -2 -12 3 -15 5 -3 9 1 9 9 0 17 -3 19 -12 6z"/>
<path d="M12633 9435 c0 -8 4 -12 9 -9 5 3 6 10 3 15 -9 13 -12 11 -12 -6z"/>
<path d="M12699 9448 c-5 -18 -6 -38 -1 -34 7 8 12 36 6 36 -2 0 -4 -1 -5 -2z"/>
<path d="M7493 9409 c-2 -23 3 -25 10 -4 4 8 3 16 -1 19 -4 3 -9 -4 -9 -15z"/>
<path d="M9334 9416 c1 -8 5 -18 8 -22 4 -3 5 1 4 10 -1 8 -5 18 -8 22 -4 3
-5 -1 -4 -10z"/>
<path d="M10795 9421 c-3 -5 -2 -12 3 -15 5 -3 9 1 9 9 0 17 -3 19 -12 6z"/>
<path d="M12730 9420 c0 -5 5 -10 11 -10 5 0 7 5 4 10 -3 6 -8 10 -11 10 -2 0
-4 -4 -4 -10z"/>
<path d="M13370 9419 c0 -5 5 -7 10 -4 6 3 10 8 10 11 0 2 -4 4 -10 4 -5 0
-10 -5 -10 -11z"/>
<path d="M4310 9399 c0 -5 5 -7 10 -4 6 3 10 8 10 11 0 2 -4 4 -10 4 -5 0 -10
-5 -10 -11z"/>
<path d="M9675 9401 c-3 -5 -2 -12 3 -15 5 -3 9 1 9 9 0 17 -3 19 -12 6z"/>
<path d="M14980 9406 c0 -2 8 -10 18 -17 15 -13 16 -12 3 4 -13 16 -21 21 -21
13z"/>
<path d="M12735 9380 c3 -5 8 -10 11 -10 2 0 4 5 4 10 0 6 -5 10 -11 10 -5 0
-7 -4 -4 -10z"/>
<path d="M13330 9379 c0 -5 5 -7 10 -4 6 3 10 8 10 11 0 2 -4 4 -10 4 -5 0
-10 -5 -10 -11z"/>
<path d="M14055 9380 c-3 -5 -1 -10 4 -10 6 0 11 5 11 10 0 6 -2 10 -4 10 -3
0 -8 -4 -11 -10z"/>
<path d="M14810 9380 c0 -5 5 -10 11 -10 5 0 7 5 4 10 -3 6 -8 10 -11 10 -2 0
-4 -4 -4 -10z"/>
<path d="M10015 9360 c-3 -5 -1 -10 4 -10 6 0 11 5 11 10 0 6 -2 10 -4 10 -3
0 -8 -4 -11 -10z"/>
<path d="M13990 9356 c7 -7 13 -7 20 0 6 6 3 10 -10 10 -13 0 -16 -4 -10 -10z"/>
<path d="M7473 9335 c0 -8 4 -12 9 -9 5 3 6 10 3 15 -9 13 -12 11 -12 -6z"/>
<path d="M6859 9328 c-5 -18 -6 -38 -1 -34 7 8 12 36 6 36 -2 0 -4 -1 -5 -2z"/>
<path d="M7495 9301 c-3 -5 -2 -12 3 -15 5 -3 9 1 9 9 0 17 -3 19 -12 6z"/>
<path d="M8695 9300 c3 -5 8 -10 11 -10 2 0 4 5 4 10 0 6 -5 10 -11 10 -5 0
-7 -4 -4 -10z"/>
<path d="M9315 9300 c-3 -5 -1 -10 4 -10 6 0 11 5 11 10 0 6 -2 10 -4 10 -3 0
-8 -4 -11 -10z"/>
<path d="M10855 9300 c-3 -5 -1 -10 4 -10 6 0 11 5 11 10 0 6 -2 10 -4 10 -3
0 -8 -4 -11 -10z"/>
<path d="M13587 9299 c7 -7 15 -10 18 -7 3 3 -2 9 -12 12 -14 6 -15 5 -6 -5z"/>
<path d="M14053 9289 c-2 -23 3 -25 10 -4 4 8 3 16 -1 19 -4 3 -9 -4 -9 -15z"/>
<path d="M14090 9300 c0 -5 5 -10 11 -10 5 0 7 5 4 10 -3 6 -8 10 -11 10 -2 0
-4 -4 -4 -10z"/>
<path d="M8715 9281 c-3 -5 -2 -12 3 -15 5 -3 9 1 9 9 0 17 -3 19 -12 6z"/>
<path d="M13375 9271 c-3 -5 -2 -12 3 -15 5 -3 9 1 9 9 0 17 -3 19 -12 6z"/>
<path d="M7475 9260 c3 -5 8 -10 11 -10 2 0 4 5 4 10 0 6 -5 10 -11 10 -5 0
-7 -4 -4 -10z"/>
<path d="M8656 9262 c-2 -4 -1 -14 4 -22 7 -11 9 -9 7 8 -1 24 -3 26 -11 14z"/>
<path d="M13506 9238 c3 -5 10 -6 15 -3 13 9 11 12 -6 12 -8 0 -12 -4 -9 -9z"/>
<path d="M6854 9218 c-4 -7 -3 -10 1 -5 5 4 18 -1 29 -10 21 -18 21 -18 2 5
-22 26 -23 26 -32 10z"/>
<path d="M12675 9219 c-3 -4 2 -6 10 -5 21 3 28 13 10 13 -9 0 -18 -4 -20 -8z"/>
<path d="M13373 9215 c0 -8 4 -12 9 -9 5 3 6 10 3 15 -9 13 -12 11 -12 -6z"/>
<path d="M14126 9222 c-3 -5 1 -9 9 -9 8 0 12 4 9 9 -3 4 -7 8 -9 8 -2 0 -6
-4 -9 -8z"/>
<path d="M4430 9200 c0 -5 5 -10 11 -10 5 0 7 5 4 10 -3 6 -8 10 -11 10 -2 0
-4 -4 -4 -10z"/>
<path d="M8670 9206 c0 -2 7 -7 16 -10 8 -3 12 -2 9 4 -6 10 -25 14 -25 6z"/>
<path d="M8653 9185 c0 -8 4 -12 9 -9 5 3 6 10 3 15 -9 13 -12 11 -12 -6z"/>
<path d="M10975 9191 c-3 -5 -2 -12 3 -15 5 -3 9 1 9 9 0 17 -3 19 -12 6z"/>
<path d="M7474 9182 c4 -3 14 -7 22 -8 9 -1 13 0 10 4 -4 3 -14 7 -22 8 -9 1
-13 0 -10 -4z"/>
<path d="M10215 9180 c3 -5 8 -10 11 -10 2 0 4 5 4 10 0 6 -5 10 -11 10 -5 0
-7 -4 -4 -10z"/>
<path d="M12730 9179 c0 -5 5 -7 10 -4 6 3 10 8 10 11 0 2 -4 4 -10 4 -5 0
-10 -5 -10 -11z"/>
<path d="M6873 9165 c0 -8 4 -12 9 -9 5 3 6 10 3 15 -9 13 -12 11 -12 -6z"/>
<path d="M4415 9160 c-3 -5 -1 -10 4 -10 6 0 11 5 11 10 0 6 -2 10 -4 10 -3 0
-8 -4 -11 -10z"/>
<path d="M9330 9159 c0 -5 5 -7 10 -4 6 3 10 8 10 11 0 2 -4 4 -10 4 -5 0 -10
-5 -10 -11z"/>
<path d="M13390 9160 c0 -5 5 -10 11 -10 5 0 7 5 4 10 -3 6 -8 10 -11 10 -2 0
-4 -4 -4 -10z"/>
<path d="M14219 9168 c-5 -18 -6 -38 -1 -34 7 8 12 36 6 36 -2 0 -4 -1 -5 -2z"/>
<path d="M10215 9140 c3 -5 8 -10 11 -10 2 0 4 5 4 10 0 6 -5 10 -11 10 -5 0
-7 -4 -4 -10z"/>
<path d="M10994 9142 c4 -3 14 -7 22 -8 9 -1 13 0 10 4 -4 3 -14 7 -22 8 -9 1
-13 0 -10 -4z"/>
<path d="M12735 9140 c3 -5 8 -10 11 -10 2 0 4 5 4 10 0 6 -5 10 -11 10 -5 0
-7 -4 -4 -10z"/>
<path d="M15014 9142 c4 -3 14 -7 22 -8 9 -1 13 0 10 4 -4 3 -14 7 -22 8 -9 1
-13 0 -10 -4z"/>
<path d="M9310 9122 c0 -5 7 -9 15 -9 8 0 12 4 9 9 -3 4 -9 8 -15 8 -5 0 -9
-4 -9 -8z"/>
<path d="M9487 9119 c7 -7 15 -10 18 -7 3 3 -2 9 -12 12 -14 6 -15 5 -6 -5z"/>
<path d="M10076 9113 c-6 -14 -5 -15 5 -6 7 7 10 15 7 18 -3 3 -9 -2 -12 -12z"/>
<path d="M5050 9099 c0 -5 5 -7 10 -4 6 3 10 8 10 11 0 2 -4 4 -10 4 -5 0 -10
-5 -10 -11z"/>
<path d="M6855 9099 c-3 -4 2 -6 10 -5 21 3 28 13 10 13 -9 0 -18 -4 -20 -8z"/>
<path d="M7495 9099 c-3 -4 2 -6 10 -5 21 3 28 13 10 13 -9 0 -18 -4 -20 -8z"/>
<path d="M10219 9108 c-5 -18 -6 -38 -1 -34 7 8 12 36 6 36 -2 0 -4 -1 -5 -2z"/>
<path d="M10255 9100 c-3 -5 -1 -10 4 -10 6 0 11 5 11 10 0 6 -2 10 -4 10 -3
0 -8 -4 -11 -10z"/>
<path d="M15076 9095 c-9 -26 -7 -32 5 -12 6 10 9 21 6 23 -2 3 -7 -2 -11 -11z"/>
<path d="M9330 9080 c0 -5 5 -10 11 -10 5 0 7 5 4 10 -3 6 -8 10 -11 10 -2 0
-4 -4 -4 -10z"/>
<path d="M5075 9060 c3 -5 8 -10 11 -10 2 0 4 5 4 10 0 6 -5 10 -11 10 -5 0
-7 -4 -4 -10z"/>
<path d="M8654 9056 c1 -8 5 -18 8 -22 4 -3 5 1 4 10 -1 8 -5 18 -8 22 -4 3
-5 -1 -4 -10z"/>
<path d="M12695 9059 c-3 -4 2 -6 10 -5 21 3 28 13 10 13 -9 0 -18 -4 -20 -8z"/>
<path d="M14296 9058 c3 -5 10 -6 15 -3 13 9 11 12 -6 12 -8 0 -12 -4 -9 -9z"/>
<path d="M14330 9059 c0 -5 5 -7 10 -4 6 3 10 8 10 11 0 2 -4 4 -10 4 -5 0
-10 -5 -10 -11z"/>
<path d="M6656 9042 c-3 -5 1 -9 9 -9 8 0 12 4 9 9 -3 4 -7 8 -9 8 -2 0 -6 -4
-9 -8z"/>
<path d="M7470 9046 c0 -2 7 -7 16 -10 8 -3 12 -2 9 4 -6 10 -25 14 -25 6z"/>
<path d="M11030 9036 c7 -7 13 -7 20 0 6 6 3 10 -10 10 -13 0 -16 -4 -10 -10z"/>
<path d="M13386 9042 c-3 -5 1 -9 9 -9 8 0 12 4 9 9 -3 4 -7 8 -9 8 -2 0 -6
-4 -9 -8z"/>
<path d="M15116 9038 c3 -5 10 -6 15 -3 13 9 11 12 -6 12 -8 0 -12 -4 -9 -9z"/>
<path d="M10274 9022 c4 -3 14 -7 22 -8 9 -1 13 0 10 4 -4 3 -14 7 -22 8 -9 1
-13 0 -10 -4z"/>
<path d="M14286 9018 c3 -5 10 -6 15 -3 13 9 11 12 -6 12 -8 0 -12 -4 -9 -9z"/>
<path d="M14336 9022 c-3 -5 1 -9 9 -9 8 0 12 4 9 9 -3 4 -7 8 -9 8 -2 0 -6
-4 -9 -8z"/>
<path d="M11075 9000 c3 -5 8 -10 11 -10 2 0 4 5 4 10 0 6 -5 10 -11 10 -5 0
-7 -4 -4 -10z"/>
<path d="M13379 9008 c-5 -18 -6 -38 -1 -34 7 8 12 36 6 36 -2 0 -4 -1 -5 -2z"/>
<path d="M14396 8993 c-6 -14 -5 -15 5 -6 7 7 10 15 7 18 -3 3 -9 -2 -12 -12z"/>
<path d="M8653 8985 c0 -8 4 -12 9 -9 5 3 6 10 3 15 -9 13 -12 11 -12 -6z"/>
<path d="M4430 8980 c0 -5 5 -10 11 -10 5 0 7 5 4 10 -3 6 -8 10 -11 10 -2 0
-4 -4 -4 -10z"/>
<path d="M6856 8978 c3 -4 11 -5 19 -1 21 7 19 12 -4 10 -11 0 -18 -5 -15 -9z"/>
<path d="M7495 8980 c-3 -5 -1 -10 4 -10 6 0 11 5 11 10 0 6 -2 10 -4 10 -3 0
-8 -4 -11 -10z"/>
<path d="M12675 8979 c-3 -4 2 -6 10 -5 21 3 28 13 10 13 -9 0 -18 -4 -20 -8z"/>
<path d="M15130 8979 c0 -5 5 -7 10 -4 6 3 10 8 10 11 0 2 -4 4 -10 4 -5 0
-10 -5 -10 -11z"/>
<path d="M9435 8971 c-3 -5 -2 -12 3 -15 5 -3 9 1 9 9 0 17 -3 19 -12 6z"/>
<path d="M11269 8963 c-13 -16 -12 -17 4 -4 9 7 17 15 17 17 0 8 -8 3 -21 -13z"/>
<path d="M8606 8962 c-3 -5 1 -9 9 -9 8 0 12 4 9 9 -3 4 -7 8 -9 8 -2 0 -6 -4
-9 -8z"/>
<path d="M14426 8962 c-3 -5 1 -9 9 -9 8 0 12 4 9 9 -3 4 -7 8 -9 8 -2 0 -6
-4 -9 -8z"/>
<path d="M5053 8945 c0 -8 4 -12 9 -9 5 3 6 10 3 15 -9 13 -12 11 -12 -6z"/>
<path d="M4400 8940 c-12 -7 -10 -9 7 -7 12 0 19 5 17 9 -6 10 -6 10 -24 -2z"/>
<path d="M9315 8940 c3 -5 8 -10 11 -10 2 0 4 5 4 10 0 6 -5 10 -11 10 -5 0
-7 -4 -4 -10z"/>
<path d="M13379 8948 c-5 -18 -6 -38 -1 -34 7 8 12 36 6 36 -2 0 -4 -1 -5 -2z"/>
<path d="M14376 8938 c3 -5 10 -6 15 -3 13 9 11 12 -6 12 -8 0 -12 -4 -9 -9z"/>
<path d="M6826 8925 c-11 -8 -15 -15 -9 -15 6 0 16 7 23 15 16 19 11 19 -14 0z"/>
<path d="M7536 8918 c3 -5 10 -6 15 -3 13 9 11 12 -6 12 -8 0 -12 -4 -9 -9z"/>
<path d="M14430 8926 c0 -2 7 -7 16 -10 8 -3 12 -2 9 4 -6 10 -25 14 -25 6z"/>
<path d="M5050 8900 c0 -5 5 -10 11 -10 5 0 7 5 4 10 -3 6 -8 10 -11 10 -2 0
-4 -4 -4 -10z"/>
<path d="M8646 8898 c3 -5 10 -6 15 -3 13 9 11 12 -6 12 -8 0 -12 -4 -9 -9z"/>
<path d="M10450 8900 c0 -5 5 -10 11 -10 5 0 7 5 4 10 -3 6 -8 10 -11 10 -2 0
-4 -4 -4 -10z"/>
<path d="M7633 8885 c0 -8 4 -12 9 -9 5 3 6 10 3 15 -9 13 -12 11 -12 -6z"/>
<path d="M8606 8878 c3 -5 10 -6 15 -3 13 9 11 12 -6 12 -8 0 -12 -4 -9 -9z"/>
<path d="M7495 8860 c-3 -5 -1 -10 4 -10 6 0 11 5 11 10 0 6 -2 10 -4 10 -3 0
-8 -4 -11 -10z"/>
<path d="M10416 8858 c3 -4 11 -5 19 -1 21 7 19 12 -4 10 -11 0 -18 -5 -15 -9z"/>
<path d="M11235 8861 c-3 -5 -2 -12 3 -15 5 -3 9 1 9 9 0 17 -3 19 -12 6z"/>
<path d="M13330 8860 c0 -5 5 -10 11 -10 5 0 7 5 4 10 -3 6 -8 10 -11 10 -2 0
-4 -4 -4 -10z"/>
<path d="M4415 8840 c3 -5 8 -10 11 -10 2 0 4 5 4 10 0 6 -5 10 -11 10 -5 0
-7 -4 -4 -10z"/>
<path d="M5155 8840 c-3 -5 -1 -10 4 -10 6 0 11 5 11 10 0 6 -2 10 -4 10 -3 0
-8 -4 -11 -10z"/>
<path d="M9335 8841 c-3 -5 -2 -12 3 -15 5 -3 9 1 9 9 0 17 -3 19 -12 6z"/>
<path d="M15250 8839 c0 -5 5 -7 10 -4 6 3 10 8 10 11 0 2 -4 4 -10 4 -5 0
-10 -5 -10 -11z"/>
<path d="M5050 8820 c0 -5 5 -10 11 -10 5 0 7 5 4 10 -3 6 -8 10 -11 10 -2 0
-4 -4 -4 -10z"/>
<path d="M6856 8818 c3 -5 10 -6 15 -3 13 9 11 12 -6 12 -8 0 -12 -4 -9 -9z"/>
<path d="M10415 8819 c-3 -4 2 -6 10 -5 21 3 28 13 10 13 -9 0 -18 -4 -20 -8z"/>
<path d="M13330 8819 c0 -5 5 -7 10 -4 6 3 10 8 10 11 0 2 -4 4 -10 4 -5 0
-10 -5 -10 -11z"/>
<path d="M13376 8822 c-3 -5 1 -9 9 -9 8 0 12 4 9 9 -3 4 -7 8 -9 8 -2 0 -6
-4 -9 -8z"/>
<path d="M9275 8800 c3 -5 8 -10 11 -10 2 0 4 5 4 10 0 6 -5 10 -11 10 -5 0
-7 -4 -4 -10z"/>
<path d="M9430 8806 c0 -2 7 -7 16 -10 8 -3 12 -2 9 4 -6 10 -25 14 -25 6z"/>
<path d="M11215 8800 c-3 -5 -1 -10 4 -10 6 0 11 5 11 10 0 6 -2 10 -4 10 -3
0 -8 -4 -11 -10z"/>
<path d="M11336 8802 c-3 -5 1 -9 9 -9 8 0 12 4 9 9 -3 4 -7 8 -9 8 -2 0 -6
-4 -9 -8z"/>
<path d="M5050 8779 c0 -5 5 -7 10 -4 6 3 10 8 10 11 0 2 -4 4 -10 4 -5 0 -10
-5 -10 -11z"/>
<path d="M5086 8782 c-3 -5 1 -9 9 -9 8 0 12 4 9 9 -3 4 -7 8 -9 8 -2 0 -6 -4
-9 -8z"/>
<path d="M10456 8782 c-3 -5 1 -9 9 -9 8 0 12 4 9 9 -3 4 -7 8 -9 8 -2 0 -6
-4 -9 -8z"/>
<path d="M10495 8780 c3 -5 8 -10 11 -10 2 0 4 5 4 10 0 6 -5 10 -11 10 -5 0
-7 -4 -4 -10z"/>
<path d="M14474 8782 c4 -3 14 -7 22 -8 9 -1 13 0 10 4 -4 3 -14 7 -22 8 -9 1
-13 0 -10 -4z"/>
<path d="M5225 8760 c-3 -6 1 -7 9 -4 18 7 21 14 7 14 -6 0 -13 -4 -16 -10z"/>
<path d="M6870 8761 c0 -6 4 -13 10 -16 6 -3 7 1 4 9 -7 18 -14 21 -14 7z"/>
<path d="M8595 8759 c-3 -4 2 -6 10 -5 21 3 28 13 10 13 -9 0 -18 -4 -20 -8z"/>
<path d="M9371 8767 c2 -1 13 -9 24 -17 19 -14 19 -14 6 3 -7 9 -18 17 -24 17
-6 0 -8 -1 -6 -3z"/>
<path d="M10226 8762 c-3 -5 1 -9 9 -9 8 0 12 4 9 9 -3 4 -7 8 -9 8 -2 0 -6
-4 -9 -8z"/>
<path d="M13390 8766 c0 -2 7 -7 16 -10 8 -3 12 -2 9 4 -6 10 -25 14 -25 6z"/>
<path d="M7486 8738 c3 -5 10 -6 15 -3 13 9 11 12 -6 12 -8 0 -12 -4 -9 -9z"/>
<path d="M9335 8740 c-3 -5 -1 -10 4 -10 6 0 11 5 11 10 0 6 -2 10 -4 10 -3 0
-8 -4 -11 -10z"/>
<path d="M4310 8719 c0 -5 5 -7 10 -4 6 3 10 8 10 11 0 2 -4 4 -10 4 -5 0 -10
-5 -10 -11z"/>
<path d="M8610 8720 c0 -5 5 -10 11 -10 5 0 7 5 4 10 -3 6 -8 10 -11 10 -2 0
-4 -4 -4 -10z"/>
<path d="M8675 8720 c-3 -5 -1 -10 4 -10 6 0 11 5 11 10 0 6 -2 10 -4 10 -3 0
-8 -4 -11 -10z"/>
<path d="M12716 8718 c3 -5 10 -6 15 -3 13 9 11 12 -6 12 -8 0 -12 -4 -9 -9z"/>
<path d="M13355 8720 c3 -5 8 -10 11 -10 2 0 4 5 4 10 0 6 -5 10 -11 10 -5 0
-7 -4 -4 -10z"/>
<path d="M5150 8701 c0 -6 4 -13 10 -16 6 -3 7 1 4 9 -7 18 -14 21 -14 7z"/>
<path d="M7536 8702 c-3 -4 4 -9 15 -9 23 -2 25 3 4 10 -8 4 -16 3 -19 -1z"/>
<path d="M10556 8701 c-3 -5 2 -15 12 -22 15 -12 16 -12 5 2 -7 9 -10 19 -6
22 3 4 4 7 0 7 -3 0 -8 -4 -11 -9z"/>
<path d="M12646 8702 c-3 -5 1 -9 9 -9 8 0 12 4 9 9 -3 4 -7 8 -9 8 -2 0 -6
-4 -9 -8z"/>
<path d="M14535 8700 c-3 -5 -1 -10 4 -10 6 0 11 5 11 10 0 6 -2 10 -4 10 -3
0 -8 -4 -11 -10z"/>
<path d="M4430 8686 c0 -2 7 -7 16 -10 8 -3 12 -2 9 4 -6 10 -25 14 -25 6z"/>
<path d="M10510 8679 c0 -5 5 -7 10 -4 6 3 10 8 10 11 0 2 -4 4 -10 4 -5 0
-10 -5 -10 -11z"/>
<path d="M11375 8680 c3 -5 8 -10 11 -10 2 0 4 5 4 10 0 6 -5 10 -11 10 -5 0
-7 -4 -4 -10z"/>
<path d="M13300 8685 c0 -2 6 -8 13 -14 10 -8 14 -7 14 2 0 8 -6 14 -14 14 -7
0 -13 -1 -13 -2z"/>
<path d="M13346 8682 c-3 -5 1 -9 9 -9 8 0 12 4 9 9 -3 4 -7 8 -9 8 -2 0 -6
-4 -9 -8z"/>
<path d="M13406 8678 c3 -5 10 -6 15 -3 13 9 11 12 -6 12 -8 0 -12 -4 -9 -9z"/>
<path d="M14627 8679 c7 -7 15 -10 18 -7 3 3 -2 9 -12 12 -14 6 -15 5 -6 -5z"/>
<path d="M5050 8660 c0 -5 5 -10 11 -10 5 0 7 5 4 10 -3 6 -8 10 -11 10 -2 0
-4 -4 -4 -10z"/>
<path d="M5086 8658 c3 -5 10 -6 15 -3 13 9 11 12 -6 12 -8 0 -12 -4 -9 -9z"/>
<path d="M6850 8659 c0 -5 5 -7 10 -4 6 3 10 8 10 11 0 2 -4 4 -10 4 -5 0 -10
-5 -10 -11z"/>
<path d="M6796 8633 c-6 -14 -5 -15 5 -6 7 7 10 15 7 18 -3 3 -9 -2 -12 -12z"/>
<path d="M7533 8631 c0 -11 5 -18 9 -15 4 3 5 11 1 19 -7 21 -12 19 -10 -4z"/>
<path d="M7570 8639 c0 -5 5 -7 10 -4 6 3 10 8 10 11 0 2 -4 4 -10 4 -5 0 -10
-5 -10 -11z"/>
<path d="M8610 8639 c0 -5 5 -7 10 -4 6 3 10 8 10 11 0 2 -4 4 -10 4 -5 0 -10
-5 -10 -11z"/>
<path d="M10636 8633 c-6 -14 -5 -15 5 -6 7 7 10 15 7 18 -3 3 -9 -2 -12 -12z"/>
<path d="M13410 8640 c0 -5 5 -10 11 -10 5 0 7 5 4 10 -3 6 -8 10 -11 10 -2 0
-4 -4 -4 -10z"/>
<path d="M4415 8620 c-3 -5 -1 -10 4 -10 6 0 11 5 11 10 0 6 -2 10 -4 10 -3 0
-8 -4 -11 -10z"/>
<path d="M5070 8625 c0 -7 30 -13 34 -7 3 4 -4 9 -15 9 -10 1 -19 0 -19 -2z"/>
<path d="M8655 8620 c-3 -5 -1 -10 4 -10 6 0 11 5 11 10 0 6 -2 10 -4 10 -3 0
-8 -4 -11 -10z"/>
<path d="M8696 8622 c-3 -5 1 -9 9 -9 8 0 12 4 9 9 -3 4 -7 8 -9 8 -2 0 -6 -4
-9 -8z"/>
<path d="M9335 8620 c3 -5 8 -10 11 -10 2 0 4 5 4 10 0 6 -5 10 -11 10 -5 0
-7 -4 -4 -10z"/>
<path d="M10590 8626 c0 -2 7 -7 16 -10 8 -3 12 -2 9 4 -6 10 -25 14 -25 6z"/>
<path d="M6873 8607 c0 -8 6 -14 14 -14 9 0 10 4 2 14 -6 7 -12 13 -14 13 -1
0 -2 -6 -2 -13z"/>
<path d="M10646 8605 c-18 -14 -18 -14 1 -12 11 0 20 7 20 14 0 7 -1 13 -1 13
-1 0 -9 -7 -20 -15z"/>
<path d="M12725 8600 c10 -11 20 -20 23 -20 3 0 -3 9 -13 20 -10 11 -20 20
-23 20 -3 0 3 -9 13 -20z"/>
<path d="M4370 8599 c0 -5 5 -7 10 -4 6 3 10 8 10 11 0 2 -4 4 -10 4 -5 0 -10
-5 -10 -11z"/>
<path d="M6680 8600 c-9 -6 -10 -10 -3 -10 6 0 15 5 18 10 8 12 4 12 -15 0z"/>
<path d="M8545 8600 c-3 -6 1 -7 9 -4 18 7 21 14 7 14 -6 0 -13 -4 -16 -10z"/>
<path d="M10553 8593 c0 -9 4 -10 14 -2 7 6 13 12 13 14 0 1 -6 2 -13 2 -8 0
-14 -6 -14 -14z"/>
<path d="M14530 8600 c0 -5 5 -10 11 -10 5 0 7 5 4 10 -3 6 -8 10 -11 10 -2 0
-4 -4 -4 -10z"/>
<path d="M7556 8587 c3 -10 9 -15 12 -12 3 3 0 11 -7 18 -10 9 -11 8 -5 -6z"/>
<path d="M7467 8579 c7 -7 15 -10 18 -7 3 3 -2 9 -12 12 -14 6 -15 5 -6 -5z"/>
<path d="M8650 8579 c0 -5 5 -7 10 -4 6 3 10 8 10 11 0 2 -4 4 -10 4 -5 0 -10
-5 -10 -11z"/>
<path d="M14566 8582 c-3 -5 1 -9 9 -9 8 0 12 4 9 9 -3 4 -7 8 -9 8 -2 0 -6
-4 -9 -8z"/>
<path d="M5116 8567 c3 -10 9 -15 12 -12 3 3 0 11 -7 18 -10 9 -11 8 -5 -6z"/>
<path d="M11434 8569 c-3 -6 -2 -15 3 -20 5 -5 9 -1 9 11 0 23 -2 24 -12 9z"/>
<path d="M6833 8555 c0 -8 4 -12 9 -9 5 3 6 10 3 15 -9 13 -12 11 -12 -6z"/>
<path d="M14620 8566 c0 -2 8 -10 18 -17 15 -13 16 -12 3 4 -13 16 -21 21 -21
13z"/>
<path d="M12715 8551 c-3 -5 -2 -12 3 -15 5 -3 9 1 9 9 0 17 -3 19 -12 6z"/>
<path d="M4366 8538 c3 -5 10 -6 15 -3 13 9 11 12 -6 12 -8 0 -12 -4 -9 -9z"/>
<path d="M4416 8538 c3 -4 11 -5 19 -1 21 7 19 12 -4 10 -11 0 -18 -5 -15 -9z"/>
<path d="M8619 8548 c-5 -18 -6 -38 -1 -34 7 8 12 36 6 36 -2 0 -4 -1 -5 -2z"/>
<path d="M8655 8540 c3 -5 8 -10 11 -10 2 0 4 5 4 10 0 6 -5 10 -11 10 -5 0
-7 -4 -4 -10z"/>
<path d="M10640 8540 c-9 -6 -10 -10 -3 -10 6 0 15 5 18 10 8 12 4 12 -15 0z"/>
<path d="M13366 8538 c3 -5 10 -6 15 -3 13 9 11 12 -6 12 -8 0 -12 -4 -9 -9z"/>
<path d="M10675 8520 c2 -27 10 -33 12 -10 1 11 -2 22 -6 24 -4 3 -7 -4 -6
-14z"/>
<path d="M6814 8516 c1 -8 5 -18 8 -22 4 -3 5 1 4 10 -1 8 -5 18 -8 22 -4 3
-5 -1 -4 -10z"/>
<path d="M7534 8516 c1 -8 5 -18 8 -22 4 -3 5 1 4 10 -1 8 -5 18 -8 22 -4 3
-5 -1 -4 -10z"/>
<path d="M9355 8520 c3 -5 8 -10 11 -10 2 0 4 5 4 10 0 6 -5 10 -11 10 -5 0
-7 -4 -4 -10z"/>
<path d="M12470 8520 c0 -5 5 -10 11 -10 5 0 7 5 4 10 -3 6 -8 10 -11 10 -2 0
-4 -4 -4 -10z"/>
<path d="M14633 8513 c0 -9 4 -10 14 -2 7 6 13 12 13 14 0 1 -6 2 -13 2 -8 0
-14 -6 -14 -14z"/>
<path d="M8556 8507 c3 -10 9 -15 12 -12 3 3 0 11 -7 18 -10 9 -11 8 -5 -6z"/>
<path d="M9395 8511 c-3 -5 -2 -12 3 -15 5 -3 9 1 9 9 0 17 -3 19 -12 6z"/>
<path d="M10516 8507 c3 -10 9 -15 12 -12 3 3 0 11 -7 18 -10 9 -11 8 -5 -6z"/>
<path d="M4416 8502 c-3 -5 1 -9 9 -9 8 0 12 4 9 9 -3 4 -7 8 -9 8 -2 0 -6 -4
-9 -8z"/>
<path d="M12656 8502 c-2 -4 -1 -14 4 -22 7 -11 9 -9 7 8 -1 24 -3 26 -11 14z"/>
<path d="M13370 8499 c0 -5 5 -7 10 -4 6 3 10 8 10 11 0 2 -4 4 -10 4 -5 0
-10 -5 -10 -11z"/>
<path d="M14516 8487 c3 -10 9 -15 12 -12 3 3 0 11 -7 18 -10 9 -11 8 -5 -6z"/>
<path d="M6786 8482 c-3 -5 1 -9 9 -9 8 0 12 4 9 9 -3 4 -7 8 -9 8 -2 0 -6 -4
-9 -8z"/>
<path d="M10579 8473 c-13 -16 -12 -17 4 -4 9 7 17 15 17 17 0 8 -8 3 -21 -13z"/>
<path d="M14570 8480 c0 -5 5 -10 10 -10 6 0 10 5 10 10 0 6 -4 10 -10 10 -5
0 -10 -4 -10 -10z"/>
<path d="M14686 8478 c3 -5 10 -6 15 -3 13 9 11 12 -6 12 -8 0 -12 -4 -9 -9z"/>
<path d="M7535 8461 c-3 -5 -2 -12 3 -15 5 -3 9 1 9 9 0 17 -3 19 -12 6z"/>
<path d="M11670 8456 c0 -2 8 -10 18 -17 15 -13 16 -12 3 4 -13 16 -21 21 -21
13z"/>
<path d="M10400 8440 c-9 -6 -10 -10 -3 -10 6 0 15 5 18 10 8 12 4 12 -15 0z"/>
<path d="M6793 8425 c0 -8 4 -12 9 -9 5 3 6 10 3 15 -9 13 -12 11 -12 -6z"/>
<path d="M14310 8366 c0 -2 7 -7 16 -10 8 -3 12 -2 9 4 -6 10 -25 14 -25 6z"/>
<path d="M7280 8220 c-9 -6 -10 -10 -3 -10 6 0 15 5 18 10 8 12 4 12 -15 0z"/>
<path d="M8633 8205 c0 -8 4 -12 9 -9 5 3 6 10 3 15 -9 13 -12 11 -12 -6z"/>
<path d="M8756 8207 c3 -10 9 -15 12 -12 3 3 0 11 -7 18 -10 9 -11 8 -5 -6z"/>
<path d="M4766 8202 c-3 -5 1 -9 9 -9 8 0 12 4 9 9 -3 4 -7 8 -9 8 -2 0 -6 -4
-9 -8z"/>
<path d="M9010 8200 c0 -5 5 -10 11 -10 5 0 7 5 4 10 -3 6 -8 10 -11 10 -2 0
-4 -4 -4 -10z"/>
<path d="M11010 8199 c0 -5 5 -7 10 -4 6 3 10 8 10 11 0 2 -4 4 -10 4 -5 0
-10 -5 -10 -11z"/>
<path d="M11250 8200 c0 -5 5 -10 11 -10 5 0 7 5 4 10 -3 6 -8 10 -11 10 -2 0
-4 -4 -4 -10z"/>
<path d="M12835 8200 c-3 -5 -1 -10 4 -10 6 0 11 5 11 10 0 6 -2 10 -4 10 -3
0 -8 -4 -11 -10z"/>
<path d="M12911 8193 c7 -12 15 -20 18 -17 3 2 -3 12 -13 22 -17 16 -18 16 -5
-5z"/>
<path d="M12996 8195 c-9 -26 -7 -32 5 -12 6 10 9 21 6 23 -2 3 -7 -2 -11 -11z"/>
<path d="M7353 8185 c0 -8 4 -12 9 -9 5 3 6 10 3 15 -9 13 -12 11 -12 -6z"/>
<path d="M10956 8187 c3 -10 9 -15 12 -12 3 3 0 11 -7 18 -10 9 -11 8 -5 -6z"/>
<path d="M11053 8175 c0 -8 4 -12 9 -9 5 3 6 10 3 15 -9 13 -12 11 -12 -6z"/>
<path d="M15175 8181 c-3 -5 -2 -12 3 -15 5 -3 9 1 9 9 0 17 -3 19 -12 6z"/>
<path d="M7511 8167 c2 -1 13 -9 24 -17 19 -14 19 -14 6 3 -7 9 -18 17 -24 17
-6 0 -8 -1 -6 -3z"/>
<path d="M9196 8158 c3 -5 10 -6 15 -3 13 9 11 12 -6 12 -8 0 -12 -4 -9 -9z"/>
<path d="M11553 8155 c0 -8 4 -12 9 -9 5 3 6 10 3 15 -9 13 -12 11 -12 -6z"/>
<path d="M14616 8153 c-6 -14 -5 -15 5 -6 7 7 10 15 7 18 -3 3 -9 -2 -12 -12z"/>
<path d="M15295 8160 c3 -5 8 -10 11 -10 2 0 4 5 4 10 0 6 -5 10 -11 10 -5 0
-7 -4 -4 -10z"/>
<path d="M9275 8131 c-3 -5 -2 -12 3 -15 5 -3 9 1 9 9 0 17 -3 19 -12 6z"/>
<path d="M4385 8120 c-3 -6 1 -7 9 -4 18 7 21 14 7 14 -6 0 -13 -4 -16 -10z"/>
<path d="M4986 8118 c3 -5 10 -6 15 -3 13 9 11 12 -6 12 -8 0 -12 -4 -9 -9z"/>
<path d="M15280 8120 c-9 -6 -10 -10 -3 -10 6 0 15 5 18 10 8 12 4 12 -15 0z"/>
<path d="M10755 8091 c-3 -5 -2 -12 3 -15 5 -3 9 1 9 9 0 17 -3 19 -12 6z"/>
<path d="M11029 8023 c-13 -16 -12 -17 4 -4 9 7 17 15 17 17 0 8 -8 3 -21 -13z"/>
<path d="M4870 8000 c0 -5 5 -10 11 -10 5 0 7 5 4 10 -3 6 -8 10 -11 10 -2 0
-4 -4 -4 -10z"/>
</g>
</svg>
